Sura-Bold.ufo
<glyph name="exclam" format="1">
  <advance width="239"/>
  <unicode hex="0021"/>
  <outline>
    <contour>
      <point x="191" y="241" type="line"/>
      <point x="191" y="241"/>
      <point x="188" y="288"/>
      <point x="188" y="318" type="curve" smooth="yes"/>
      <point x="188" y="475"/>
      <point x="213" y="693"/>
      <point x="213" y="693" type="curve"/>
      <point x="184" y="721" type="line"/>
      <point x="64" y="712" type="line"/>
      <point x="73" y="296" type="line"/>
      <point x="73" y="266"/>
      <point x="72" y="230"/>
      <point x="72" y="230" type="curve"/>
      <point x="111" y="230"/>
      <point x="168" y="226"/>
      <point x="174" y="225" type="curve"/>
    </contour>
    <contour>
      <point x="175" y="144"/>
      <point x="203" y="114"/>
      <point x="203" y="64" type="curve" smooth="yes"/>
      <point x="203" y="17"/>
      <point x="177" y="-15"/>
      <point x="129" y="-15" type="curve" smooth="yes"/>
      <point x="81" y="-15"/>
      <point x="55" y="17"/>
      <point x="55" y="64" type="curve" smooth="yes"/>
      <point x="55" y="111"/>
      <point x="81" y="144"/>
      <point x="129" y="144" type="curve" smooth="yes"/>
    </contour>
  </outline>
</glyph>
<glyph name="quotedbl" format="1">
  <advance width="359"/>
  <unicode hex="0022"/>
  <outline>
    <contour>
      <point x="159" y="756" type="line"/>
      <point x="146" y="512" type="line"/>
      <point x="58" y="517" type="line"/>
      <point x="59" y="610" type="line"/>
      <point x="58" y="629"/>
      <point x="40" y="756"/>
      <point x="40" y="756" type="curve"/>
    </contour>
    <contour>
      <point x="319" y="756" type="line"/>
      <point x="306" y="512" type="line"/>
      <point x="218" y="517" type="line"/>
      <point x="219" y="610" type="line"/>
      <point x="218" y="629"/>
      <point x="200" y="756"/>
      <point x="200" y="756" type="curve"/>
    </contour>
  </outline>
</glyph>
<glyph name="ampersand" format="1">
  <advance width="758"/>
  <unicode hex="0026"/>
  <outline>
    <contour>
      <point x="509" y="297"/>
      <point x="504" y="339"/>
      <point x="504" y="339" type="curve"/>
      <point x="620" y="339" type="line"/>
      <point x="620" y="339"/>
      <point x="619" y="332"/>
      <point x="613" y="267" type="curve" smooth="yes"/>
      <point x="596" y="95"/>
      <point x="474" y="-10"/>
      <point x="283" y="-10" type="curve" smooth="yes"/>
      <point x="146" y="-10"/>
      <point x="40" y="44"/>
      <point x="40" y="174" type="curve" smooth="yes"/>
      <point x="40" y="290"/>
      <point x="124" y="356"/>
      <point x="264" y="410" type="curve"/>
      <point x="297" y="326" type="line"/>
      <point x="219" y="273"/>
      <point x="203" y="226"/>
      <point x="203" y="190" type="curve" smooth="yes"/>
      <point x="203" y="122"/>
      <point x="262" y="95"/>
      <point x="318" y="95" type="curve" smooth="yes"/>
      <point x="406" y="95"/>
      <point x="509" y="160"/>
      <point x="509" y="272" type="curve" smooth="yes"/>
    </contour>
    <contour>
      <point x="382" y="562"/>
      <point x="354" y="569"/>
      <point x="330" y="569" type="curve" smooth="yes"/>
      <point x="286" y="569"/>
      <point x="270" y="544"/>
      <point x="270" y="510" type="curve" smooth="yes"/>
      <point x="270" y="427"/>
      <point x="362" y="349"/>
      <point x="609" y="134" type="curve" smooth="yes"/>
      <point x="628" y="118"/>
      <point x="685" y="74"/>
      <point x="685" y="74" type="curve"/>
      <point x="527" y="0" type="line"/>
      <point x="379" y="174"/>
      <point x="102" y="332"/>
      <point x="102" y="506" type="curve" smooth="yes"/>
      <point x="102" y="611"/>
      <point x="204" y="662"/>
      <point x="314" y="662" type="curve" smooth="yes"/>
      <point x="384" y="662"/>
      <point x="454" y="641"/>
      <point x="482" y="631" type="curve"/>
      <point x="470" y="474" type="line"/>
      <point x="405" y="478" type="line"/>
      <point x="405" y="521" type="line" smooth="yes"/>
      <point x="405" y="526"/>
      <point x="391" y="560"/>
      <point x="391" y="560" type="curve"/>
    </contour>
    <contour>
      <point x="668" y="77" type="line"/>
      <point x="733" y="71" type="line"/>
      <point x="728" y="0" type="line"/>
      <point x="728" y="0"/>
      <point x="656" y="0"/>
      <point x="543" y="0" type="curve" smooth="yes"/>
      <point x="527" y="0" type="line"/>
    </contour>
    <contour>
      <point x="618" y="330" type="line"/>
      <point x="520" y="330" type="line"/>
      <point x="455" y="342" type="line"/>
      <point x="460" y="407" type="line"/>
      <point x="460" y="407"/>
      <point x="515" y="402"/>
      <point x="545" y="402" type="curve" smooth="yes"/>
      <point x="585" y="402"/>
      <point x="679" y="407"/>
      <point x="679" y="407" type="curve"/>
      <point x="684" y="336" type="line"/>
    </contour>
  </outline>
</glyph>
<glyph name="plus" format="1">
  <advance width="581"/>
  <unicode hex="002B"/>
  <outline>
    <contour>
      <point x="33" y="203" type="line"/>
      <point x="33" y="308" type="line"/>
      <point x="548" y="308" type="line"/>
      <point x="548" y="208" type="line"/>
    </contour>
    <contour>
      <point x="343" y="0" type="line"/>
      <point x="238" y="0" type="line"/>
      <point x="238" y="511" type="line"/>
      <point x="338" y="511" type="line"/>
    </contour>
  </outline>
</glyph>
<glyph name="period" format="1">
  <advance width="248"/>
  <unicode hex="002E"/>
  <outline>
    <contour>
      <point x="173" y="154"/>
      <point x="203" y="122"/>
      <point x="203" y="69" type="curve" smooth="yes"/>
      <point x="203" y="19"/>
      <point x="174" y="-15"/>
      <point x="124" y="-15" type="curve" smooth="yes"/>
      <point x="74" y="-15"/>
      <point x="45" y="19"/>
      <point x="45" y="69" type="curve" smooth="yes"/>
      <point x="45" y="119"/>
      <point x="74" y="154"/>
      <point x="124" y="154" type="curve" smooth="yes"/>
    </contour>
  </outline>
</glyph>
<glyph name="one" format="1">
  <advance width="426"/>
  <unicode hex="0031"/>
  <outline>
    <contour>
      <point x="409" y="71" type="line"/>
      <point x="331" y="77" type="line"/>
      <point x="330" y="77"/>
      <point x="321" y="143"/>
      <point x="321" y="193" type="curve" smooth="yes"/>
      <point x="321" y="426" type="line" smooth="yes"/>
      <point x="321" y="476"/>
      <point x="329" y="660"/>
      <point x="329" y="660" type="curve"/>
      <point x="226" y="672" type="line"/>
      <point x="226" y="672"/>
      <point x="188" y="624"/>
      <point x="177" y="615" type="curve" smooth="yes"/>
      <point x="157" y="599"/>
      <point x="36" y="507"/>
      <point x="36" y="507" type="curve"/>
      <point x="73" y="445" type="line"/>
      <point x="176" y="484" type="line"/>
      <point x="176" y="163" type="line" smooth="yes"/>
      <point x="176" y="143"/>
      <point x="167" y="77"/>
      <point x="167" y="77" type="curve"/>
      <point x="78" y="65" type="line"/>
      <point x="83" y="-5" type="line"/>
      <point x="83" y="-5"/>
      <point x="166" y="0"/>
      <point x="212" y="0" type="curve" smooth="yes"/>
      <point x="326" y="0"/>
      <point x="403" y="0"/>
      <point x="403" y="0" type="curve"/>
    </contour>
  </outline>
</glyph>
<glyph name="nine" format="1">
  <advance width="552"/>
  <unicode hex="0039"/>
  <outline>
    <contour>
      <point x="109" y="238"/>
      <point x="30" y="313"/>
      <point x="30" y="443" type="curve" smooth="yes"/>
      <point x="30" y="565"/>
      <point x="137" y="662"/>
      <point x="270" y="662" type="curve" smooth="yes"/>
      <point x="433" y="662"/>
      <point x="522" y="555"/>
      <point x="522" y="405" type="curve" smooth="yes"/>
      <point x="522" y="194"/>
      <point x="380" y="-52"/>
      <point x="78" y="-105" type="curve"/>
      <point x="56" y="-31" type="line"/>
      <point x="305" y="35"/>
      <point x="363" y="240"/>
      <point x="363" y="405" type="curve" smooth="yes"/>
      <point x="363" y="490"/>
      <point x="336" y="570"/>
      <point x="271" y="570" type="curve" smooth="yes"/>
      <point x="209" y="570"/>
      <point x="190" y="505"/>
      <point x="190" y="443" type="curve" smooth="yes"/>
      <point x="190" y="373"/>
      <point x="220" y="317"/>
      <point x="268" y="317" type="curve" smooth="yes"/>
      <point x="282" y="317"/>
      <point x="302" y="320"/>
      <point x="302" y="320" type="curve"/>
      <point x="308" y="248" type="line"/>
      <point x="293" y="243"/>
      <point x="270" y="238"/>
      <point x="239" y="238" type="curve" smooth="yes"/>
    </contour>
  </outline>
</glyph>
<glyph name="colon" format="1">
  <advance width="238"/>
  <unicode hex="003A"/>
  <outline>
    <contour>
      <point x="165" y="487"/>
      <point x="193" y="457"/>
      <point x="193" y="407" type="curve" smooth="yes"/>
      <point x="193" y="360"/>
      <point x="167" y="328"/>
      <point x="119" y="328" type="curve" smooth="yes"/>
      <point x="71" y="328"/>
      <point x="45" y="360"/>
      <point x="45" y="407" type="curve" smooth="yes"/>
      <point x="45" y="454"/>
      <point x="71" y="487"/>
      <point x="119" y="487" type="curve" smooth="yes"/>
    </contour>
    <contour>
      <point x="165" y="144"/>
      <point x="193" y="114"/>
      <point x="193" y="64" type="curve" smooth="yes"/>
      <point x="193" y="17"/>
      <point x="167" y="-15"/>
      <point x="119" y="-15" type="curve" smooth="yes"/>
      <point x="71" y="-15"/>
      <point x="45" y="17"/>
      <point x="45" y="64" type="curve" smooth="yes"/>
      <point x="45" y="111"/>
      <point x="71" y="144"/>
      <point x="119" y="144" type="curve" smooth="yes"/>
    </contour>
  </outline>
</glyph>
<glyph name="semicolon" format="1">
  <advance width="239"/>
  <unicode hex="003B"/>
  <outline>
    <contour>
      <point x="67" y="-7"/>
      <point x="45" y="30"/>
      <point x="45" y="71" type="curve" smooth="yes"/>
      <point x="45" y="121"/>
      <point x="70" y="154"/>
      <point x="120" y="154" type="curve" smooth="yes"/>
      <point x="178" y="154"/>
      <point x="196" y="107"/>
      <point x="196" y="52" type="curve" smooth="yes"/>
      <point x="196" y="-27"/>
      <point x="146" y="-117"/>
      <point x="39" y="-136" type="curve"/>
      <point x="27" y="-104" type="line"/>
      <point x="79" y="-86"/>
      <point x="108" y="-55"/>
      <point x="113" y="-10" type="curve"/>
    </contour>
    <contour>
      <point x="165" y="477"/>
      <point x="193" y="447"/>
      <point x="193" y="397" type="curve" smooth="yes"/>
      <point x="193" y="350"/>
      <point x="167" y="318"/>
      <point x="119" y="318" type="curve" smooth="yes"/>
      <point x="71" y="318"/>
      <point x="45" y="350"/>
      <point x="45" y="397" type="curve" smooth="yes"/>
      <point x="45" y="444"/>
      <point x="71" y="477"/>
      <point x="119" y="477" type="curve" smooth="yes"/>
    </contour>
  </outline>
</glyph>
<glyph name="A" format="1">
  <advance width="692"/>
  <unicode hex="0041"/>
  <outline>
    <contour>
      <point x="289" y="705" type="line"/>
      <point x="100" y="161" type="line" smooth="yes"/>
      <point x="90" y="131"/>
      <point x="73" y="102"/>
      <point x="57" y="73" type="curve"/>
      <point x="13" y="65" type="line"/>
      <point x="18" y="-5" type="line"/>
      <point x="18" y="-5"/>
      <point x="128" y="0"/>
      <point x="158" y="0" type="curve"/>
      <point x="263" y="0" type="line"/>
      <point x="268" y="71" type="line"/>
      <point x="210" y="77" type="line"/>
      <point x="211" y="90"/>
      <point x="212" y="102"/>
      <point x="216" y="115" type="curve" smooth="yes"/>
      <point x="358" y="584" type="line"/>
    </contour>
    <contour>
      <point x="400" y="263" type="line"/>
      <point x="259" y="263" type="line"/>
      <point x="233" y="179" type="line"/>
      <point x="424" y="179" type="line"/>
    </contour>
    <contour>
      <point x="436" y="129" type="line" smooth="yes"/>
      <point x="441" y="112"/>
      <point x="440" y="94"/>
      <point x="441" y="76" type="curve"/>
      <point x="382" y="65" type="line"/>
      <point x="387" y="-5" type="line"/>
      <point x="387" y="-5"/>
      <point x="541" y="0"/>
      <point x="591" y="0" type="curve"/>
      <point x="675" y="0" type="line"/>
      <point x="680" y="71" type="line"/>
      <point x="621" y="80" type="line"/>
      <point x="613" y="96"/>
      <point x="607" y="111"/>
      <point x="601" y="128" type="curve" smooth="yes"/>
      <point x="401" y="716" type="line"/>
      <point x="289" y="705" type="line"/>
      <point x="308" y="582" type="line"/>
    </contour>
    <contour>
      <point x="675" y="0" type="move" name="ogonek"/>
    </contour>
    <contour>
      <point x="332" y="0" type="move" name="bottom"/>
    </contour>
    <contour>
      <point x="352" y="705" type="move" name="top"/>
    </contour>
  </outline>
</glyph>
<glyph name="B" format="1">
  <advance width="651"/>
  <unicode hex="0042"/>
  <outline>
    <contour>
      <point x="199" y="620"/>
      <point x="265" y="628"/>
      <point x="323" y="628" type="curve" smooth="yes"/>
      <point x="393" y="628"/>
      <point x="428" y="586"/>
      <point x="428" y="521" type="curve" smooth="yes"/>
      <point x="428" y="451"/>
      <point x="392" y="407"/>
      <point x="322" y="407" type="curve" smooth="yes"/>
      <point x="316" y="407" type="line"/>
      <point x="309" y="320" type="line"/>
      <point x="319" y="320" type="line" smooth="yes"/>
      <point x="394" y="320"/>
      <point x="451" y="292"/>
      <point x="451" y="203" type="curve" smooth="yes"/>
      <point x="451" y="124"/>
      <point x="402" y="77"/>
      <point x="330" y="77" type="curve" smooth="yes"/>
      <point x="311" y="77"/>
      <point x="292" y="78"/>
      <point x="274" y="80" type="curve"/>
      <point x="196" y="0" type="line"/>
      <point x="246" y="0"/>
      <point x="315" y="-5"/>
      <point x="365" y="-5" type="curve" smooth="yes"/>
      <point x="494" y="-5"/>
      <point x="604" y="56"/>
      <point x="604" y="189" type="curve" smooth="yes"/>
      <point x="604" y="293"/>
      <point x="532" y="349"/>
      <point x="434" y="364" type="curve"/>
      <point x="434" y="371" type="line"/>
      <point x="515" y="391"/>
      <point x="573" y="455"/>
      <point x="573" y="543" type="curve" smooth="yes"/>
      <point x="573" y="648"/>
      <point x="468" y="710"/>
      <point x="348" y="710" type="curve" smooth="yes"/>
      <point x="298" y="710"/>
      <point x="217" y="705"/>
      <point x="167" y="705" type="curve"/>
      <point x="121" y="614" type="line"/>
    </contour>
    <contour>
      <point x="167" y="705" type="line"/>
      <point x="137" y="705"/>
      <point x="47" y="710"/>
      <point x="47" y="710" type="curve"/>
      <point x="42" y="635" type="line"/>
      <point x="107" y="623" type="line"/>
      <point x="109" y="607"/>
      <point x="116" y="562"/>
      <point x="116" y="542" type="curve" smooth="yes"/>
      <point x="116" y="163" type="line" smooth="yes"/>
      <point x="116" y="143"/>
      <point x="108" y="87"/>
      <point x="107" y="77" type="curve"/>
      <point x="41" y="65" type="line"/>
      <point x="46" y="-5" type="line"/>
      <point x="46" y="-5"/>
      <point x="166" y="0"/>
      <point x="196" y="0" type="curve"/>
      <point x="280" y="57" type="line"/>
      <point x="278" y="81"/>
      <point x="271" y="153"/>
      <point x="271" y="193" type="curve" smooth="yes"/>
      <point x="271" y="512" type="line" smooth="yes"/>
      <point x="271" y="552"/>
      <point x="275" y="618"/>
      <point x="278" y="643" type="curve"/>
    </contour>
  </outline>
</glyph>
<glyph name="C" format="1">
  <advance width="679"/>
  <unicode hex="0043"/>
  <outline>
    <contour>
      <point x="619" y="191" type="line"/>
      <point x="544" y="189" type="line"/>
      <point x="544" y="189"/>
      <point x="542" y="153"/>
      <point x="541" y="142" type="curve"/>
      <point x="541" y="134"/>
      <point x="527" y="100"/>
      <point x="525" y="93" type="curve"/>
      <point x="480" y="83"/>
      <point x="444" y="78"/>
      <point x="401" y="78" type="curve" smooth="yes"/>
      <point x="278" y="78"/>
      <point x="232" y="200"/>
      <point x="232" y="353" type="curve" smooth="yes"/>
      <point x="232" y="506"/>
      <point x="279" y="627"/>
      <point x="402" y="627" type="curve" smooth="yes"/>
      <point x="441" y="627"/>
      <point x="473" y="622"/>
      <point x="514" y="613" type="curve"/>
      <point x="519" y="600"/>
      <point x="526" y="578"/>
      <point x="526" y="572" type="curve" smooth="yes"/>
      <point x="529" y="511" type="line"/>
      <point x="606" y="507" type="line"/>
      <point x="618" y="686" type="line"/>
      <point x="553" y="704"/>
      <point x="488" y="720"/>
      <point x="402" y="720" type="curve" smooth="yes"/>
      <point x="170" y="720"/>
      <point x="52" y="570"/>
      <point x="52" y="352" type="curve" smooth="yes"/>
      <point x="52" y="134"/>
      <point x="170" y="-15"/>
      <point x="402" y="-15" type="curve" smooth="yes"/>
      <point x="487" y="-15"/>
      <point x="562" y="3"/>
      <point x="627" y="19" type="curve"/>
    </contour>
    <contour>
      <point x="403" y="705" type="move" name="top"/>
    </contour>
    <contour>
      <point x="379" y="0" type="move" name="bottom"/>
    </contour>
  </outline>
</glyph>
<glyph name="D" format="1">
  <advance width="758"/>
  <unicode hex="0044"/>
  <outline>
    <contour>
      <point x="265" y="624" type="line"/>
      <point x="288" y="626"/>
      <point x="322" y="627"/>
      <point x="342" y="627" type="curve" smooth="yes"/>
      <point x="489" y="627"/>
      <point x="541" y="501"/>
      <point x="541" y="354" type="curve" smooth="yes"/>
      <point x="541" y="200"/>
      <point x="490" y="78"/>
      <point x="340" y="78" type="curve" smooth="yes"/>
      <point x="313" y="78"/>
      <point x="276" y="79"/>
      <point x="265" y="80" type="curve"/>
      <point x="196" y="0" type="line"/>
      <point x="246" y="0"/>
      <point x="306" y="-5"/>
      <point x="356" y="-5" type="curve" smooth="yes"/>
      <point x="588" y="-5"/>
      <point x="708" y="142"/>
      <point x="708" y="352" type="curve" smooth="yes"/>
      <point x="708" y="562"/>
      <point x="588" y="710"/>
      <point x="356" y="710" type="curve" smooth="yes"/>
      <point x="306" y="710"/>
      <point x="217" y="705"/>
      <point x="167" y="705" type="curve"/>
    </contour>
    <contour>
      <point x="167" y="705" type="line"/>
      <point x="137" y="705"/>
      <point x="47" y="710"/>
      <point x="47" y="710" type="curve"/>
      <point x="42" y="635" type="line"/>
      <point x="107" y="623" type="line"/>
      <point x="109" y="607"/>
      <point x="116" y="562"/>
      <point x="116" y="542" type="curve" smooth="yes"/>
      <point x="116" y="163" type="line" smooth="yes"/>
      <point x="116" y="143"/>
      <point x="108" y="87"/>
      <point x="107" y="77" type="curve"/>
      <point x="41" y="65" type="line"/>
      <point x="46" y="-5" type="line"/>
      <point x="46" y="-5"/>
      <point x="166" y="0"/>
      <point x="196" y="0" type="curve"/>
      <point x="280" y="57" type="line"/>
      <point x="278" y="81"/>
      <point x="271" y="153"/>
      <point x="271" y="193" type="curve" smooth="yes"/>
      <point x="271" y="512" type="line" smooth="yes"/>
      <point x="271" y="552"/>
      <point x="275" y="618"/>
      <point x="278" y="643" type="curve"/>
    </contour>
    <contour>
      <point x="366" y="353" type="move" name="center"/>
    </contour>
    <contour>
      <point x="346" y="705" type="move" name="top"/>
    </contour>
  </outline>
</glyph>
<glyph name="E" format="1">
  <advance width="623"/>
  <unicode hex="0045"/>
  <outline>
    <contour>
      <point x="389" y="623" type="line"/>
      <point x="419" y="623"/>
      <point x="444" y="621"/>
      <point x="464" y="619" type="curve"/>
      <point x="477" y="583" type="line"/>
      <point x="479" y="568"/>
      <point x="481" y="554"/>
      <point x="483" y="537" type="curve"/>
      <point x="555" y="542" type="line"/>
      <point x="548" y="692" type="line"/>
      <point x="529" y="710" type="line"/>
      <point x="499" y="708"/>
      <point x="434" y="705"/>
      <point x="414" y="705" type="curve"/>
      <point x="167" y="705" type="line"/>
      <point x="275" y="623" type="line"/>
    </contour>
    <contour>
      <point x="261" y="316" type="line"/>
      <point x="333" y="316" type="line"/>
      <point x="353" y="316"/>
      <point x="397" y="310"/>
      <point x="397" y="310" type="curve"/>
      <point x="406" y="250" type="line"/>
      <point x="470" y="256" type="line"/>
      <point x="470" y="256"/>
      <point x="467" y="333"/>
      <point x="467" y="383" type="curve" smooth="yes"/>
      <point x="467" y="403"/>
      <point x="468" y="466"/>
      <point x="468" y="466" type="curve"/>
      <point x="406" y="471" type="line"/>
      <point x="397" y="407" type="line"/>
      <point x="397" y="407"/>
      <point x="373" y="398"/>
      <point x="353" y="398" type="curve"/>
      <point x="261" y="398" type="line"/>
    </contour>
    <contour>
      <point x="429" y="0" type="line" smooth="yes"/>
      <point x="449" y="0"/>
      <point x="543" y="-4"/>
      <point x="543" y="-4" type="curve"/>
      <point x="562" y="14" type="line"/>
      <point x="577" y="190" type="line"/>
      <point x="507" y="195" type="line"/>
      <point x="505" y="179"/>
      <point x="499" y="153"/>
      <point x="495" y="138" type="curve" smooth="yes"/>
      <point x="492" y="128"/>
      <point x="486" y="113"/>
      <point x="476" y="95" type="curve"/>
      <point x="456" y="91"/>
      <point x="428" y="87"/>
      <point x="399" y="87" type="curve" smooth="yes"/>
      <point x="274" y="87" type="line"/>
      <point x="196" y="0" type="line"/>
    </contour>
    <contour>
      <point x="167" y="705" type="line"/>
      <point x="137" y="705"/>
      <point x="47" y="710"/>
      <point x="47" y="710" type="curve"/>
      <point x="42" y="635" type="line"/>
      <point x="107" y="623" type="line"/>
      <point x="109" y="607"/>
      <point x="116" y="562"/>
      <point x="116" y="542" type="curve" smooth="yes"/>
      <point x="116" y="163" type="line" smooth="yes"/>
      <point x="116" y="143"/>
      <point x="108" y="87"/>
      <point x="107" y="77" type="curve"/>
      <point x="41" y="65" type="line"/>
      <point x="46" y="-5" type="line"/>
      <point x="46" y="-5"/>
      <point x="166" y="0"/>
      <point x="196" y="0" type="curve"/>
      <point x="280" y="57" type="line"/>
      <point x="278" y="81"/>
      <point x="271" y="153"/>
      <point x="271" y="193" type="curve" smooth="yes"/>
      <point x="271" y="512" type="line" smooth="yes"/>
      <point x="271" y="552"/>
      <point x="275" y="618"/>
      <point x="278" y="643" type="curve"/>
    </contour>
    <contour>
      <point x="543" y="-4" type="move" name="ogonek"/>
    </contour>
    <contour>
      <point x="331" y="0" type="move" name="bottom"/>
    </contour>
    <contour>
      <point x="301" y="705" type="move" name="top"/>
    </contour>
  </outline>
</glyph>
<glyph name="F" format="1">
  <advance width="582"/>
  <unicode hex="0046"/>
  <outline>
    <contour>
      <point x="275" y="623" type="line"/>
      <point x="385" y="623" type="line" smooth="yes"/>
      <point x="415" y="623"/>
      <point x="445" y="620"/>
      <point x="465" y="618" type="curve"/>
      <point x="469" y="608"/>
      <point x="473" y="599"/>
      <point x="474" y="595" type="curve"/>
      <point x="478" y="580"/>
      <point x="481" y="552"/>
      <point x="483" y="536" type="curve"/>
      <point x="555" y="541" type="line"/>
      <point x="548" y="692" type="line"/>
      <point x="529" y="710" type="line"/>
      <point x="529" y="710"/>
      <point x="435" y="705"/>
      <point x="415" y="705" type="curve" smooth="yes"/>
      <point x="167" y="705" type="line"/>
    </contour>
    <contour>
      <point x="333" y="305" type="line"/>
      <point x="353" y="305"/>
      <point x="397" y="299"/>
      <point x="397" y="299" type="curve"/>
      <point x="406" y="239" type="line"/>
      <point x="470" y="245" type="line"/>
      <point x="470" y="245"/>
      <point x="467" y="322"/>
      <point x="467" y="372" type="curve" smooth="yes"/>
      <point x="467" y="392"/>
      <point x="468" y="455"/>
      <point x="468" y="455" type="curve"/>
      <point x="406" y="460" type="line"/>
      <point x="397" y="396" type="line"/>
      <point x="397" y="396"/>
      <point x="373" y="387"/>
      <point x="353" y="387" type="curve"/>
      <point x="261" y="387" type="line"/>
      <point x="261" y="305" type="line"/>
    </contour>
    <contour>
      <point x="167" y="705" type="line"/>
      <point x="137" y="705"/>
      <point x="47" y="710"/>
      <point x="47" y="710" type="curve"/>
      <point x="42" y="635" type="line"/>
      <point x="107" y="623" type="line"/>
      <point x="109" y="607"/>
      <point x="116" y="562"/>
      <point x="116" y="542" type="curve" smooth="yes"/>
      <point x="116" y="163" type="line" smooth="yes"/>
      <point x="116" y="143"/>
      <point x="108" y="87"/>
      <point x="107" y="77" type="curve"/>
      <point x="41" y="65" type="line"/>
      <point x="46" y="-5" type="line"/>
      <point x="46" y="-5"/>
      <point x="166" y="0"/>
      <point x="196" y="0" type="curve"/>
      <point x="370" y="0" type="line"/>
      <point x="375" y="71" type="line"/>
      <point x="280" y="77" type="line"/>
      <point x="278" y="91"/>
      <point x="271" y="153"/>
      <point x="271" y="193" type="curve" smooth="yes"/>
      <point x="271" y="512" type="line" smooth="yes"/>
      <point x="271" y="552"/>
      <point x="275" y="618"/>
      <point x="278" y="643" type="curve"/>
    </contour>
  </outline>
</glyph>
<glyph name="G" format="1">
  <advance width="732"/>
  <unicode hex="0047"/>
  <outline>
    <contour>
      <point x="548" y="600"/>
      <point x="555" y="578"/>
      <point x="555" y="572" type="curve" smooth="yes"/>
      <point x="558" y="525" type="line"/>
      <point x="635" y="521" type="line"/>
      <point x="647" y="686" type="line"/>
      <point x="578" y="704"/>
      <point x="509" y="720"/>
      <point x="418" y="720" type="curve" smooth="yes"/>
      <point x="175" y="720"/>
      <point x="51" y="570"/>
      <point x="51" y="352" type="curve" smooth="yes"/>
      <point x="51" y="134"/>
      <point x="175" y="-15"/>
      <point x="418" y="-15" type="curve" smooth="yes"/>
      <point x="508" y="-15"/>
      <point x="587" y="3"/>
      <point x="656" y="19" type="curve"/>
      <point x="656" y="196" type="line" smooth="yes"/>
      <point x="656" y="246"/>
      <point x="665" y="341"/>
      <point x="665" y="341" type="curve"/>
      <point x="637" y="366" type="line"/>
      <point x="637" y="366"/>
      <point x="555" y="363"/>
      <point x="522" y="363" type="curve"/>
      <point x="411" y="363" type="line"/>
      <point x="406" y="265" type="line"/>
      <point x="512" y="257" type="line"/>
      <point x="512" y="257"/>
      <point x="522" y="216"/>
      <point x="522" y="196" type="curve" smooth="yes"/>
      <point x="522" y="128" type="line" smooth="yes"/>
      <point x="522" y="120"/>
      <point x="519" y="104"/>
      <point x="515" y="86" type="curve"/>
      <point x="482" y="81"/>
      <point x="451" y="78"/>
      <point x="417" y="78" type="curve" smooth="yes"/>
      <point x="283" y="78"/>
      <point x="231" y="200"/>
      <point x="231" y="353" type="curve" smooth="yes"/>
      <point x="231" y="506"/>
      <point x="284" y="627"/>
      <point x="418" y="627" type="curve" smooth="yes"/>
      <point x="460" y="627"/>
      <point x="499" y="622"/>
      <point x="543" y="613" type="curve"/>
    </contour>
    <contour>
      <point x="417" y="705" type="move" name="top"/>
    </contour>
    <contour>
      <point x="420" y="0" type="move" name="bottom"/>
    </contour>
  </outline>
</glyph>
<glyph name="H" format="1">
  <advance width="820"/>
  <unicode hex="0048"/>
  <outline>
    <contour>
      <point x="553" y="393" type="line"/>
      <point x="266" y="389" type="line"/>
      <point x="266" y="302" type="line"/>
      <point x="553" y="302" type="line"/>
    </contour>
    <contour>
      <point x="341" y="710" type="line"/>
      <point x="341" y="710"/>
      <point x="247" y="705"/>
      <point x="167" y="705" type="curve" smooth="yes"/>
      <point x="137" y="705"/>
      <point x="47" y="710"/>
      <point x="47" y="710" type="curve"/>
      <point x="42" y="635" type="line"/>
      <point x="107" y="623" type="line"/>
      <point x="109" y="607"/>
      <point x="116" y="562"/>
      <point x="116" y="542" type="curve" smooth="yes"/>
      <point x="116" y="163" type="line" smooth="yes"/>
      <point x="116" y="143"/>
      <point x="108" y="87"/>
      <point x="107" y="77" type="curve"/>
      <point x="41" y="65" type="line"/>
      <point x="46" y="-5" type="line"/>
      <point x="46" y="-5"/>
      <point x="166" y="0"/>
      <point x="196" y="0" type="curve"/>
      <point x="340" y="0" type="line"/>
      <point x="345" y="71" type="line"/>
      <point x="280" y="77" type="line"/>
      <point x="278" y="91"/>
      <point x="271" y="153"/>
      <point x="271" y="193" type="curve" smooth="yes"/>
      <point x="271" y="512" type="line" smooth="yes"/>
      <point x="271" y="552"/>
      <point x="277" y="608"/>
      <point x="280" y="623" type="curve"/>
      <point x="346" y="629" type="line"/>
    </contour>
    <contour>
      <point x="773" y="710" type="line"/>
      <point x="773" y="710"/>
      <point x="679" y="705"/>
      <point x="599" y="705" type="curve" smooth="yes"/>
      <point x="569" y="705"/>
      <point x="479" y="710"/>
      <point x="479" y="710" type="curve"/>
      <point x="474" y="635" type="line"/>
      <point x="539" y="623" type="line"/>
      <point x="541" y="607"/>
      <point x="548" y="562"/>
      <point x="548" y="542" type="curve" smooth="yes"/>
      <point x="548" y="163" type="line" smooth="yes"/>
      <point x="548" y="143"/>
      <point x="540" y="87"/>
      <point x="539" y="77" type="curve"/>
      <point x="473" y="65" type="line"/>
      <point x="478" y="-5" type="line"/>
      <point x="478" y="-5"/>
      <point x="598" y="0"/>
      <point x="628" y="0" type="curve"/>
      <point x="772" y="0" type="line"/>
      <point x="777" y="71" type="line"/>
      <point x="712" y="77" type="line"/>
      <point x="710" y="91"/>
      <point x="703" y="153"/>
      <point x="703" y="193" type="curve" smooth="yes"/>
      <point x="703" y="512" type="line" smooth="yes"/>
      <point x="703" y="552"/>
      <point x="709" y="608"/>
      <point x="712" y="623" type="curve"/>
      <point x="778" y="629" type="line"/>
    </contour>
    <contour>
      <point x="410" y="353" type="move" name="center"/>
    </contour>
    <contour>
      <point x="410" y="705" type="move" name="top"/>
    </contour>
  </outline>
</glyph>
<glyph name="I" format="1">
  <advance width="388"/>
  <unicode hex="0049"/>
  <outline>
    <contour>
      <point x="341" y="710" type="line"/>
      <point x="341" y="710"/>
      <point x="247" y="705"/>
      <point x="167" y="705" type="curve" smooth="yes"/>
      <point x="137" y="705"/>
      <point x="47" y="710"/>
      <point x="47" y="710" type="curve"/>
      <point x="42" y="635" type="line"/>
      <point x="107" y="623" type="line"/>
      <point x="109" y="607"/>
      <point x="116" y="562"/>
      <point x="116" y="542" type="curve" smooth="yes"/>
      <point x="116" y="163" type="line" smooth="yes"/>
      <point x="116" y="143"/>
      <point x="108" y="87"/>
      <point x="107" y="77" type="curve"/>
      <point x="41" y="65" type="line"/>
      <point x="46" y="-5" type="line"/>
      <point x="46" y="-5"/>
      <point x="166" y="0"/>
      <point x="196" y="0" type="curve"/>
      <point x="340" y="0" type="line"/>
      <point x="345" y="71" type="line"/>
      <point x="280" y="77" type="line"/>
      <point x="278" y="91"/>
      <point x="271" y="153"/>
      <point x="271" y="193" type="curve" smooth="yes"/>
      <point x="271" y="512" type="line" smooth="yes"/>
      <point x="271" y="552"/>
      <point x="277" y="608"/>
      <point x="280" y="623" type="curve"/>
      <point x="346" y="629" type="line"/>
    </contour>
    <contour>
      <point x="340" y="0" type="move" name="ogonek"/>
    </contour>
    <contour>
      <point x="194" y="0" type="move" name="bottom"/>
    </contour>
    <contour>
      <point x="194" y="705" type="move" name="top"/>
    </contour>
  </outline>
</glyph>
<glyph name="J" format="1">
  <advance width="368"/>
  <unicode hex="004A"/>
  <outline>
    <contour>
      <point x="37" y="710" type="curve"/>
      <point x="32" y="635" type="line"/>
      <point x="97" y="623" type="line"/>
      <point x="100" y="608"/>
      <point x="106" y="562"/>
      <point x="106" y="542" type="curve" smooth="yes"/>
      <point x="106" y="11" type="line" smooth="yes"/>
      <point x="106" y="-9"/>
      <point x="30" y="-169"/>
      <point x="30" y="-169" type="curve"/>
      <point x="84" y="-200" type="line"/>
      <point x="180" y="-111"/>
      <point x="261" y="-23"/>
      <point x="261" y="10" type="curve" smooth="yes"/>
      <point x="261" y="512" type="line" smooth="yes"/>
      <point x="261" y="552"/>
      <point x="268" y="614"/>
      <point x="270" y="623" type="curve"/>
      <point x="336" y="629" type="line"/>
      <point x="331" y="710" type="line"/>
      <point x="331" y="710"/>
      <point x="237" y="705"/>
      <point x="157" y="705" type="curve" smooth="yes"/>
      <point x="127" y="705"/>
      <point x="37" y="710"/>
    </contour>
    <contour>
      <point x="184" y="705" type="move" name="top"/>
    </contour>
  </outline>
</glyph>
<glyph name="K" format="1">
  <advance width="771"/>
  <unicode hex="004B"/>
  <outline>
    <contour>
      <point x="506" y="705"/>
      <point x="439" y="710"/>
      <point x="439" y="710" type="curve"/>
      <point x="434" y="635" type="line"/>
      <point x="465" y="629" type="line"/>
      <point x="437" y="577" type="line" smooth="yes"/>
      <point x="275" y="353" type="line"/>
      <point x="275" y="353"/>
      <point x="404" y="188"/>
      <point x="425" y="164" type="curve"/>
      <point x="439" y="145"/>
      <point x="466" y="102"/>
      <point x="484" y="73" type="curve"/>
      <point x="445" y="65" type="line"/>
      <point x="450" y="-5" type="line"/>
      <point x="450" y="-5"/>
      <point x="560" y="0"/>
      <point x="610" y="0" type="curve"/>
      <point x="747" y="0" type="line"/>
      <point x="752" y="71" type="line"/>
      <point x="704" y="77" type="line"/>
      <point x="684" y="95"/>
      <point x="659" y="117"/>
      <point x="649" y="129" type="curve"/>
      <point x="582" y="209"/>
      <point x="512" y="290"/>
      <point x="444" y="370" type="curve"/>
      <point x="573" y="546" type="line"/>
      <point x="594" y="569"/>
      <point x="624" y="599"/>
      <point x="649" y="623" type="curve"/>
      <point x="707" y="629" type="line"/>
      <point x="702" y="710" type="line"/>
      <point x="702" y="710"/>
      <point x="616" y="705"/>
      <point x="536" y="705" type="curve" smooth="yes"/>
    </contour>
    <contour>
      <point x="341" y="710" type="line"/>
      <point x="341" y="710"/>
      <point x="247" y="705"/>
      <point x="167" y="705" type="curve" smooth="yes"/>
      <point x="137" y="705"/>
      <point x="47" y="710"/>
      <point x="47" y="710" type="curve"/>
      <point x="42" y="635" type="line"/>
      <point x="107" y="623" type="line"/>
      <point x="109" y="607"/>
      <point x="116" y="562"/>
      <point x="116" y="542" type="curve" smooth="yes"/>
      <point x="116" y="163" type="line" smooth="yes"/>
      <point x="116" y="143"/>
      <point x="108" y="87"/>
      <point x="107" y="77" type="curve"/>
      <point x="41" y="65" type="line"/>
      <point x="46" y="-5" type="line"/>
      <point x="46" y="-5"/>
      <point x="166" y="0"/>
      <point x="196" y="0" type="curve"/>
      <point x="340" y="0" type="line"/>
      <point x="345" y="71" type="line"/>
      <point x="280" y="77" type="line"/>
      <point x="278" y="91"/>
      <point x="271" y="153"/>
      <point x="271" y="193" type="curve" smooth="yes"/>
      <point x="271" y="512" type="line" smooth="yes"/>
      <point x="271" y="552"/>
      <point x="277" y="608"/>
      <point x="280" y="623" type="curve"/>
      <point x="346" y="629" type="line"/>
    </contour>
    <contour>
      <point x="372" y="705" type="move" name="top"/>
    </contour>
    <contour>
      <point x="372" y="0" type="move" name="bottom"/>
    </contour>
  </outline>
</glyph>
<glyph name="L" format="1">
  <advance width="577"/>
  <unicode hex="004C"/>
  <outline>
    <contour>
      <point x="196" y="0" type="line"/>
      <point x="403" y="0" type="line" smooth="yes"/>
      <point x="423" y="0"/>
      <point x="517" y="-4"/>
      <point x="517" y="-4" type="curve"/>
      <point x="536" y="14" type="line"/>
      <point x="551" y="190" type="line"/>
      <point x="481" y="195" type="line"/>
      <point x="479" y="179"/>
      <point x="473" y="153"/>
      <point x="469" y="138" type="curve"/>
      <point x="468" y="132"/>
      <point x="459" y="114"/>
      <point x="450" y="95" type="curve"/>
      <point x="431" y="91"/>
      <point x="402" y="87"/>
      <point x="373" y="87" type="curve" smooth="yes"/>
      <point x="189" y="87" type="line"/>
    </contour>
    <contour>
      <point x="351" y="710" type="line"/>
      <point x="351" y="710"/>
      <point x="247" y="705"/>
      <point x="167" y="705" type="curve" smooth="yes"/>
      <point x="137" y="705"/>
      <point x="47" y="710"/>
      <point x="47" y="710" type="curve"/>
      <point x="42" y="635" type="line"/>
      <point x="107" y="623" type="line"/>
      <point x="109" y="607"/>
      <point x="116" y="562"/>
      <point x="116" y="542" type="curve" smooth="yes"/>
      <point x="116" y="163" type="line" smooth="yes"/>
      <point x="116" y="143"/>
      <point x="108" y="87"/>
      <point x="107" y="77" type="curve"/>
      <point x="41" y="65" type="line"/>
      <point x="46" y="-5" type="line"/>
      <point x="46" y="-5"/>
      <point x="166" y="0"/>
      <point x="196" y="0" type="curve"/>
      <point x="280" y="77" type="line"/>
      <point x="278" y="91"/>
      <point x="271" y="153"/>
      <point x="271" y="193" type="curve" smooth="yes"/>
      <point x="271" y="512" type="line" smooth="yes"/>
      <point x="271" y="552"/>
      <point x="277" y="608"/>
      <point x="280" y="623" type="curve"/>
      <point x="356" y="629" type="line"/>
    </contour>
    <contour>
      <point x="179" y="705" type="move" name="top"/>
    </contour>
    <contour>
      <point x="279" y="0" type="move" name="bottom"/>
    </contour>
  </outline>
</glyph>
<glyph name="M" format="1">
  <advance width="952"/>
  <unicode hex="004D"/>
  <outline>
    <contour>
      <point x="651" y="705" type="line"/>
      <point x="631" y="685" type="line"/>
      <point x="631" y="685"/>
      <point x="598" y="572"/>
      <point x="590" y="549" type="curve" smooth="yes"/>
      <point x="478" y="221" type="line"/>
      <point x="375" y="534" type="line" smooth="yes"/>
      <point x="363" y="571"/>
      <point x="332" y="685"/>
      <point x="332" y="685" type="curve"/>
      <point x="312" y="705" type="line"/>
      <point x="185" y="705" type="line"/>
      <point x="165" y="705"/>
      <point x="65" y="710"/>
      <point x="65" y="710" type="curve"/>
      <point x="60" y="635" type="line"/>
      <point x="127" y="623" type="line"/>
      <point x="128" y="605"/>
      <point x="132" y="562"/>
      <point x="131" y="542" type="curve" smooth="yes"/>
      <point x="107" y="163" type="line" smooth="yes"/>
      <point x="106" y="143"/>
      <point x="97" y="95"/>
      <point x="92" y="77" type="curve"/>
      <point x="23" y="65" type="line"/>
      <point x="28" y="-5" type="line"/>
      <point x="28" y="-5"/>
      <point x="118" y="0"/>
      <point x="148" y="0" type="curve"/>
      <point x="283" y="0" type="line"/>
      <point x="289" y="71" type="line"/>
      <point x="221" y="77" type="line"/>
      <point x="219" y="100"/>
      <point x="217" y="153"/>
      <point x="219" y="193" type="curve" smooth="yes"/>
      <point x="236" y="518" type="line"/>
      <point x="415" y="0" type="line"/>
      <point x="507" y="0" type="line"/>
      <point x="691" y="518" type="line"/>
      <point x="707" y="163" type="line" smooth="yes"/>
      <point x="708" y="143"/>
      <point x="705" y="100"/>
      <point x="703" y="77" type="curve"/>
      <point x="637" y="65" type="line"/>
      <point x="642" y="-5" type="line"/>
      <point x="642" y="-5"/>
      <point x="752" y="0"/>
      <point x="782" y="0" type="curve"/>
      <point x="924" y="0" type="line"/>
      <point x="929" y="71" type="line"/>
      <point x="862" y="77" type="line"/>
      <point x="858" y="95"/>
      <point x="848" y="152"/>
      <point x="845" y="192" type="curve" smooth="yes"/>
      <point x="821" y="512" type="line" smooth="yes"/>
      <point x="818" y="552"/>
      <point x="819" y="595"/>
      <point x="820" y="623" type="curve"/>
      <point x="885" y="629" type="line"/>
      <point x="880" y="710" type="line"/>
      <point x="880" y="710"/>
      <point x="803" y="705"/>
      <point x="748" y="705" type="curve" smooth="yes"/>
    </contour>
  </outline>
</glyph>
<glyph name="N" format="1">
  <advance width="810"/>
  <unicode hex="004E"/>
  <outline>
    <contour>
      <point x="778" y="629" type="line"/>
      <point x="712" y="623" type="line"/>
      <point x="710" y="611"/>
      <point x="703" y="552"/>
      <point x="703" y="512" type="curve" smooth="yes"/>
      <point x="703" y="0" type="line"/>
      <point x="568" y="0" type="line"/>
      <point x="243" y="450" type="line"/>
      <point x="243" y="193" type="line" smooth="yes"/>
      <point x="243" y="153"/>
      <point x="251" y="87"/>
      <point x="252" y="77" type="curve"/>
      <point x="317" y="71" type="line"/>
      <point x="312" y="0" type="line"/>
      <point x="176" y="0" type="line"/>
      <point x="146" y="0"/>
      <point x="46" y="-5"/>
      <point x="46" y="-5" type="curve"/>
      <point x="41" y="65" type="line"/>
      <point x="107" y="77" type="line"/>
      <point x="109" y="88"/>
      <point x="116" y="143"/>
      <point x="116" y="163" type="curve" smooth="yes"/>
      <point x="116" y="542" type="line" smooth="yes"/>
      <point x="116" y="562"/>
      <point x="109" y="612"/>
      <point x="107" y="623" type="curve"/>
      <point x="42" y="635" type="line"/>
      <point x="47" y="710" type="line"/>
      <point x="47" y="710"/>
      <point x="137" y="705"/>
      <point x="157" y="705" type="curve" smooth="yes"/>
      <point x="249" y="705" type="line"/>
      <point x="268" y="685" type="line"/>
      <point x="268" y="685"/>
      <point x="341" y="559"/>
      <point x="356" y="537" type="curve" smooth="yes"/>
      <point x="576" y="230" type="line"/>
      <point x="576" y="542" type="line" smooth="yes"/>
      <point x="576" y="562"/>
      <point x="569" y="607"/>
      <point x="567" y="623" type="curve"/>
      <point x="502" y="635" type="line"/>
      <point x="507" y="710" type="line"/>
      <point x="542" y="708"/>
      <point x="591" y="705"/>
      <point x="611" y="705" type="curve"/>
      <point x="681" y="705"/>
      <point x="773" y="710"/>
      <point x="773" y="710" type="curve"/>
    </contour>
    <contour>
      <point x="397" y="705" type="move" name="top"/>
    </contour>
    <contour>
      <point x="397" y="0" type="move" name="bottom"/>
    </contour>
  </outline>
</glyph>
<glyph name="P" format="1">
  <advance width="630"/>
  <unicode hex="0050"/>
  <outline>
    <contour>
      <point x="306" y="710"/>
      <point x="222" y="705"/>
      <point x="167" y="705" type="curve"/>
      <point x="121" y="614" type="line"/>
      <point x="169" y="618"/>
      <point x="283" y="628"/>
      <point x="303" y="628" type="curve" smooth="yes"/>
      <point x="396" y="628"/>
      <point x="436" y="586"/>
      <point x="436" y="497" type="curve" smooth="yes"/>
      <point x="436" y="405"/>
      <point x="379" y="353"/>
      <point x="288" y="353" type="curve" smooth="yes"/>
      <point x="251" y="353"/>
      <point x="165" y="353"/>
      <point x="165" y="353" type="curve"/>
      <point x="165" y="271" type="line"/>
      <point x="165" y="271"/>
      <point x="252" y="271"/>
      <point x="326" y="271" type="curve" smooth="yes"/>
      <point x="468" y="271"/>
      <point x="597" y="354"/>
      <point x="597" y="496" type="curve" smooth="yes"/>
      <point x="597" y="631"/>
      <point x="501" y="710"/>
      <point x="361" y="710" type="curve" smooth="yes"/>
    </contour>
    <contour>
      <point x="167" y="705" type="line"/>
      <point x="137" y="705"/>
      <point x="47" y="710"/>
      <point x="47" y="710" type="curve"/>
      <point x="42" y="635" type="line"/>
      <point x="107" y="623" type="line"/>
      <point x="109" y="607"/>
      <point x="116" y="562"/>
      <point x="116" y="542" type="curve" smooth="yes"/>
      <point x="116" y="163" type="line" smooth="yes"/>
      <point x="116" y="143"/>
      <point x="108" y="87"/>
      <point x="107" y="77" type="curve"/>
      <point x="41" y="65" type="line"/>
      <point x="46" y="-5" type="line"/>
      <point x="46" y="-5"/>
      <point x="166" y="0"/>
      <point x="196" y="0" type="curve"/>
      <point x="350" y="0" type="line"/>
      <point x="355" y="71" type="line"/>
      <point x="280" y="77" type="line"/>
      <point x="278" y="91"/>
      <point x="271" y="153"/>
      <point x="271" y="193" type="curve" smooth="yes"/>
      <point x="271" y="512" type="line" smooth="yes"/>
      <point x="271" y="552"/>
      <point x="275" y="618"/>
      <point x="278" y="643" type="curve"/>
    </contour>
  </outline>
</glyph>
<glyph name="Q" format="1">
  <advance width="812"/>
  <unicode hex="0051"/>
  <outline>
    <contour>
      <point x="706" y="-224" type="line"/>
      <point x="796" y="-100" type="line"/>
      <point x="796" y="-100"/>
      <point x="653" y="-42"/>
      <point x="638" y="-32" type="curve" smooth="yes"/>
      <point x="542" y="33" type="line"/>
      <point x="401" y="1" type="line"/>
    </contour>
    <contour>
      <point x="763" y="574"/>
      <point x="623" y="720"/>
      <point x="406" y="720" type="curve"/>
      <point x="189" y="720"/>
      <point x="49" y="574"/>
      <point x="49" y="352" type="curve"/>
      <point x="49" y="131"/>
      <point x="189" y="-15"/>
      <point x="406" y="-15" type="curve" smooth="yes"/>
      <point x="623" y="-15"/>
      <point x="763" y="131"/>
      <point x="763" y="352" type="curve"/>
    </contour>
    <contour>
      <point x="229" y="535"/>
      <point x="286" y="623"/>
      <point x="406" y="623" type="curve"/>
      <point x="526" y="623"/>
      <point x="583" y="535"/>
      <point x="583" y="352" type="curve"/>
      <point x="583" y="170"/>
      <point x="526" y="82"/>
      <point x="406" y="82" type="curve" smooth="yes"/>
      <point x="286" y="82"/>
      <point x="229" y="170"/>
      <point x="229" y="352" type="curve"/>
    </contour>
  </outline>
</glyph>
<glyph name="R" format="1">
  <advance width="677"/>
  <unicode hex="0052"/>
  <outline>
    <contour>
      <point x="301" y="710"/>
      <point x="222" y="705"/>
      <point x="167" y="705" type="curve"/>
      <point x="116" y="614" type="line"/>
      <point x="165" y="618"/>
      <point x="289" y="628"/>
      <point x="308" y="628" type="curve" smooth="yes"/>
      <point x="398" y="628"/>
      <point x="429" y="580"/>
      <point x="429" y="497" type="curve" smooth="yes"/>
      <point x="429" y="407"/>
      <point x="385" y="361"/>
      <point x="295" y="361" type="curve" smooth="yes"/>
      <point x="259" y="361"/>
      <point x="157" y="361"/>
      <point x="157" y="361" type="curve"/>
      <point x="157" y="290" type="line"/>
      <point x="157" y="290"/>
      <point x="274" y="277"/>
      <point x="315" y="277" type="curve" smooth="yes"/>
      <point x="459" y="277"/>
      <point x="590" y="366"/>
      <point x="590" y="504" type="curve" smooth="yes"/>
      <point x="590" y="631"/>
      <point x="495" y="710"/>
      <point x="356" y="710" type="curve" smooth="yes"/>
    </contour>
    <contour>
      <point x="295" y="345" type="line"/>
      <point x="413" y="116" type="line"/>
      <point x="426" y="92"/>
      <point x="462" y="0"/>
      <point x="462" y="0" type="curve"/>
      <point x="575" y="0"/>
      <point x="653" y="0"/>
      <point x="653" y="0" type="curve"/>
      <point x="658" y="71" type="line"/>
      <point x="610" y="75" type="line"/>
      <point x="597" y="96"/>
      <point x="582" y="119"/>
      <point x="575" y="131" type="curve"/>
      <point x="570" y="140"/>
      <point x="501" y="243"/>
      <point x="452" y="349" type="curve"/>
    </contour>
    <contour>
      <point x="167" y="705" type="line"/>
      <point x="137" y="705"/>
      <point x="47" y="710"/>
      <point x="47" y="710" type="curve"/>
      <point x="42" y="635" type="line"/>
      <point x="107" y="623" type="line"/>
      <point x="109" y="607"/>
      <point x="116" y="562"/>
      <point x="116" y="542" type="curve" smooth="yes"/>
      <point x="116" y="163" type="line" smooth="yes"/>
      <point x="116" y="143"/>
      <point x="108" y="87"/>
      <point x="107" y="77" type="curve"/>
      <point x="41" y="65" type="line"/>
      <point x="46" y="-5" type="line"/>
      <point x="46" y="-5"/>
      <point x="166" y="0"/>
      <point x="196" y="0" type="curve"/>
      <point x="340" y="0" type="line"/>
      <point x="345" y="71" type="line"/>
      <point x="280" y="77" type="line"/>
      <point x="278" y="91"/>
      <point x="271" y="153"/>
      <point x="271" y="193" type="curve" smooth="yes"/>
      <point x="271" y="512" type="line" smooth="yes"/>
      <point x="271" y="552"/>
      <point x="275" y="618"/>
      <point x="278" y="643" type="curve"/>
    </contour>
    <contour>
      <point x="327" y="705" type="move" name="top"/>
    </contour>
    <contour>
      <point x="327" y="0" type="move" name="bottom"/>
    </contour>
  </outline>
</glyph>
<glyph name="S" format="1">
  <advance width="601"/>
  <unicode hex="0053"/>
  <outline>
    <contour>
      <point x="417" y="591"/>
      <point x="427" y="562"/>
      <point x="427" y="556" type="curve" smooth="yes"/>
      <point x="430" y="495" type="line"/>
      <point x="507" y="491" type="line"/>
      <point x="521" y="684" type="line"/>
      <point x="451" y="705"/>
      <point x="371" y="720"/>
      <point x="301" y="720" type="curve" smooth="yes"/>
      <point x="165" y="720"/>
      <point x="66" y="644"/>
      <point x="66" y="521" type="curve" smooth="yes"/>
      <point x="66" y="283"/>
      <point x="384" y="313"/>
      <point x="384" y="166" type="curve" smooth="yes"/>
      <point x="384" y="109"/>
      <point x="337" y="82"/>
      <point x="280" y="82" type="curve" smooth="yes"/>
      <point x="229" y="82"/>
      <point x="193" y="99"/>
      <point x="172" y="110" type="curve"/>
      <point x="165" y="127"/>
      <point x="158" y="145"/>
      <point x="158" y="151" type="curve" smooth="yes"/>
      <point x="158" y="163"/>
      <point x="157" y="221"/>
      <point x="157" y="221" type="curve"/>
      <point x="74" y="226" type="line"/>
      <point x="59" y="33" type="line"/>
      <point x="59" y="33"/>
      <point x="157" y="-15"/>
      <point x="292" y="-15" type="curve" smooth="yes"/>
      <point x="436" y="-15"/>
      <point x="549" y="67"/>
      <point x="549" y="204" type="curve" smooth="yes"/>
      <point x="549" y="434"/>
      <point x="231" y="412"/>
      <point x="231" y="546" type="curve" smooth="yes"/>
      <point x="231" y="597"/>
      <point x="271" y="627"/>
      <point x="331" y="627" type="curve" smooth="yes"/>
      <point x="367" y="627"/>
      <point x="390" y="616"/>
      <point x="412" y="604" type="curve"/>
    </contour>
    <contour>
      <point x="305" y="705" type="move" name="top"/>
    </contour>
    <contour>
      <point x="293" y="0" type="move" name="bottom"/>
    </contour>
  </outline>
</glyph>
<glyph name="T" format="1">
  <advance width="663"/>
  <unicode hex="0054"/>
  <outline>
    <contour>
      <point x="34" y="692" type="line"/>
      <point x="27" y="512" type="line"/>
      <point x="97" y="507" type="line"/>
      <point x="99" y="524"/>
      <point x="104" y="568"/>
      <point x="108" y="583" type="curve"/>
      <point x="118" y="619" type="line"/>
      <point x="138" y="621"/>
      <point x="168" y="623"/>
      <point x="198" y="623" type="curve"/>
      <point x="469" y="623" type="line"/>
      <point x="499" y="623"/>
      <point x="524" y="621"/>
      <point x="544" y="619" type="curve"/>
      <point x="557" y="583" type="line"/>
      <point x="559" y="568"/>
      <point x="564" y="524"/>
      <point x="566" y="507" type="curve"/>
      <point x="636" y="512" type="line"/>
      <point x="628" y="692" type="line"/>
      <point x="609" y="710" type="line"/>
      <point x="579" y="708"/>
      <point x="514" y="705"/>
      <point x="494" y="705" type="curve"/>
      <point x="168" y="705" type="line" smooth="yes"/>
      <point x="148" y="705"/>
      <point x="54" y="710"/>
      <point x="54" y="710" type="curve"/>
    </contour>
    <contour>
      <point x="247" y="643" type="line"/>
      <point x="249" y="620"/>
      <point x="254" y="562"/>
      <point x="254" y="542" type="curve" smooth="yes"/>
      <point x="254" y="163" type="line" smooth="yes"/>
      <point x="254" y="143"/>
      <point x="246" y="87"/>
      <point x="245" y="77" type="curve"/>
      <point x="159" y="65" type="line"/>
      <point x="164" y="-5" type="line"/>
      <point x="164" y="-5"/>
      <point x="304" y="0"/>
      <point x="334" y="0" type="curve"/>
      <point x="498" y="0" type="line"/>
      <point x="503" y="71" type="line"/>
      <point x="418" y="77" type="line"/>
      <point x="416" y="91"/>
      <point x="409" y="153"/>
      <point x="409" y="193" type="curve" smooth="yes"/>
      <point x="409" y="512" type="line" smooth="yes"/>
      <point x="409" y="552"/>
      <point x="413" y="621"/>
      <point x="416" y="643" type="curve"/>
    </contour>
    <contour>
      <point x="330" y="353" type="move" name="center"/>
    </contour>
    <contour>
      <point x="331" y="0" type="move" name="bottom"/>
    </contour>
    <contour>
      <point x="331" y="705" type="move" name="top"/>
    </contour>
  </outline>
</glyph>
<glyph name="U" format="1">
  <advance width="779"/>
  <unicode hex="0055"/>
  <outline>
    <contour>
      <point x="123" y="705"/>
      <point x="50" y="709"/>
      <point x="31" y="710" type="curve"/>
      <point x="26" y="635" type="line"/>
      <point x="91" y="623" type="line"/>
      <point x="94" y="609"/>
      <point x="99" y="562"/>
      <point x="99" y="542" type="curve" smooth="yes"/>
      <point x="99" y="268" type="line" smooth="yes"/>
      <point x="99" y="97"/>
      <point x="197" y="-15"/>
      <point x="388" y="-15" type="curve" smooth="yes"/>
      <point x="578" y="-15"/>
      <point x="678" y="97"/>
      <point x="678" y="268" type="curve" smooth="yes"/>
      <point x="678" y="512" type="line" smooth="yes"/>
      <point x="678" y="552"/>
      <point x="684" y="609"/>
      <point x="687" y="623" type="curve"/>
      <point x="753" y="629" type="line"/>
      <point x="748" y="710" type="line"/>
      <point x="748" y="710"/>
      <point x="667" y="705"/>
      <point x="587" y="705" type="curve" smooth="yes"/>
      <point x="557" y="705"/>
      <point x="477" y="710"/>
      <point x="477" y="710" type="curve"/>
      <point x="472" y="635" type="line"/>
      <point x="537" y="623" type="line"/>
      <point x="539" y="608"/>
      <point x="546" y="562"/>
      <point x="546" y="542" type="curve" smooth="yes"/>
      <point x="546" y="260" type="line" smooth="yes"/>
      <point x="546" y="160"/>
      <point x="510" y="99"/>
      <point x="405" y="99" type="curve" smooth="yes"/>
      <point x="310" y="99"/>
      <point x="259" y="170"/>
      <point x="259" y="260" type="curve" smooth="yes"/>
      <point x="259" y="512" type="line" smooth="yes"/>
      <point x="259" y="552"/>
      <point x="264" y="612"/>
      <point x="267" y="623" type="curve"/>
      <point x="333" y="629" type="line"/>
      <point x="328" y="710" type="line"/>
      <point x="328" y="710"/>
      <point x="233" y="705"/>
      <point x="153" y="705" type="curve"/>
    </contour>
    <contour>
      <point x="526" y="10" type="move" name="ogonek"/>
    </contour>
    <contour>
      <point x="399" y="705" type="move" name="top"/>
    </contour>
    <contour>
      <point x="657" y="467" type="move" name="horn"/>
    </contour>
    <contour>
      <point x="387" y="0" type="move" name="bottom"/>
    </contour>
  </outline>
</glyph>
<glyph name="V" format="1">
  <advance width="731"/>
  <unicode hex="0056"/>
  <outline>
    <contour>
      <point x="308" y="0" type="line"/>
      <point x="423" y="0" type="line"/>
      <point x="611" y="512" type="line" smooth="yes"/>
      <point x="622" y="542"/>
      <point x="666" y="624"/>
      <point x="666" y="624" type="curve"/>
      <point x="718" y="629" type="line"/>
      <point x="713" y="710" type="line"/>
      <point x="713" y="710"/>
      <point x="636" y="705"/>
      <point x="566" y="705" type="curve" smooth="yes"/>
      <point x="536" y="705"/>
      <point x="456" y="710"/>
      <point x="456" y="710" type="curve"/>
      <point x="451" y="635" type="line"/>
      <point x="515" y="623" type="line"/>
      <point x="509" y="596"/>
      <point x="498" y="557"/>
      <point x="493" y="542" type="curve" smooth="yes"/>
      <point x="381" y="207" type="line"/>
      <point x="285" y="512" type="line" smooth="yes"/>
      <point x="279" y="532"/>
      <point x="258" y="606"/>
      <point x="256" y="623" type="curve"/>
      <point x="322" y="629" type="line"/>
      <point x="317" y="710" type="line"/>
      <point x="317" y="710"/>
      <point x="217" y="705"/>
      <point x="137" y="705" type="curve" smooth="yes"/>
      <point x="117" y="705"/>
      <point x="17" y="710"/>
      <point x="17" y="710" type="curve"/>
      <point x="12" y="635" type="line"/>
      <point x="76" y="623" type="line"/>
      <point x="89" y="599"/>
      <point x="103" y="568"/>
      <point x="110" y="548" type="curve" smooth="yes"/>
    </contour>
  </outline>
</glyph>
<glyph name="W" format="1">
  <advance width="1047"/>
  <unicode hex="0057"/>
  <outline>
    <contour>
      <point x="1034" y="629" type="line"/>
      <point x="1029" y="710" type="line"/>
      <point x="1029" y="710"/>
      <point x="952" y="705"/>
      <point x="882" y="705" type="curve" smooth="yes"/>
      <point x="852" y="705"/>
      <point x="772" y="710"/>
      <point x="772" y="710" type="curve"/>
      <point x="767" y="635" type="line"/>
      <point x="834" y="623" type="line"/>
      <point x="832" y="600"/>
      <point x="820" y="553"/>
      <point x="817" y="543" type="curve" smooth="yes"/>
      <point x="728" y="207" type="line"/>
      <point x="597" y="675" type="line"/>
      <point x="484" y="675" type="line"/>
      <point x="351" y="207" type="line"/>
      <point x="276" y="512" type="line" smooth="yes"/>
      <point x="270" y="538"/>
      <point x="256" y="606"/>
      <point x="256" y="623" type="curve"/>
      <point x="322" y="629" type="line"/>
      <point x="317" y="710" type="line"/>
      <point x="317" y="710"/>
      <point x="219" y="705"/>
      <point x="139" y="705" type="curve" smooth="yes"/>
      <point x="109" y="705"/>
      <point x="17" y="710"/>
      <point x="17" y="710" type="curve"/>
      <point x="12" y="635" type="line"/>
      <point x="72" y="624" type="line"/>
      <point x="86" y="601"/>
      <point x="100" y="561"/>
      <point x="106" y="543" type="curve" smooth="yes"/>
      <point x="278" y="0" type="line"/>
      <point x="393" y="0" type="line"/>
      <point x="527" y="423" type="line"/>
      <point x="655" y="0" type="line"/>
      <point x="770" y="0" type="line"/>
      <point x="934" y="512" type="line" smooth="yes"/>
      <point x="944" y="544"/>
      <point x="974" y="608"/>
      <point x="984" y="624" type="curve"/>
    </contour>
    <contour>
      <point x="525" y="705" type="move" name="top"/>
    </contour>
  </outline>
</glyph>
<glyph name="X" format="1">
  <advance width="742"/>
  <unicode hex="0058"/>
  <outline>
    <contour>
      <point x="284" y="343" type="line"/>
      <point x="160" y="164" type="line" smooth="yes"/>
      <point x="146" y="144"/>
      <point x="105" y="102"/>
      <point x="78" y="74" type="curve"/>
      <point x="25" y="65" type="line"/>
      <point x="30" y="-5" type="line"/>
      <point x="30" y="-5"/>
      <point x="140" y="0"/>
      <point x="170" y="0" type="curve"/>
      <point x="275" y="0" type="line"/>
      <point x="280" y="71" type="line"/>
      <point x="234" y="76" type="line"/>
      <point x="244" y="97"/>
      <point x="256" y="119"/>
      <point x="265" y="132" type="curve" smooth="yes"/>
      <point x="347" y="253" type="line"/>
      <point x="425" y="142" type="line" smooth="yes"/>
      <point x="437" y="127"/>
      <point x="452" y="97"/>
      <point x="464" y="72" type="curve"/>
      <point x="426" y="65" type="line"/>
      <point x="431" y="-5" type="line"/>
      <point x="431" y="-5"/>
      <point x="572" y="0"/>
      <point x="612" y="0" type="curve"/>
      <point x="714" y="0" type="line"/>
      <point x="719" y="71" type="line"/>
      <point x="668" y="79" type="line"/>
      <point x="649" y="99"/>
      <point x="630" y="118"/>
      <point x="620" y="132" type="curve" smooth="yes"/>
      <point x="446" y="378" type="line"/>
      <point x="571" y="569" type="line" smooth="yes"/>
      <point x="582" y="583"/>
      <point x="607" y="603"/>
      <point x="631" y="623" type="curve"/>
      <point x="696" y="629" type="line"/>
      <point x="691" y="710" type="line"/>
      <point x="691" y="710"/>
      <point x="614" y="705"/>
      <point x="544" y="705" type="curve" smooth="yes"/>
      <point x="524" y="705"/>
      <point x="443" y="710"/>
      <point x="443" y="710" type="curve"/>
      <point x="438" y="635" type="line"/>
      <point x="476" y="627" type="line"/>
      <point x="467" y="608"/>
      <point x="459" y="592"/>
      <point x="450" y="578" type="curve" smooth="yes"/>
      <point x="382" y="469" type="line"/>
      <point x="325" y="555" type="line" smooth="yes"/>
      <point x="313" y="572"/>
      <point x="296" y="601"/>
      <point x="285" y="625" type="curve"/>
      <point x="328" y="629" type="line"/>
      <point x="323" y="710" type="line"/>
      <point x="323" y="710"/>
      <point x="234" y="705"/>
      <point x="154" y="705" type="curve" smooth="yes"/>
      <point x="134" y="705"/>
      <point x="34" y="710"/>
      <point x="34" y="710" type="curve"/>
      <point x="29" y="635" type="line"/>
      <point x="83" y="625" type="line"/>
      <point x="100" y="602"/>
      <point x="121" y="576"/>
      <point x="134" y="558" type="curve" smooth="yes"/>
    </contour>
  </outline>
</glyph>
<glyph name="Y" format="1">
  <advance width="724"/>
  <unicode hex="0059"/>
  <outline>
    <contour>
      <point x="712" y="629" type="line"/>
      <point x="707" y="710" type="line"/>
      <point x="707" y="710"/>
      <point x="638" y="705"/>
      <point x="568" y="705" type="curve" smooth="yes"/>
      <point x="538" y="705"/>
      <point x="458" y="710"/>
      <point x="458" y="710" type="curve"/>
      <point x="453" y="635" type="line"/>
      <point x="502" y="627" type="line"/>
      <point x="502" y="627"/>
      <point x="497" y="598"/>
      <point x="493" y="590" type="curve" smooth="yes"/>
      <point x="383" y="369" type="line"/>
      <point x="278" y="576" type="line" smooth="yes"/>
      <point x="268" y="595"/>
      <point x="262" y="624"/>
      <point x="262" y="624" type="curve"/>
      <point x="314" y="629" type="line"/>
      <point x="309" y="710" type="line"/>
      <point x="309" y="710"/>
      <point x="217" y="705"/>
      <point x="137" y="705" type="curve" smooth="yes"/>
      <point x="117" y="705"/>
      <point x="17" y="710"/>
      <point x="17" y="710" type="curve"/>
      <point x="12" y="635" type="line"/>
      <point x="77" y="623" type="line"/>
      <point x="77" y="623"/>
      <point x="98" y="601"/>
      <point x="112" y="577" type="curve" smooth="yes"/>
      <point x="310" y="212" type="line"/>
      <point x="425" y="212" type="line"/>
      <point x="598" y="544" type="line" smooth="yes"/>
      <point x="615" y="576"/>
      <point x="660" y="623"/>
      <point x="660" y="623" type="curve"/>
    </contour>
    <contour>
      <point x="290" y="163" type="line" smooth="yes"/>
      <point x="290" y="143"/>
      <point x="284" y="87"/>
      <point x="283" y="77" type="curve"/>
      <point x="215" y="65" type="line"/>
      <point x="220" y="-5" type="line"/>
      <point x="220" y="-5"/>
      <point x="340" y="0"/>
      <point x="370" y="0" type="curve"/>
      <point x="514" y="0" type="line"/>
      <point x="519" y="71" type="line"/>
      <point x="452" y="77" type="line"/>
      <point x="450" y="91"/>
      <point x="445" y="153"/>
      <point x="445" y="193" type="curve" smooth="yes"/>
      <point x="445" y="304" type="line"/>
      <point x="290" y="304" type="line"/>
    </contour>
    <contour>
      <point x="366" y="705" type="move" name="top"/>
    </contour>
    <contour>
      <point x="360" y="0" type="move" name="bottom"/>
    </contour>
  </outline>
</glyph>
<glyph name="Z" format="1">
  <advance width="637"/>
  <unicode hex="005A"/>
  <outline>
    <contour>
      <point x="384" y="616" type="line"/>
      <point x="369" y="583"/>
      <point x="354" y="548"/>
      <point x="334" y="516" type="curve" smooth="yes"/>
      <point x="159" y="237" type="line" smooth="yes"/>
      <point x="135" y="196"/>
      <point x="48" y="80"/>
      <point x="48" y="80" type="curve"/>
      <point x="58" y="0" type="line"/>
      <point x="444" y="0" type="line" smooth="yes"/>
      <point x="464" y="0"/>
      <point x="559" y="-4"/>
      <point x="559" y="-4" type="curve"/>
      <point x="579" y="14" type="line"/>
      <point x="594" y="198" type="line"/>
      <point x="526" y="203" type="line"/>
      <point x="524" y="187"/>
      <point x="517" y="159"/>
      <point x="513" y="144" type="curve"/>
      <point x="512" y="138"/>
      <point x="503" y="118"/>
      <point x="493" y="97" type="curve"/>
      <point x="472" y="93"/>
      <point x="438" y="89"/>
      <point x="409" y="89" type="curve" smooth="yes"/>
      <point x="252" y="89" type="line"/>
      <point x="272" y="130"/>
      <point x="292" y="173"/>
      <point x="316" y="212" type="curve" smooth="yes"/>
      <point x="472" y="464" type="line" smooth="yes"/>
      <point x="493" y="497"/>
      <point x="542" y="571"/>
      <point x="579" y="625" type="curve"/>
      <point x="569" y="705" type="line"/>
      <point x="190" y="705" type="line" smooth="yes"/>
      <point x="170" y="705"/>
      <point x="75" y="715"/>
      <point x="75" y="715" type="curve"/>
      <point x="55" y="697" type="line"/>
      <point x="48" y="512" type="line"/>
      <point x="120" y="507" type="line"/>
      <point x="122" y="524"/>
      <point x="131" y="568"/>
      <point x="135" y="583" type="curve"/>
      <point x="148" y="611" type="line"/>
      <point x="168" y="613"/>
      <point x="200" y="616"/>
      <point x="231" y="616" type="curve" smooth="yes"/>
    </contour>
    <contour>
      <point x="322" y="705" type="move" name="top"/>
    </contour>
  </outline>
</glyph>
<glyph name="grave" format="1">
  <advance width="360"/>
  <unicode hex="0060"/>
  <outline>
    <contour>
      <point x="260" y="565" type="line"/>
      <point x="303" y="618" type="line"/>
      <point x="96" y="750" type="line"/>
      <point x="53" y="679" type="line"/>
    </contour>
    <contour>
      <point x="200" y="494" type="move" name="_top"/>
    </contour>
  </outline>
</glyph>
<glyph name="a" format="1">
  <advance width="558"/>
  <unicode hex="0061"/>
  <outline>
    <contour>
      <point x="346" y="0" type="line"/>
      <point x="481" y="0"/>
      <point x="530" y="0"/>
      <point x="530" y="0" type="curve"/>
      <point x="536" y="71" type="line"/>
      <point x="476" y="77" type="line"/>
      <point x="476" y="77"/>
      <point x="467" y="143"/>
      <point x="467" y="193" type="curve" smooth="yes"/>
      <point x="467" y="323" type="line" smooth="yes"/>
      <point x="467" y="437"/>
      <point x="390" y="503"/>
      <point x="258" y="503" type="curve" smooth="yes"/>
      <point x="214" y="503"/>
      <point x="135" y="491"/>
      <point x="75" y="476" type="curve"/>
      <point x="90" y="307" type="line"/>
      <point x="165" y="310" type="line"/>
      <point x="164" y="353" type="line"/>
      <point x="171" y="393" type="line"/>
      <point x="194" y="404"/>
      <point x="228" y="412"/>
      <point x="252" y="412" type="curve" smooth="yes"/>
      <point x="306" y="412"/>
      <point x="327" y="387"/>
      <point x="327" y="322" type="curve" smooth="yes"/>
      <point x="327" y="293" type="line"/>
      <point x="185" y="270" type="line" smooth="yes"/>
      <point x="97" y="256"/>
      <point x="53" y="210"/>
      <point x="53" y="132" type="curve" smooth="yes"/>
      <point x="53" y="44"/>
      <point x="109" y="-10"/>
      <point x="200" y="-10" type="curve" smooth="yes"/>
      <point x="263" y="-10"/>
      <point x="307" y="16"/>
      <point x="338" y="72" type="curve"/>
    </contour>
    <contour>
      <point x="327" y="228" type="line"/>
      <point x="327" y="157" type="line"/>
      <point x="317" y="117"/>
      <point x="290" y="93"/>
      <point x="255" y="93" type="curve" smooth="yes"/>
      <point x="218" y="93"/>
      <point x="201" y="113"/>
      <point x="201" y="154" type="curve" smooth="yes"/>
      <point x="201" y="191"/>
      <point x="216" y="209"/>
      <point x="253" y="216" type="curve" smooth="yes"/>
    </contour>
    <contour>
      <point x="530" y="0" type="move" name="ogonek"/>
    </contour>
    <contour>
      <point x="275" y="0" type="move" name="bottom"/>
    </contour>
    <contour>
      <point x="257" y="494" type="move" name="top"/>
    </contour>
  </outline>
</glyph>
<glyph name="b" format="1">
  <advance width="606"/>
  <unicode hex="0062"/>
  <outline>
    <contour>
      <point x="-1" y="691" type="line"/>
      <point x="74" y="674" type="line"/>
      <point x="74" y="674"/>
      <point x="84" y="607"/>
      <point x="84" y="587" type="curve" smooth="yes"/>
      <point x="84" y="163" type="line" smooth="yes"/>
      <point x="84" y="143"/>
      <point x="74" y="26"/>
      <point x="74" y="26" type="curve"/>
      <point x="169" y="-2"/>
      <point x="241" y="-10"/>
      <point x="305" y="-10" type="curve" smooth="yes"/>
      <point x="469" y="-10"/>
      <point x="556" y="90"/>
      <point x="556" y="254" type="curve" smooth="yes"/>
      <point x="556" y="392"/>
      <point x="504" y="503"/>
      <point x="366" y="503" type="curve" smooth="yes"/>
      <point x="300" y="503"/>
      <point x="258" y="476"/>
      <point x="224" y="433" type="curve"/>
      <point x="224" y="557" type="line" smooth="yes"/>
      <point x="224" y="607"/>
      <point x="234" y="737"/>
      <point x="234" y="737" type="curve"/>
      <point x="213" y="756" type="line"/>
      <point x="125" y="756" type="line" smooth="yes"/>
      <point x="83" y="756"/>
      <point x="8" y="766"/>
      <point x="8" y="766" type="curve"/>
    </contour>
    <contour>
      <point x="386" y="390"/>
      <point x="397" y="315"/>
      <point x="397" y="241" type="curve" smooth="yes"/>
      <point x="397" y="153"/>
      <point x="381" y="85"/>
      <point x="293" y="85" type="curve" smooth="yes"/>
      <point x="272" y="85"/>
      <point x="249" y="91"/>
      <point x="227" y="98" type="curve"/>
      <point x="226" y="124"/>
      <point x="224" y="163"/>
      <point x="224" y="193" type="curve" smooth="yes"/>
      <point x="224" y="260" type="line" smooth="yes"/>
      <point x="228" y="331"/>
      <point x="250" y="390"/>
      <point x="312" y="390" type="curve" smooth="yes"/>
    </contour>
  </outline>
</glyph>
<glyph name="c" format="1">
  <advance width="516"/>
  <unicode hex="0063"/>
  <outline>
    <contour>
      <point x="140" y="503"/>
      <point x="47" y="405"/>
      <point x="47" y="245" type="curve" smooth="yes"/>
      <point x="47" y="76"/>
      <point x="134" y="-15"/>
      <point x="297" y="-15" type="curve" smooth="yes"/>
      <point x="361" y="-15"/>
      <point x="427" y="11"/>
      <point x="478" y="56" type="curve"/>
      <point x="443" y="114" type="line"/>
      <point x="443" y="114"/>
      <point x="395" y="82"/>
      <point x="326" y="82" type="curve" smooth="yes"/>
      <point x="246" y="82"/>
      <point x="206" y="136"/>
      <point x="206" y="245" type="curve" smooth="yes"/>
      <point x="206" y="368"/>
      <point x="236" y="424"/>
      <point x="301" y="424" type="curve" smooth="yes"/>
      <point x="322" y="424"/>
      <point x="348" y="414"/>
      <point x="366" y="398" type="curve"/>
      <point x="368" y="385"/>
      <point x="369" y="372"/>
      <point x="370" y="359" type="curve" smooth="yes"/>
      <point x="369" y="305" type="line"/>
      <point x="454" y="302" type="line"/>
      <point x="469" y="479" type="line"/>
      <point x="469" y="479"/>
      <point x="380" y="503"/>
      <point x="292" y="503" type="curve" smooth="yes"/>
    </contour>
    <contour>
      <point x="290" y="494" type="move" name="top"/>
    </contour>
    <contour>
      <point x="295" y="0" type="move" name="bottom"/>
    </contour>
  </outline>
</glyph>
<glyph name="d" format="1">
  <advance width="619"/>
  <unicode hex="0064"/>
  <outline>
    <contour>
      <point x="591" y="71" type="line"/>
      <point x="531" y="77" type="line"/>
      <point x="531" y="77"/>
      <point x="522" y="143"/>
      <point x="522" y="193" type="curve" smooth="yes"/>
      <point x="522" y="557" type="line" smooth="yes"/>
      <point x="522" y="607"/>
      <point x="532" y="737"/>
      <point x="532" y="737" type="curve"/>
      <point x="511" y="756" type="line"/>
      <point x="423" y="756" type="line" smooth="yes"/>
      <point x="381" y="756"/>
      <point x="306" y="766"/>
      <point x="306" y="766" type="curve"/>
      <point x="297" y="691" type="line"/>
      <point x="372" y="674" type="line"/>
      <point x="372" y="674"/>
      <point x="382" y="607"/>
      <point x="382" y="587" type="curve" smooth="yes"/>
      <point x="382" y="498" type="line"/>
      <point x="353" y="501"/>
      <point x="325" y="503"/>
      <point x="301" y="503" type="curve" smooth="yes"/>
      <point x="141" y="503"/>
      <point x="50" y="407"/>
      <point x="50" y="239" type="curve" smooth="yes"/>
      <point x="50" y="80"/>
      <point x="118" y="-10"/>
      <point x="240" y="-10" type="curve" smooth="yes"/>
      <point x="305" y="-10"/>
      <point x="351" y="15"/>
      <point x="393" y="75" type="curve"/>
      <point x="401" y="0" type="line"/>
      <point x="536" y="0"/>
      <point x="585" y="0"/>
      <point x="585" y="0" type="curve"/>
    </contour>
    <contour>
      <point x="382" y="233" type="line"/>
      <point x="377" y="147"/>
      <point x="347" y="103"/>
      <point x="294" y="103" type="curve" smooth="yes"/>
      <point x="236" y="103"/>
      <point x="209" y="150"/>
      <point x="209" y="252" type="curve" smooth="yes"/>
      <point x="209" y="362"/>
      <point x="240" y="408"/>
      <point x="313" y="408" type="curve" smooth="yes"/>
      <point x="331" y="408"/>
      <point x="354" y="404"/>
      <point x="382" y="395" type="curve"/>
    </contour>
    <contour>
      <point x="320" y="247" type="move" name="center"/>
    </contour>
  </outline>
</glyph>
<glyph name="e" format="1">
  <advance width="541"/>
  <unicode hex="0065"/>
  <outline>
    <contour>
      <point x="144" y="503"/>
      <point x="47" y="410"/>
      <point x="47" y="242" type="curve" smooth="yes"/>
      <point x="47" y="79"/>
      <point x="139" y="-15"/>
      <point x="292" y="-15" type="curve" smooth="yes"/>
      <point x="370" y="-15"/>
      <point x="436" y="9"/>
      <point x="488" y="56" type="curve"/>
      <point x="453" y="114" type="line"/>
      <point x="453" y="114"/>
      <point x="405" y="81"/>
      <point x="332" y="81" type="curve" smooth="yes"/>
      <point x="245" y="81"/>
      <point x="206" y="126"/>
      <point x="206" y="256" type="curve" smooth="yes"/>
      <point x="206" y="351"/>
      <point x="217" y="424"/>
      <point x="277" y="424" type="curve" smooth="yes"/>
      <point x="320" y="424"/>
      <point x="340" y="386"/>
      <point x="340" y="310" type="curve" smooth="yes"/>
      <point x="340" y="308"/>
      <point x="339" y="302"/>
      <point x="339" y="302" type="curve"/>
      <point x="196" y="294" type="line"/>
      <point x="195" y="221" type="line"/>
      <point x="476" y="221" type="line"/>
      <point x="497" y="260" type="line"/>
      <point x="506" y="412"/>
      <point x="430" y="503"/>
      <point x="288" y="503" type="curve" smooth="yes"/>
    </contour>
    <contour>
      <point x="416" y="10" type="move" name="ogonek"/>
    </contour>
    <contour>
      <point x="289" y="0" type="move" name="bottom"/>
    </contour>
    <contour>
      <point x="283" y="494" type="move" name="top"/>
    </contour>
  </outline>
</glyph>
<glyph name="f" format="1">
  <advance width="378"/>
  <unicode hex="0066"/>
  <outline>
    <contour>
      <point x="177" y="770"/>
      <point x="106" y="690"/>
      <point x="106" y="580" type="curve" smooth="yes"/>
      <point x="106" y="501" type="line"/>
      <point x="46" y="482" type="line"/>
      <point x="49" y="419" type="line"/>
      <point x="106" y="419" type="line"/>
      <point x="106" y="163" type="line" smooth="yes"/>
      <point x="106" y="143"/>
      <point x="97" y="77"/>
      <point x="97" y="77" type="curve"/>
      <point x="41" y="65" type="line"/>
      <point x="46" y="-5" type="line"/>
      <point x="46" y="-5"/>
      <point x="136" y="0"/>
      <point x="166" y="0" type="curve" smooth="yes"/>
      <point x="279" y="0"/>
      <point x="335" y="0"/>
      <point x="335" y="0" type="curve"/>
      <point x="340" y="71" type="line"/>
      <point x="255" y="77" type="line"/>
      <point x="255" y="77"/>
      <point x="246" y="143"/>
      <point x="246" y="193" type="curve" smooth="yes"/>
      <point x="246" y="419" type="line"/>
      <point x="348" y="419" type="line"/>
      <point x="357" y="494" type="line"/>
      <point x="246" y="494" type="line"/>
      <point x="246" y="570" type="line" smooth="yes"/>
      <point x="246" y="650"/>
      <point x="254" y="689"/>
      <point x="304" y="689" type="curve" smooth="yes"/>
      <point x="319" y="689"/>
      <point x="332" y="685"/>
      <point x="341" y="681" type="curve"/>
      <point x="343" y="666"/>
      <point x="345" y="646"/>
      <point x="345" y="637" type="curve"/>
      <point x="345" y="592" type="line"/>
      <point x="419" y="589" type="line"/>
      <point x="434" y="756" type="line"/>
      <point x="434" y="756"/>
      <point x="356" y="770"/>
      <point x="287" y="770" type="curve" smooth="yes"/>
    </contour>
  </outline>
</glyph>
<glyph name="g" format="1">
  <advance width="546"/>
  <unicode hex="0067"/>
  <outline>
    <contour>
      <point x="506" y="418" type="line"/>
      <point x="502" y="504" type="line"/>
      <point x="371" y="482" type="line"/>
      <point x="340" y="496"/>
      <point x="303" y="503"/>
      <point x="262" y="503" type="curve" smooth="yes"/>
      <point x="133" y="503"/>
      <point x="47" y="430"/>
      <point x="47" y="320" type="curve" smooth="yes"/>
      <point x="47" y="252"/>
      <point x="81" y="198"/>
      <point x="138" y="168" type="curve"/>
      <point x="97" y="128"/>
      <point x="77" y="102"/>
      <point x="77" y="88" type="curve" smooth="yes"/>
      <point x="77" y="45"/>
      <point x="90" y="17"/>
      <point x="120" y="-4" type="curve"/>
      <point x="66" y="-35"/>
      <point x="28" y="-70"/>
      <point x="28" y="-92" type="curve" smooth="yes"/>
      <point x="28" y="-186"/>
      <point x="102" y="-235"/>
      <point x="248" y="-235" type="curve" smooth="yes"/>
      <point x="398" y="-235"/>
      <point x="516" y="-149"/>
      <point x="516" y="-39" type="curve" smooth="yes"/>
      <point x="516" y="10"/>
      <point x="498" y="41"/>
      <point x="464" y="54" type="curve" smooth="yes"/>
      <point x="439" y="63"/>
      <point x="396" y="69"/>
      <point x="259" y="84" type="curve" smooth="yes"/>
      <point x="199" y="90"/>
      <point x="176" y="100"/>
      <point x="176" y="122" type="curve" smooth="yes"/>
      <point x="176" y="128"/>
      <point x="180" y="137"/>
      <point x="190" y="149" type="curve"/>
      <point x="210" y="144"/>
      <point x="233" y="141"/>
      <point x="258" y="141" type="curve" smooth="yes"/>
      <point x="387" y="141"/>
      <point x="473" y="214"/>
      <point x="473" y="324" type="curve" smooth="yes"/>
      <point x="473" y="365"/>
      <point x="465" y="391"/>
      <point x="447" y="418" type="curve"/>
    </contour>
    <contour>
      <point x="194" y="-32"/>
      <point x="211" y="-35"/>
      <point x="231" y="-38" type="curve" smooth="yes"/>
      <point x="361" y="-58" type="line" smooth="yes"/>
      <point x="382" y="-61"/>
      <point x="394" y="-74"/>
      <point x="394" y="-92" type="curve" smooth="yes"/>
      <point x="394" y="-131"/>
      <point x="355" y="-155"/>
      <point x="292" y="-155" type="curve" smooth="yes"/>
      <point x="207" y="-155"/>
      <point x="161" y="-127"/>
      <point x="161" y="-76" type="curve" smooth="yes"/>
      <point x="161" y="-62"/>
      <point x="167" y="-44"/>
      <point x="179" y="-28" type="curve"/>
    </contour>
    <contour>
      <point x="302" y="437"/>
      <point x="321" y="401"/>
      <point x="321" y="326" type="curve" smooth="yes"/>
      <point x="321" y="245"/>
      <point x="301" y="207"/>
      <point x="259" y="207" type="curve" smooth="yes"/>
      <point x="219" y="207"/>
      <point x="199" y="243"/>
      <point x="199" y="318" type="curve" smooth="yes"/>
      <point x="199" y="399"/>
      <point x="220" y="437"/>
      <point x="262" y="437" type="curve" smooth="yes"/>
    </contour>
    <contour>
      <point x="263" y="494" type="move" name="top"/>
    </contour>
  </outline>
</glyph>
<glyph name="h" format="1">
  <advance width="644"/>
  <unicode hex="0068"/>
  <outline>
    <contour>
      <point x="13" y="691" type="line"/>
      <point x="88" y="674" type="line"/>
      <point x="88" y="674"/>
      <point x="98" y="607"/>
      <point x="98" y="587" type="curve" smooth="yes"/>
      <point x="98" y="163" type="line" smooth="yes"/>
      <point x="98" y="143"/>
      <point x="91" y="88"/>
      <point x="89" y="77" type="curve"/>
      <point x="23" y="65" type="line"/>
      <point x="28" y="-5" type="line"/>
      <point x="28" y="-5"/>
      <point x="128" y="0"/>
      <point x="148" y="0" type="curve" smooth="yes"/>
      <point x="261" y="0"/>
      <point x="307" y="-5"/>
      <point x="307" y="-5" type="curve"/>
      <point x="312" y="71" type="line"/>
      <point x="247" y="77" type="line"/>
      <point x="247" y="77"/>
      <point x="238" y="143"/>
      <point x="238" y="193" type="curve" smooth="yes"/>
      <point x="238" y="265" type="line" smooth="yes"/>
      <point x="238" y="355"/>
      <point x="287" y="403"/>
      <point x="337" y="403" type="curve" smooth="yes"/>
      <point x="389" y="403"/>
      <point x="411" y="363"/>
      <point x="411" y="311" type="curve" smooth="yes"/>
      <point x="411" y="163" type="line" smooth="yes"/>
      <point x="411" y="153"/>
      <point x="408" y="113"/>
      <point x="406" y="77" type="curve"/>
      <point x="350" y="65" type="line"/>
      <point x="355" y="-5" type="line"/>
      <point x="355" y="-5"/>
      <point x="455" y="0"/>
      <point x="475" y="0" type="curve"/>
      <point x="523" y="0"/>
      <point x="572" y="0"/>
      <point x="620" y="0" type="curve"/>
      <point x="625" y="71" type="line"/>
      <point x="560" y="77" type="line"/>
      <point x="560" y="77"/>
      <point x="551" y="143"/>
      <point x="551" y="193" type="curve" smooth="yes"/>
      <point x="551" y="325" type="line" smooth="yes"/>
      <point x="551" y="441"/>
      <point x="490" y="503"/>
      <point x="374" y="503" type="curve" smooth="yes"/>
      <point x="315" y="503"/>
      <point x="272" y="477"/>
      <point x="238" y="435" type="curve"/>
      <point x="238" y="557" type="line" smooth="yes"/>
      <point x="238" y="607"/>
      <point x="244" y="694"/>
      <point x="248" y="737" type="curve"/>
      <point x="227" y="756" type="line"/>
      <point x="139" y="756" type="line" smooth="yes"/>
      <point x="97" y="756"/>
      <point x="22" y="766"/>
      <point x="22" y="766" type="curve"/>
    </contour>
    <contour>
      <point x="317" y="247" type="move" name="center"/>
    </contour>
    <contour>
      <point x="141" y="736" type="move" name="top"/>
    </contour>
  </outline>
</glyph>
<glyph name="i" format="1">
  <advance width="353"/>
  <unicode hex="0069"/>
  <outline>
    <component base="dotlessi"/>
    <component base="dotaccent" xOffset="1"/>
    <contour>
      <point x="322" y="0" type="move" name="ogonek"/>
    </contour>
    <contour>
      <point x="182" y="0" type="move" name="bottom"/>
    </contour>
  </outline>
</glyph>
<glyph name="j" format="1">
  <advance width="325"/>
  <unicode hex="006A"/>
  <outline>
    <contour>
      <point x="110" y="735"/>
      <point x="82" y="702"/>
      <point x="82" y="655" type="curve" smooth="yes"/>
      <point x="82" y="608"/>
      <point x="110" y="576"/>
      <point x="161" y="576" type="curve" smooth="yes"/>
      <point x="212" y="576"/>
      <point x="240" y="608"/>
      <point x="240" y="655" type="curve" smooth="yes"/>
      <point x="240" y="705"/>
      <point x="210" y="735"/>
      <point x="161" y="735" type="curve" smooth="yes"/>
    </contour>
    <component base="dotlessj" xOffset="1"/>
  </outline>
</glyph>
<glyph name="k" format="1">
  <advance width="633"/>
  <unicode hex="006B"/>
  <outline>
    <contour>
      <point x="13" y="691" type="line"/>
      <point x="88" y="674" type="line"/>
      <point x="88" y="674"/>
      <point x="98" y="607"/>
      <point x="98" y="587" type="curve" smooth="yes"/>
      <point x="98" y="163" type="line" smooth="yes"/>
      <point x="98" y="143"/>
      <point x="91" y="88"/>
      <point x="89" y="77" type="curve"/>
      <point x="23" y="65" type="line"/>
      <point x="28" y="-5" type="line"/>
      <point x="28" y="-5"/>
      <point x="128" y="0"/>
      <point x="148" y="0" type="curve" smooth="yes"/>
      <point x="261" y="0"/>
      <point x="287" y="0"/>
      <point x="307" y="0" type="curve"/>
      <point x="312" y="71" type="line"/>
      <point x="247" y="77" type="line"/>
      <point x="247" y="77"/>
      <point x="238" y="143"/>
      <point x="238" y="193" type="curve" smooth="yes"/>
      <point x="238" y="557" type="line" smooth="yes"/>
      <point x="238" y="607"/>
      <point x="244" y="694"/>
      <point x="248" y="737" type="curve"/>
      <point x="227" y="756" type="line"/>
      <point x="139" y="756" type="line" smooth="yes"/>
      <point x="97" y="756"/>
      <point x="22" y="766"/>
      <point x="22" y="766" type="curve"/>
    </contour>
    <contour>
      <point x="374" y="422" type="line"/>
      <point x="249" y="265" type="line"/>
      <point x="338" y="110" type="line"/>
      <point x="360" y="68" type="line"/>
      <point x="364" y="60" type="line"/>
      <point x="393" y="0" type="line"/>
      <point x="426" y="0"/>
      <point x="458" y="0"/>
      <point x="491" y="0" type="curve" smooth="yes"/>
      <point x="549" y="0"/>
      <point x="583" y="0"/>
      <point x="604" y="0" type="curve"/>
      <point x="610" y="71" type="line"/>
      <point x="550" y="77" type="line"/>
      <point x="519" y="110"/>
      <point x="478" y="151"/>
      <point x="471" y="162" type="curve" smooth="yes"/>
      <point x="396" y="280" type="line"/>
      <point x="463" y="366" type="line" smooth="yes"/>
      <point x="476" y="383"/>
      <point x="514" y="405"/>
      <point x="545" y="423" type="curve"/>
      <point x="598" y="428" type="line"/>
      <point x="600" y="494" type="line"/>
      <point x="600" y="494"/>
      <point x="524" y="494"/>
      <point x="484" y="494" type="curve" smooth="yes"/>
      <point x="414" y="494"/>
      <point x="325" y="499"/>
      <point x="325" y="499" type="curve"/>
      <point x="320" y="428" type="line"/>
    </contour>
    <contour>
      <point x="317" y="0" type="move" name="bottom"/>
    </contour>
  </outline>
</glyph>
<glyph name="n" format="1">
  <advance width="660"/>
  <unicode hex="006E"/>
  <outline>
    <contour>
      <point x="307" y="503"/>
      <point x="252" y="444"/>
      <point x="208" y="362" type="curve"/>
      <point x="254" y="265" type="line"/>
      <point x="254" y="355"/>
      <point x="303" y="403"/>
      <point x="353" y="403" type="curve" smooth="yes"/>
      <point x="405" y="403"/>
      <point x="427" y="363"/>
      <point x="427" y="311" type="curve" smooth="yes"/>
      <point x="427" y="163" type="line"/>
      <point x="427" y="153"/>
      <point x="424" y="113"/>
      <point x="422" y="77" type="curve"/>
      <point x="366" y="65" type="line"/>
      <point x="371" y="-5" type="line"/>
      <point x="371" y="-5"/>
      <point x="471" y="0"/>
      <point x="491" y="0" type="curve" smooth="yes"/>
      <point x="604" y="0"/>
      <point x="636" y="0"/>
      <point x="636" y="0" type="curve"/>
      <point x="641" y="71" type="line"/>
      <point x="576" y="77" type="line"/>
      <point x="576" y="77"/>
      <point x="567" y="143"/>
      <point x="567" y="193" type="curve" smooth="yes"/>
      <point x="567" y="325" type="line" smooth="yes"/>
      <point x="567" y="441"/>
      <point x="509" y="503"/>
      <point x="400" y="503" type="curve" smooth="yes"/>
    </contour>
    <contour>
      <point x="29" y="429" type="line"/>
      <point x="104" y="412" type="line"/>
      <point x="104" y="412"/>
      <point x="114" y="345"/>
      <point x="114" y="325" type="curve" smooth="yes"/>
      <point x="114" y="163" type="line"/>
      <point x="114" y="143"/>
      <point x="105" y="77"/>
      <point x="105" y="77" type="curve"/>
      <point x="39" y="65" type="line"/>
      <point x="44" y="-5" type="line"/>
      <point x="44" y="-5"/>
      <point x="144" y="0"/>
      <point x="164" y="0" type="curve" smooth="yes"/>
      <point x="277" y="0"/>
      <point x="323" y="0"/>
      <point x="323" y="0" type="curve"/>
      <point x="328" y="71" type="line"/>
      <point x="263" y="77" type="line"/>
      <point x="263" y="77"/>
      <point x="254" y="143"/>
      <point x="254" y="193" type="curve" smooth="yes"/>
      <point x="254" y="265" type="line"/>
      <point x="224" y="475" type="line"/>
      <point x="203" y="494" type="line"/>
      <point x="155" y="494" type="line" smooth="yes"/>
      <point x="113" y="494"/>
      <point x="38" y="503"/>
      <point x="38" y="503" type="curve"/>
    </contour>
    <contour>
      <point x="336" y="494" type="move" name="top"/>
    </contour>
    <contour>
      <point x="330" y="0" type="move" name="bottom"/>
    </contour>
  </outline>
</glyph>
<glyph name="o" format="1">
  <advance width="590"/>
  <unicode hex="006F"/>
  <outline>
    <contour>
      <point x="542" y="411"/>
      <point x="454" y="503"/>
      <point x="295" y="503" type="curve" smooth="yes"/>
      <point x="136" y="503"/>
      <point x="48" y="411"/>
      <point x="48" y="244" type="curve"/>
      <point x="48" y="78"/>
      <point x="136" y="-15"/>
      <point x="295" y="-15" type="curve"/>
      <point x="454" y="-15"/>
      <point x="542" y="78"/>
      <point x="542" y="244" type="curve"/>
    </contour>
    <contour>
      <point x="383" y="121"/>
      <point x="357" y="70"/>
      <point x="295" y="70" type="curve"/>
      <point x="233" y="70"/>
      <point x="207" y="121"/>
      <point x="207" y="244" type="curve"/>
      <point x="207" y="367"/>
      <point x="233" y="418"/>
      <point x="295" y="418" type="curve" smooth="yes"/>
      <point x="357" y="418"/>
      <point x="383" y="367"/>
      <point x="383" y="244" type="curve"/>
    </contour>
    <contour>
      <point x="468" y="358" type="move" name="horn"/>
    </contour>
    <contour>
      <point x="303" y="0" type="move" name="bottom"/>
    </contour>
    <contour>
      <point x="295" y="494" type="move" name="top"/>
    </contour>
  </outline>
</glyph>
<glyph name="p" format="1">
  <advance width="622"/>
  <unicode hex="0070"/>
  <outline>
    <contour>
      <point x="311" y="503"/>
      <point x="262" y="473"/>
      <point x="220" y="404" type="curve"/>
      <point x="210" y="475" type="line"/>
      <point x="189" y="494" type="line"/>
      <point x="141" y="494" type="line" smooth="yes"/>
      <point x="92" y="494"/>
      <point x="24" y="503"/>
      <point x="24" y="503" type="curve"/>
      <point x="15" y="429" type="line"/>
      <point x="90" y="412" type="line"/>
      <point x="90" y="412"/>
      <point x="100" y="345"/>
      <point x="100" y="325" type="curve" smooth="yes"/>
      <point x="100" y="-66" type="line" smooth="yes"/>
      <point x="100" y="-86"/>
      <point x="90" y="-157"/>
      <point x="90" y="-157" type="curve"/>
      <point x="40" y="-169" type="line"/>
      <point x="45" y="-234" type="line"/>
      <point x="45" y="-234"/>
      <point x="145" y="-229"/>
      <point x="165" y="-229" type="curve" smooth="yes"/>
      <point x="278" y="-229"/>
      <point x="324" y="-229"/>
      <point x="324" y="-229" type="curve"/>
      <point x="329" y="-163" type="line"/>
      <point x="250" y="-157" type="line"/>
      <point x="250" y="-157"/>
      <point x="240" y="-86"/>
      <point x="240" y="-36" type="curve" smooth="yes"/>
      <point x="240" y="-5" type="line"/>
      <point x="268" y="-8"/>
      <point x="296" y="-10"/>
      <point x="321" y="-10" type="curve" smooth="yes"/>
      <point x="481" y="-10"/>
      <point x="572" y="86"/>
      <point x="572" y="254" type="curve" smooth="yes"/>
      <point x="572" y="413"/>
      <point x="504" y="503"/>
      <point x="382" y="503" type="curve" smooth="yes"/>
    </contour>
    <contour>
      <point x="386" y="390"/>
      <point x="413" y="343"/>
      <point x="413" y="241" type="curve" smooth="yes"/>
      <point x="413" y="131"/>
      <point x="382" y="85"/>
      <point x="309" y="85" type="curve" smooth="yes"/>
      <point x="290" y="85"/>
      <point x="267" y="90"/>
      <point x="240" y="99" type="curve"/>
      <point x="240" y="260" type="line" smooth="yes"/>
      <point x="245" y="345"/>
      <point x="275" y="390"/>
      <point x="328" y="390" type="curve" smooth="yes"/>
    </contour>
  </outline>
</glyph>
<glyph name="q" format="1">
  <advance width="605"/>
  <unicode hex="0071"/>
  <outline>
    <contour>
      <point x="141" y="502"/>
      <point x="50" y="406"/>
      <point x="50" y="238" type="curve" smooth="yes"/>
      <point x="50" y="79"/>
      <point x="118" y="-11"/>
      <point x="240" y="-11" type="curve" smooth="yes"/>
      <point x="321" y="-11"/>
      <point x="372" y="27"/>
      <point x="423" y="126" type="curve"/>
      <point x="382" y="232" type="line"/>
      <point x="377" y="146"/>
      <point x="347" y="102"/>
      <point x="294" y="102" type="curve" smooth="yes"/>
      <point x="236" y="102"/>
      <point x="209" y="149"/>
      <point x="209" y="251" type="curve" smooth="yes"/>
      <point x="209" y="361"/>
      <point x="240" y="407"/>
      <point x="313" y="407" type="curve" smooth="yes"/>
      <point x="345" y="407"/>
      <point x="389" y="394"/>
      <point x="457" y="365" type="curve"/>
      <point x="532" y="466" type="line"/>
      <point x="455" y="489"/>
      <point x="367" y="502"/>
      <point x="301" y="502" type="curve" smooth="yes"/>
    </contour>
    <contour>
      <point x="581" y="-164" type="line"/>
      <point x="532" y="-158" type="line"/>
      <point x="532" y="-158"/>
      <point x="522" y="-87"/>
      <point x="522" y="-37" type="curve" smooth="yes"/>
      <point x="522" y="329" type="line" smooth="yes"/>
      <point x="522" y="349"/>
      <point x="532" y="466"/>
      <point x="532" y="466" type="curve"/>
      <point x="377" y="422" type="line"/>
      <point x="377" y="422"/>
      <point x="382" y="349"/>
      <point x="382" y="299" type="curve" smooth="yes"/>
      <point x="382" y="-67" type="line" smooth="yes"/>
      <point x="382" y="-87"/>
      <point x="372" y="-158"/>
      <point x="372" y="-158" type="curve"/>
      <point x="292" y="-170" type="line"/>
      <point x="297" y="-235" type="line"/>
      <point x="297" y="-235"/>
      <point x="397" y="-230"/>
      <point x="417" y="-230" type="curve" smooth="yes"/>
      <point x="530" y="-230"/>
      <point x="576" y="-230"/>
      <point x="576" y="-230" type="curve"/>
    </contour>
  </outline>
</glyph>
<glyph name="r" format="1">
  <advance width="483"/>
  <unicode hex="0072"/>
  <outline>
    <contour>
      <point x="224" y="475" type="line"/>
      <point x="203" y="494" type="line"/>
      <point x="155" y="494" type="line" smooth="yes"/>
      <point x="113" y="494"/>
      <point x="38" y="504"/>
      <point x="38" y="504" type="curve"/>
      <point x="29" y="429" type="line"/>
      <point x="104" y="412" type="line"/>
      <point x="104" y="412"/>
      <point x="114" y="345"/>
      <point x="114" y="325" type="curve" smooth="yes"/>
      <point x="114" y="163" type="line" smooth="yes"/>
      <point x="114" y="143"/>
      <point x="105" y="77"/>
      <point x="105" y="77" type="curve"/>
      <point x="37" y="65" type="line"/>
      <point x="42" y="-5" type="line"/>
      <point x="42" y="-5"/>
      <point x="152" y="0"/>
      <point x="172" y="0" type="curve" smooth="yes"/>
      <point x="285" y="0"/>
      <point x="341" y="-1"/>
      <point x="341" y="-1" type="curve"/>
      <point x="346" y="71" type="line"/>
      <point x="263" y="77" type="line"/>
      <point x="263" y="77"/>
      <point x="254" y="143"/>
      <point x="254" y="193" type="curve" smooth="yes"/>
      <point x="254" y="265" type="line"/>
      <point x="254" y="355"/>
      <point x="303" y="403"/>
      <point x="353" y="403" type="curve" smooth="yes"/>
      <point x="355" y="403"/>
      <point x="357" y="403"/>
      <point x="359" y="402" type="curve"/>
      <point x="361" y="390"/>
      <point x="367" y="358"/>
      <point x="367" y="350" type="curve" smooth="yes"/>
      <point x="367" y="295" type="line"/>
      <point x="441" y="292" type="line"/>
      <point x="456" y="493" type="line"/>
      <point x="456" y="493"/>
      <point x="410" y="503"/>
      <point x="374" y="503" type="curve" smooth="yes"/>
      <point x="314" y="503"/>
      <point x="268" y="466"/>
      <point x="233" y="411" type="curve"/>
    </contour>
    <contour>
      <point x="261" y="494" type="move" name="top"/>
    </contour>
    <contour>
      <point x="180" y="0" type="move" name="bottom"/>
    </contour>
  </outline>
</glyph>
<glyph name="t" format="1">
  <advance width="391"/>
  <unicode hex="0074"/>
  <outline>
    <contour>
      <point x="338" y="100" type="line"/>
      <point x="338" y="100"/>
      <point x="310" y="80"/>
      <point x="284" y="80" type="curve" smooth="yes"/>
      <point x="251" y="80"/>
      <point x="232" y="110"/>
      <point x="232" y="143" type="curve" smooth="yes"/>
      <point x="232" y="419" type="line"/>
      <point x="342" y="419" type="line"/>
      <point x="351" y="494" type="line"/>
      <point x="232" y="494" type="line"/>
      <point x="232" y="607" type="line"/>
      <point x="177" y="611" type="line"/>
      <point x="177" y="611"/>
      <point x="135" y="541"/>
      <point x="122" y="524" type="curve"/>
      <point x="117" y="517"/>
      <point x="53" y="493"/>
      <point x="25" y="482" type="curve"/>
      <point x="28" y="419" type="line"/>
      <point x="92" y="419" type="line"/>
      <point x="92" y="156" type="line" smooth="yes"/>
      <point x="92" y="46"/>
      <point x="133" y="-10"/>
      <point x="242" y="-10" type="curve" smooth="yes"/>
      <point x="302" y="-10"/>
      <point x="342" y="17"/>
      <point x="375" y="43" type="curve"/>
    </contour>
    <contour>
      <point x="190" y="247" type="move" name="center"/>
    </contour>
    <contour>
      <point x="240" y="0" type="move" name="bottom"/>
    </contour>
  </outline>
</glyph>
<glyph name="u" format="1">
  <advance width="638"/>
  <unicode hex="0075"/>
  <outline>
    <contour>
      <point x="315" y="429" type="line"/>
      <point x="390" y="412" type="line"/>
      <point x="390" y="412"/>
      <point x="400" y="345"/>
      <point x="400" y="325" type="curve" smooth="yes"/>
      <point x="400" y="234" type="line" smooth="yes"/>
      <point x="400" y="144"/>
      <point x="352" y="96"/>
      <point x="302" y="96" type="curve" smooth="yes"/>
      <point x="250" y="96"/>
      <point x="229" y="136"/>
      <point x="229" y="188" type="curve" smooth="yes"/>
      <point x="229" y="295" type="line" smooth="yes"/>
      <point x="229" y="345"/>
      <point x="239" y="475"/>
      <point x="239" y="475" type="curve"/>
      <point x="218" y="494" type="line"/>
      <point x="145" y="494" type="line" smooth="yes"/>
      <point x="103" y="494"/>
      <point x="33" y="503"/>
      <point x="33" y="503" type="curve"/>
      <point x="24" y="429" type="line"/>
      <point x="79" y="415" type="line"/>
      <point x="79" y="415"/>
      <point x="89" y="345"/>
      <point x="89" y="325" type="curve" smooth="yes"/>
      <point x="89" y="174" type="line" smooth="yes"/>
      <point x="89" y="58"/>
      <point x="149" y="-4"/>
      <point x="265" y="-4" type="curve" smooth="yes"/>
      <point x="330" y="-4"/>
      <point x="374" y="28"/>
      <point x="410" y="78" type="curve"/>
      <point x="419" y="0" type="line"/>
      <point x="480" y="0"/>
      <point x="542" y="0"/>
      <point x="603" y="0" type="curve"/>
      <point x="609" y="71" type="line"/>
      <point x="549" y="77" type="line"/>
      <point x="549" y="77"/>
      <point x="540" y="143"/>
      <point x="540" y="193" type="curve" smooth="yes"/>
      <point x="540" y="295" type="line" smooth="yes"/>
      <point x="540" y="345"/>
      <point x="550" y="475"/>
      <point x="550" y="475" type="curve"/>
      <point x="529" y="494" type="line"/>
      <point x="441" y="494" type="line" smooth="yes"/>
      <point x="399" y="494"/>
      <point x="324" y="503"/>
      <point x="324" y="503" type="curve"/>
    </contour>
    <contour>
      <point x="603" y="0" type="move" name="ogonek"/>
    </contour>
    <contour>
      <point x="278" y="494" type="move" name="top"/>
    </contour>
    <contour>
      <point x="516" y="358" type="move" name="horn"/>
    </contour>
    <contour>
      <point x="300" y="0" type="move" name="bottom"/>
    </contour>
  </outline>
</glyph>
<glyph name="v" format="1">
  <advance width="566"/>
  <unicode hex="0076"/>
  <outline>
    <contour>
      <point x="559" y="428" type="line"/>
      <point x="554" y="494" type="line"/>
      <point x="554" y="494"/>
      <point x="506" y="494"/>
      <point x="466" y="494" type="curve" smooth="yes"/>
      <point x="396" y="494"/>
      <point x="337" y="499"/>
      <point x="337" y="499" type="curve"/>
      <point x="332" y="428" type="line"/>
      <point x="377" y="424" type="line"/>
      <point x="371" y="398"/>
      <point x="363" y="366"/>
      <point x="359" y="354" type="curve" smooth="yes"/>
      <point x="291" y="148" type="line"/>
      <point x="235" y="354" type="line" smooth="yes"/>
      <point x="232" y="366"/>
      <point x="227" y="393"/>
      <point x="223" y="424" type="curve"/>
      <point x="268" y="428" type="line"/>
      <point x="263" y="494" type="line"/>
      <point x="263" y="494"/>
      <point x="199" y="494"/>
      <point x="159" y="494" type="curve" smooth="yes"/>
      <point x="89" y="494"/>
      <point x="10" y="503"/>
      <point x="10" y="503" type="curve"/>
      <point x="5" y="434" type="line"/>
      <point x="70" y="423" type="line"/>
      <point x="84" y="392"/>
      <point x="96" y="357"/>
      <point x="100" y="344" type="curve" smooth="yes"/>
      <point x="108" y="322"/>
      <point x="220" y="0"/>
      <point x="220" y="0" type="curve"/>
      <point x="347" y="0" type="line"/>
      <point x="467" y="319" type="line" smooth="yes"/>
      <point x="472" y="333"/>
      <point x="495" y="382"/>
      <point x="514" y="422" type="curve"/>
    </contour>
  </outline>
</glyph>
<glyph name="w" format="1">
  <advance width="839"/>
  <unicode hex="0077"/>
  <outline>
    <contour>
      <point x="832" y="428" type="line"/>
      <point x="827" y="494" type="line"/>
      <point x="827" y="494"/>
      <point x="781" y="494"/>
      <point x="741" y="494" type="curve" smooth="yes"/>
      <point x="671" y="494"/>
      <point x="599" y="499"/>
      <point x="599" y="499" type="curve"/>
      <point x="594" y="428" type="line"/>
      <point x="652" y="424" type="line"/>
      <point x="646" y="398"/>
      <point x="638" y="367"/>
      <point x="634" y="355" type="curve"/>
      <point x="569" y="148" type="line"/>
      <point x="476" y="494" type="line"/>
      <point x="388" y="494" type="line"/>
      <point x="282" y="148" type="line"/>
      <point x="226" y="353" type="line" smooth="yes"/>
      <point x="223" y="365"/>
      <point x="218" y="393"/>
      <point x="212" y="424" type="curve"/>
      <point x="278" y="428" type="line"/>
      <point x="273" y="494" type="line"/>
      <point x="273" y="494"/>
      <point x="190" y="494"/>
      <point x="150" y="494" type="curve" smooth="yes"/>
      <point x="80" y="494"/>
      <point x="11" y="503"/>
      <point x="11" y="503" type="curve"/>
      <point x="6" y="434" type="line"/>
      <point x="61" y="423" type="line"/>
      <point x="75" y="392"/>
      <point x="87" y="357"/>
      <point x="91" y="344" type="curve" smooth="yes"/>
      <point x="99" y="322"/>
      <point x="211" y="0"/>
      <point x="211" y="0" type="curve"/>
      <point x="340" y="0" type="line"/>
      <point x="421" y="241" type="line"/>
      <point x="495" y="0" type="line"/>
      <point x="625" y="0" type="line"/>
      <point x="742" y="319" type="line" smooth="yes"/>
      <point x="747" y="333"/>
      <point x="770" y="382"/>
      <point x="789" y="422" type="curve"/>
    </contour>
    <contour>
      <point x="421" y="494" type="move" name="top"/>
    </contour>
  </outline>
</glyph>
<glyph name="x" format="1">
  <advance width="597"/>
  <unicode hex="0078"/>
  <outline>
    <contour>
      <point x="32" y="503"/>
      <point x="119" y="494"/>
      <point x="187" y="494" type="curve" smooth="yes"/>
      <point x="226" y="494"/>
      <point x="288" y="494"/>
      <point x="288" y="494" type="curve"/>
      <point x="293" y="429" type="line"/>
      <point x="246" y="425" type="line"/>
      <point x="270" y="384" type="line"/>
      <point x="314" y="312" type="line"/>
      <point x="377" y="268" type="line"/>
      <point x="448" y="171" type="line"/>
      <point x="536" y="75" type="line"/>
      <point x="577" y="64" type="line"/>
      <point x="574" y="-1" type="line"/>
      <point x="574" y="-1"/>
      <point x="505" y="0"/>
      <point x="437" y="0" type="curve" smooth="yes"/>
      <point x="417" y="0"/>
      <point x="317" y="-5"/>
      <point x="317" y="-5" type="curve"/>
      <point x="312" y="69" type="line"/>
      <point x="352" y="73" type="line"/>
      <point x="339" y="95" type="line"/>
      <point x="275" y="191" type="line"/>
      <point x="211" y="242" type="line"/>
      <point x="154" y="323" type="line"/>
      <point x="60" y="427" type="line"/>
      <point x="27" y="435" type="line"/>
      <point x="32" y="503" type="line"/>
    </contour>
    <contour>
      <point x="343" y="499"/>
      <point x="401" y="494"/>
      <point x="469" y="494" type="curve" smooth="yes"/>
      <point x="508" y="494"/>
      <point x="556" y="494"/>
      <point x="556" y="494" type="curve"/>
      <point x="561" y="429" type="line"/>
      <point x="525" y="423" type="line"/>
      <point x="429" y="311" type="line"/>
      <point x="380" y="244" type="line"/>
      <point x="289" y="192" type="line"/>
      <point x="223" y="90" type="line"/>
      <point x="215" y="73" type="line"/>
      <point x="247" y="70" type="line"/>
      <point x="242" y="0" type="line"/>
      <point x="242" y="0"/>
      <point x="218" y="0"/>
      <point x="149" y="0" type="curve" smooth="yes"/>
      <point x="129" y="0"/>
      <point x="29" y="-5"/>
      <point x="29" y="-5" type="curve"/>
      <point x="24" y="69" type="line"/>
      <point x="62" y="76" type="line"/>
      <point x="154" y="184" type="line"/>
      <point x="211" y="262" type="line"/>
      <point x="301" y="311" type="line"/>
      <point x="344" y="381" type="line"/>
      <point x="372" y="425" type="line"/>
      <point x="338" y="429" type="line"/>
      <point x="343" y="499" type="line"/>
    </contour>
  </outline>
</glyph>
<glyph name="braceright" format="1">
  <advance width="289"/>
  <unicode hex="007D"/>
  <outline>
    <contour>
      <point x="98" y="601" type="line"/>
      <point x="98" y="641"/>
      <point x="89" y="691"/>
      <point x="89" y="691" type="curve"/>
      <point x="20" y="700" type="line"/>
      <point x="23" y="766" type="line"/>
      <point x="23" y="766"/>
      <point x="122" y="762"/>
      <point x="191" y="762" type="curve"/>
      <point x="215" y="733" type="line"/>
      <point x="185" y="383" type="line"/>
      <point x="202" y="364"/>
      <point x="246" y="345"/>
      <point x="259" y="345" type="curve"/>
      <point x="255" y="296" type="line"/>
      <point x="246" y="296"/>
      <point x="202" y="276"/>
      <point x="185" y="258" type="curve"/>
      <point x="202" y="43"/>
      <point x="215" y="-92"/>
      <point x="215" y="-92" type="curve"/>
      <point x="191" y="-121" type="line"/>
      <point x="122" y="-121"/>
      <point x="23" y="-125"/>
      <point x="23" y="-125" type="curve"/>
      <point x="20" y="-59" type="line"/>
      <point x="89" y="-50" type="line"/>
      <point x="89" y="-50"/>
      <point x="98" y="0"/>
      <point x="98" y="40" type="curve"/>
      <point x="88" y="274" type="line"/>
      <point x="118" y="302"/>
      <point x="157" y="316"/>
      <point x="157" y="316" type="curve"/>
      <point x="157" y="325" type="line"/>
      <point x="157" y="325"/>
      <point x="118" y="339"/>
      <point x="88" y="367" type="curve"/>
    </contour>
  </outline>
</glyph>
<glyph name="exclamdown" format="1">
  <advance width="239"/>
  <unicode hex="00A1"/>
  <outline>
    <contour>
      <point x="48" y="252" type="line"/>
      <point x="48" y="252"/>
      <point x="51" y="205"/>
      <point x="51" y="175" type="curve" smooth="yes"/>
      <point x="51" y="18"/>
      <point x="26" y="-200"/>
      <point x="26" y="-200" type="curve"/>
      <point x="55" y="-228" type="line"/>
      <point x="175" y="-219" type="line"/>
      <point x="166" y="197" type="line"/>
      <point x="166" y="227"/>
      <point x="167" y="263"/>
      <point x="167" y="263" type="curve"/>
      <point x="128" y="263"/>
      <point x="71" y="267"/>
      <point x="65" y="268" type="curve"/>
    </contour>
    <contour>
      <point x="156" y="508"/>
      <point x="184" y="478"/>
      <point x="184" y="428" type="curve" smooth="yes"/>
      <point x="184" y="381"/>
      <point x="158" y="349"/>
      <point x="110" y="349" type="curve" smooth="yes"/>
      <point x="62" y="349"/>
      <point x="36" y="381"/>
      <point x="36" y="428" type="curve" smooth="yes"/>
      <point x="36" y="475"/>
      <point x="62" y="508"/>
      <point x="110" y="508" type="curve" smooth="yes"/>
    </contour>
  </outline>
</glyph>
<glyph name="sterling" format="1">
  <advance width="616"/>
  <unicode hex="00A3"/>
  <outline>
    <contour>
      <point x="472" y="557"/>
      <point x="479" y="526"/>
      <point x="479" y="520" type="curve" smooth="yes"/>
      <point x="482" y="475" type="line"/>
      <point x="554" y="472" type="line"/>
      <point x="566" y="635" type="line"/>
      <point x="566" y="635"/>
      <point x="468" y="569"/>
      <point x="468" y="569" type="curve"/>
    </contour>
    <contour>
      <point x="47" y="328" type="line"/>
      <point x="457" y="347" type="line"/>
      <point x="455" y="411" type="line"/>
      <point x="45" y="393" type="line"/>
    </contour>
    <contour>
      <point x="52" y="222" type="line"/>
      <point x="462" y="241" type="line"/>
      <point x="460" y="305" type="line"/>
      <point x="50" y="287" type="line"/>
    </contour>
    <contour>
      <point x="134" y="163" type="line" smooth="yes"/>
      <point x="134" y="143"/>
      <point x="126" y="87"/>
      <point x="125" y="77" type="curve"/>
      <point x="59" y="65" type="line"/>
      <point x="64" y="-5" type="line"/>
      <point x="64" y="-5"/>
      <point x="184" y="0"/>
      <point x="214" y="0" type="curve" smooth="yes"/>
      <point x="438" y="0" type="line" smooth="yes"/>
      <point x="458" y="0"/>
      <point x="552" y="-4"/>
      <point x="552" y="-4" type="curve"/>
      <point x="571" y="14" type="line"/>
      <point x="586" y="190" type="line"/>
      <point x="516" y="195" type="line"/>
      <point x="514" y="179"/>
      <point x="508" y="153"/>
      <point x="504" y="138" type="curve"/>
      <point x="503" y="132"/>
      <point x="494" y="114"/>
      <point x="485" y="95" type="curve"/>
      <point x="466" y="91"/>
      <point x="437" y="87"/>
      <point x="408" y="87" type="curve" smooth="yes"/>
      <point x="287" y="87" type="line"/>
      <point x="284" y="108"/>
      <point x="279" y="151"/>
      <point x="279" y="193" type="curve" smooth="yes"/>
      <point x="279" y="488" type="line" smooth="yes"/>
      <point x="279" y="538"/>
      <point x="312" y="579"/>
      <point x="362" y="579" type="curve" smooth="yes"/>
      <point x="402" y="579"/>
      <point x="435" y="574"/>
      <point x="474" y="557" type="curve"/>
      <point x="566" y="635" type="line"/>
      <point x="501" y="651"/>
      <point x="428" y="667"/>
      <point x="363" y="667" type="curve" smooth="yes"/>
      <point x="233" y="667"/>
      <point x="134" y="596"/>
      <point x="134" y="466" type="curve" smooth="yes"/>
    </contour>
  </outline>
</glyph>
<glyph name="yen" format="1">
  <advance width="654"/>
  <unicode hex="00A5"/>
  <outline>
    <contour>
      <point x="397" y="286" type="line"/>
      <point x="256" y="538" type="line"/>
      <point x="246" y="559"/>
      <point x="220" y="640"/>
      <point x="220" y="640" type="curve"/>
      <point x="41" y="601" type="line"/>
      <point x="41" y="601"/>
      <point x="94" y="538"/>
      <point x="106" y="516" type="curve" smooth="yes"/>
      <point x="308" y="157" type="line"/>
    </contour>
    <contour>
      <point x="470" y="639" type="line"/>
      <point x="470" y="639"/>
      <point x="445" y="572"/>
      <point x="437" y="549" type="curve"/>
      <point x="271" y="256" type="line"/>
      <point x="345" y="182" type="line"/>
      <point x="526" y="489" type="line"/>
      <point x="536" y="511"/>
      <point x="616" y="602"/>
      <point x="615" y="601" type="curve"/>
    </contour>
    <contour>
      <point x="102" y="328" type="line"/>
      <point x="552" y="347" type="line"/>
      <point x="550" y="411" type="line"/>
      <point x="428" y="406" type="line"/>
      <point x="345" y="373" type="line"/>
      <point x="290" y="401" type="line"/>
      <point x="100" y="393" type="line"/>
    </contour>
    <contour>
      <point x="107" y="222" type="line"/>
      <point x="557" y="241" type="line"/>
      <point x="555" y="305" type="line"/>
      <point x="105" y="287" type="line"/>
    </contour>
    <contour>
      <point x="256" y="163" type="line" smooth="yes"/>
      <point x="256" y="143"/>
      <point x="248" y="87"/>
      <point x="247" y="77" type="curve"/>
      <point x="181" y="65" type="line"/>
      <point x="186" y="-5" type="line"/>
      <point x="186" y="-5"/>
      <point x="306" y="0"/>
      <point x="336" y="0" type="curve"/>
      <point x="470" y="0" type="line"/>
      <point x="475" y="71" type="line"/>
      <point x="410" y="77" type="line"/>
      <point x="408" y="91"/>
      <point x="401" y="143"/>
      <point x="401" y="193" type="curve" smooth="yes"/>
      <point x="401" y="303" type="line"/>
      <point x="256" y="303" type="line" smooth="yes"/>
    </contour>
    <contour>
      <point x="642" y="576" type="line"/>
      <point x="637" y="657" type="line"/>
      <point x="637" y="657"/>
      <point x="568" y="652"/>
      <point x="513" y="652" type="curve" smooth="yes"/>
      <point x="483" y="652"/>
      <point x="403" y="657"/>
      <point x="403" y="657" type="curve"/>
      <point x="398" y="582" type="line"/>
      <point x="447" y="574" type="line"/>
      <point x="585" y="570" type="line"/>
    </contour>
    <contour>
      <point x="294" y="576" type="line"/>
      <point x="289" y="657" type="line"/>
      <point x="289" y="657"/>
      <point x="197" y="652"/>
      <point x="137" y="652" type="curve" smooth="yes"/>
      <point x="117" y="652"/>
      <point x="17" y="657"/>
      <point x="17" y="657" type="curve"/>
      <point x="12" y="582" type="line"/>
      <point x="77" y="570" type="line"/>
      <point x="242" y="571" type="line"/>
    </contour>
  </outline>
</glyph>
<glyph name="dieresis" format="1">
  <advance width="412"/>
  <unicode hex="00A8"/>
  <outline>
    <component base="dieresis_dot_sub_comp" xOffset="20"/>
    <component base="dieresis_dot_sub_comp" xOffset="213"/>
    <contour>
      <point x="202" y="494" type="move" name="_top"/>
    </contour>
  </outline>
</glyph>
<glyph name="registered" format="1">
  <advance width="845"/>
  <unicode hex="00AE"/>
  <outline>
    <contour>
      <point x="788" y="454"/>
      <point x="625" y="615"/>
      <point x="422" y="615" type="curve" smooth="yes"/>
      <point x="222" y="615"/>
      <point x="57" y="452"/>
      <point x="57" y="250" type="curve" smooth="yes"/>
      <point x="57" y="44"/>
      <point x="224" y="-115"/>
      <point x="422" y="-115" type="curve" smooth="yes"/>
      <point x="624" y="-115"/>
      <point x="788" y="52"/>
      <point x="788" y="250" type="curve" smooth="yes"/>
    </contour>
    <contour>
      <point x="718" y="88"/>
      <point x="586" y="-46"/>
      <point x="422" y="-46" type="curve" smooth="yes"/>
      <point x="260" y="-46"/>
      <point x="126" y="88"/>
      <point x="126" y="250" type="curve" smooth="yes"/>
      <point x="126" y="416"/>
      <point x="260" y="546"/>
      <point x="422" y="546" type="curve" smooth="yes"/>
      <point x="585" y="546"/>
      <point x="718" y="411"/>
      <point x="718" y="250" type="curve" smooth="yes"/>
    </contour>
    <contour>
      <point x="248" y="420" type="line"/>
      <point x="283" y="413" type="line"/>
      <point x="284" y="401"/>
      <point x="288" y="377"/>
      <point x="288" y="342" type="curve" smooth="yes"/>
      <point x="288" y="163" type="line" smooth="yes"/>
      <point x="288" y="151"/>
      <point x="284" y="118"/>
      <point x="283" y="112" type="curve"/>
      <point x="247" y="106" type="line"/>
      <point x="250" y="64" type="line"/>
      <point x="250" y="64"/>
      <point x="271" y="64"/>
      <point x="305" y="64" type="curve" smooth="yes"/>
      <point x="379" y="64"/>
      <point x="431" y="64"/>
      <point x="431" y="64" type="curve"/>
      <point x="433" y="108" type="line"/>
      <point x="401" y="112" type="line"/>
      <point x="400" y="120"/>
      <point x="394" y="149"/>
      <point x="394" y="180" type="curve" smooth="yes"/>
      <point x="394" y="217" type="line"/>
      <point x="420" y="217" type="line"/>
      <point x="466" y="130" type="line" smooth="yes"/>
      <point x="473" y="116"/>
      <point x="494" y="64"/>
      <point x="494" y="64" type="curve"/>
      <point x="568" y="64"/>
      <point x="614" y="64"/>
      <point x="614" y="64" type="curve"/>
      <point x="616" y="108" type="line"/>
      <point x="594" y="111" type="line"/>
      <point x="586" y="123"/>
      <point x="539" y="190"/>
      <point x="513" y="243" type="curve"/>
      <point x="553" y="266"/>
      <point x="580" y="303"/>
      <point x="580" y="349" type="curve" smooth="yes"/>
      <point x="580" y="424"/>
      <point x="521" y="471"/>
      <point x="438" y="471" type="curve" smooth="yes"/>
      <point x="405" y="471"/>
      <point x="347" y="465"/>
      <point x="312" y="465" type="curve"/>
      <point x="251" y="465" type="line"/>
    </contour>
    <contour>
      <point x="402" y="417" type="line" smooth="yes"/>
      <point x="452" y="417"/>
      <point x="468" y="394"/>
      <point x="468" y="348" type="curve" smooth="yes"/>
      <point x="468" y="299"/>
      <point x="453" y="271"/>
      <point x="399" y="271" type="curve" smooth="yes"/>
      <point x="394" y="271" type="line"/>
      <point x="394" y="373" type="line" smooth="yes"/>
      <point x="394" y="376"/>
      <point x="395" y="399"/>
      <point x="397" y="417" type="curve"/>
    </contour>
  </outline>
</glyph>
<glyph name="macron" format="1">
  <advance width="362"/>
  <unicode hex="00AF"/>
  <outline>
    <contour>
      <point x="332" y="590" type="line"/>
      <point x="342" y="660" type="line"/>
      <point x="20" y="660" type="line"/>
      <point x="20" y="590" type="line"/>
    </contour>
    <contour>
      <point x="181" y="494" type="move" name="_top"/>
    </contour>
  </outline>
</glyph>
<glyph name="two.sups" format="1">
  <advance width="373"/>
  <unicode hex="00B2"/>
  <outline>
    <contour>
      <point x="120" y="880"/>
      <point x="74" y="872"/>
      <point x="30" y="856" type="curve"/>
      <point x="34" y="737" type="line"/>
      <point x="92" y="741" type="line"/>
      <point x="92" y="769" type="line" smooth="yes"/>
      <point x="92" y="774"/>
      <point x="93" y="782"/>
      <point x="97" y="795" type="curve"/>
      <point x="115" y="805"/>
      <point x="134" y="811"/>
      <point x="151" y="811" type="curve" smooth="yes"/>
      <point x="183" y="811"/>
      <point x="207" y="789"/>
      <point x="207" y="757" type="curve" smooth="yes"/>
      <point x="207" y="697"/>
      <point x="161" y="651"/>
      <point x="14" y="520" type="curve"/>
      <point x="24" y="450" type="line"/>
      <point x="245" y="450" type="line" smooth="yes"/>
      <point x="257" y="450"/>
      <point x="318" y="448"/>
      <point x="318" y="448" type="curve"/>
      <point x="340" y="461" type="line"/>
      <point x="346" y="597" type="line"/>
      <point x="289" y="601" type="line"/>
      <point x="283" y="574" type="line" smooth="yes"/>
      <point x="281" y="567"/>
      <point x="273" y="540"/>
      <point x="273" y="540" type="curve"/>
      <point x="273" y="540"/>
      <point x="239" y="533"/>
      <point x="221" y="533" type="curve" smooth="yes"/>
      <point x="145" y="533" type="line"/>
      <point x="282" y="651"/>
      <point x="321" y="697"/>
      <point x="321" y="763" type="curve" smooth="yes"/>
      <point x="321" y="837"/>
      <point x="268" y="880"/>
      <point x="166" y="880" type="curve" smooth="yes"/>
    </contour>
  </outline>
</glyph>
<glyph name="three.sups" format="1">
  <advance width="335"/>
  <unicode hex="00B3"/>
  <outline>
    <contour>
      <point x="95" y="880"/>
      <point x="52" y="874"/>
      <point x="15" y="861" type="curve"/>
      <point x="24" y="749" type="line"/>
      <point x="81" y="753" type="line"/>
      <point x="82" y="794" type="line"/>
      <point x="82" y="797"/>
      <point x="81" y="794"/>
      <point x="85" y="812" type="curve"/>
      <point x="98" y="816"/>
      <point x="117" y="819"/>
      <point x="132" y="819" type="curve" smooth="yes"/>
      <point x="164" y="819"/>
      <point x="181" y="803"/>
      <point x="181" y="772" type="curve" smooth="yes"/>
      <point x="181" y="719"/>
      <point x="145" y="683"/>
      <point x="78" y="671" type="curve"/>
      <point x="87" y="620" type="line"/>
      <point x="87" y="620"/>
      <point x="112" y="623"/>
      <point x="127" y="623" type="curve" smooth="yes"/>
      <point x="170" y="623"/>
      <point x="190" y="601"/>
      <point x="190" y="556" type="curve" smooth="yes"/>
      <point x="190" y="492"/>
      <point x="121" y="445"/>
      <point x="17" y="435" type="curve"/>
      <point x="32" y="382" type="line"/>
      <point x="189" y="393"/>
      <point x="307" y="471"/>
      <point x="307" y="564" type="curve" smooth="yes"/>
      <point x="307" y="610"/>
      <point x="267" y="656"/>
      <point x="216" y="665" type="curve"/>
      <point x="263" y="689"/>
      <point x="289" y="725"/>
      <point x="289" y="765" type="curve" smooth="yes"/>
      <point x="289" y="841"/>
      <point x="236" y="880"/>
      <point x="137" y="880" type="curve" smooth="yes"/>
    </contour>
  </outline>
</glyph>
<glyph name="acute" format="1">
  <advance width="360"/>
  <unicode hex="00B4"/>
  <outline>
    <contour>
      <point x="260" y="750" type="line"/>
      <point x="53" y="618" type="line"/>
      <point x="96" y="565" type="line"/>
      <point x="303" y="679" type="line"/>
    </contour>
    <contour>
      <point x="160" y="494" type="move" name="_top"/>
    </contour>
  </outline>
</glyph>
<glyph name="paragraph" format="1">
  <advance width="625"/>
  <unicode hex="00B6"/>
  <outline>
    <contour>
      <point x="27" y="370"/>
      <point x="137" y="291"/>
      <point x="268" y="291" type="curve"/>
      <point x="309" y="330" type="line"/>
      <point x="309" y="705" type="line"/>
      <point x="294" y="707"/>
      <point x="264" y="709"/>
      <point x="247" y="709" type="curve" smooth="yes"/>
      <point x="122" y="709"/>
      <point x="27" y="626"/>
      <point x="27" y="501" type="curve" smooth="yes"/>
    </contour>
    <contour>
      <point x="359" y="73" type="line" smooth="yes"/>
      <point x="359" y="53"/>
      <point x="351" y="-3"/>
      <point x="350" y="-13" type="curve"/>
      <point x="264" y="-25" type="line"/>
      <point x="269" y="-95" type="line"/>
      <point x="269" y="-95"/>
      <point x="409" y="-90"/>
      <point x="439" y="-90" type="curve"/>
      <point x="502" y="-90" type="line"/>
      <point x="523" y="-68" type="line"/>
      <point x="521" y="-54"/>
      <point x="514" y="53"/>
      <point x="514" y="103" type="curve" smooth="yes"/>
      <point x="514" y="542" type="line" smooth="yes"/>
      <point x="514" y="562"/>
      <point x="516" y="597"/>
      <point x="519" y="623" type="curve"/>
      <point x="584" y="635" type="line"/>
      <point x="579" y="710" type="line"/>
      <point x="527" y="707"/>
      <point x="499" y="705"/>
      <point x="459" y="705" type="curve"/>
      <point x="359" y="705" type="line"/>
    </contour>
  </outline>
</glyph>
<glyph name="periodcentered" format="1">
  <advance width="243"/>
  <unicode hex="00B7"/>
  <outline>
    <contour>
      <point x="168" y="384"/>
      <point x="198" y="352"/>
      <point x="198" y="299" type="curve" smooth="yes"/>
      <point x="198" y="249"/>
      <point x="169" y="215"/>
      <point x="119" y="215" type="curve" smooth="yes"/>
      <point x="69" y="215"/>
      <point x="40" y="249"/>
      <point x="40" y="299" type="curve" smooth="yes"/>
      <point x="40" y="349"/>
      <point x="69" y="384"/>
      <point x="119" y="384" type="curve" smooth="yes"/>
    </contour>
  </outline>
</glyph>
<glyph name="cedilla" format="1">
  <advance width="360"/>
  <unicode hex="00B8"/>
  <outline>
    <contour>
      <point x="215" y="17" type="line"/>
      <point x="149" y="17" type="line"/>
      <point x="138" y="-95" type="line"/>
      <point x="149" y="-109" type="line"/>
      <point x="149" y="-109"/>
      <point x="164" y="-108"/>
      <point x="170" y="-108" type="curve" smooth="yes"/>
      <point x="194" y="-108"/>
      <point x="212" y="-114"/>
      <point x="212" y="-139" type="curve" smooth="yes"/>
      <point x="212" y="-164"/>
      <point x="189" y="-172"/>
      <point x="165" y="-172" type="curve" smooth="yes"/>
      <point x="145" y="-172"/>
      <point x="126" y="-166"/>
      <point x="110" y="-161" type="curve"/>
      <point x="92" y="-210" type="line"/>
      <point x="109" y="-218"/>
      <point x="151" y="-228"/>
      <point x="188" y="-228" type="curve" smooth="yes"/>
      <point x="251" y="-228"/>
      <point x="302" y="-202"/>
      <point x="302" y="-139" type="curve" smooth="yes"/>
      <point x="302" y="-85"/>
      <point x="260" y="-53"/>
      <point x="201" y="-52" type="curve"/>
    </contour>
    <contour>
      <point x="180" y="0" type="move" name="_bottom"/>
    </contour>
  </outline>
</glyph>
<glyph name="one.sups" format="1">
  <advance width="294"/>
  <unicode hex="00B9"/>
  <outline>
    <contour>
      <point x="283" y="498" type="line"/>
      <point x="232" y="502" type="line"/>
      <point x="232" y="500"/>
      <point x="225" y="545"/>
      <point x="225" y="579" type="curve" smooth="yes"/>
      <point x="225" y="727" type="line" smooth="yes"/>
      <point x="225" y="759"/>
      <point x="231" y="879"/>
      <point x="231" y="879" type="curve"/>
      <point x="155" y="887" type="line"/>
      <point x="155" y="887"/>
      <point x="130" y="856"/>
      <point x="123" y="850" type="curve" smooth="yes"/>
      <point x="110" y="839"/>
      <point x="29" y="780"/>
      <point x="29" y="780" type="curve"/>
      <point x="55" y="737" type="line"/>
      <point x="122" y="759" type="line"/>
      <point x="122" y="559" type="line" smooth="yes"/>
      <point x="122" y="546"/>
      <point x="115" y="500"/>
      <point x="116" y="502" type="curve"/>
      <point x="57" y="495" type="line"/>
      <point x="60" y="447" type="line"/>
      <point x="60" y="447"/>
      <point x="112" y="450"/>
      <point x="146" y="450" type="curve" smooth="yes"/>
      <point x="225" y="450"/>
      <point x="279" y="447"/>
      <point x="279" y="447" type="curve"/>
    </contour>
  </outline>
</glyph>
<glyph name="AE" format="1">
  <advance width="950"/>
  <unicode hex="00C6"/>
  <outline>
    <contour>
      <point x="226" y="179" type="line"/>
      <point x="252" y="263" type="line"/>
      <point x="453" y="263" type="line"/>
      <point x="477" y="179" type="line"/>
    </contour>
    <contour>
      <point x="422" y="705" type="line"/>
      <point x="742" y="705" type="line" smooth="yes"/>
      <point x="762" y="705"/>
      <point x="856" y="715"/>
      <point x="856" y="715" type="curve"/>
      <point x="875" y="697" type="line"/>
      <point x="882" y="542" type="line"/>
      <point x="810" y="537" type="line"/>
      <point x="808" y="553"/>
      <point x="805" y="575"/>
      <point x="801" y="590" type="curve"/>
      <point x="800" y="594"/>
      <point x="796" y="608"/>
      <point x="792" y="618" type="curve"/>
      <point x="772" y="620"/>
      <point x="742" y="623"/>
      <point x="712" y="623" type="curve" smooth="yes"/>
      <point x="545" y="623" type="line"/>
      <point x="546" y="605"/>
      <point x="549" y="558"/>
      <point x="551" y="542" type="curve"/>
      <point x="605" y="193" type="line"/>
      <point x="625" y="87" type="line"/>
      <point x="726" y="87" type="line" smooth="yes"/>
      <point x="755" y="87"/>
      <point x="783" y="91"/>
      <point x="803" y="95" type="curve"/>
      <point x="812" y="114"/>
      <point x="821" y="132"/>
      <point x="822" y="138" type="curve" smooth="yes"/>
      <point x="826" y="153"/>
      <point x="832" y="179"/>
      <point x="834" y="195" type="curve"/>
      <point x="904" y="190" type="line"/>
      <point x="889" y="14" type="line"/>
      <point x="870" y="-4" type="line"/>
      <point x="870" y="-4"/>
      <point x="776" y="0"/>
      <point x="756" y="0" type="curve"/>
      <point x="619" y="0" type="line"/>
      <point x="569" y="0"/>
      <point x="415" y="-5"/>
      <point x="415" y="-5" type="curve"/>
      <point x="410" y="65" type="line"/>
      <point x="469" y="76" type="line"/>
      <point x="468" y="93"/>
      <point x="467" y="111"/>
      <point x="464" y="129" type="curve" smooth="yes"/>
      <point x="409" y="487" type="line"/>
    </contour>
    <contour>
      <point x="509" y="398" type="line" smooth="yes"/>
      <point x="680" y="398" type="line" smooth="yes"/>
      <point x="700" y="398"/>
      <point x="724" y="407"/>
      <point x="724" y="407" type="curve"/>
      <point x="733" y="471" type="line"/>
      <point x="795" y="466" type="line"/>
      <point x="795" y="466"/>
      <point x="794" y="406"/>
      <point x="794" y="386" type="curve" smooth="yes"/>
      <point x="794" y="333"/>
      <point x="797" y="256"/>
      <point x="797" y="256" type="curve"/>
      <point x="733" y="250" type="line"/>
      <point x="724" y="310" type="line"/>
      <point x="724" y="310"/>
      <point x="680" y="316"/>
      <point x="660" y="316" type="curve" smooth="yes"/>
      <point x="514" y="316" type="line"/>
    </contour>
    <contour>
      <point x="419" y="487" type="line"/>
      <point x="211" y="115" type="line" smooth="yes"/>
      <point x="205" y="105"/>
      <point x="199" y="85"/>
      <point x="196" y="77" type="curve"/>
      <point x="262" y="71" type="line"/>
      <point x="257" y="0" type="line"/>
      <point x="153" y="0" type="line"/>
      <point x="123" y="0"/>
      <point x="18" y="-5"/>
      <point x="18" y="-5" type="curve"/>
      <point x="13" y="65" type="line"/>
      <point x="52" y="73" type="line"/>
      <point x="62" y="86"/>
      <point x="101" y="141"/>
      <point x="113" y="161" type="curve" smooth="yes"/>
      <point x="422" y="705" type="line"/>
    </contour>
    <contour>
      <point x="531" y="705" type="move" name="top"/>
    </contour>
  </outline>
</glyph>
<glyph name="Eth" format="1">
  <advance width="769"/>
  <unicode hex="00D0"/>
  <outline>
    <contour>
      <point x="375" y="322" type="line"/>
      <point x="380" y="395" type="line"/>
      <point x="58" y="395" type="line"/>
      <point x="58" y="322" type="line"/>
    </contour>
    <component base="D" xOffset="11"/>
  </outline>
</glyph>
<glyph name="Oslash" format="1">
  <advance width="812"/>
  <unicode hex="00D8"/>
  <outline>
    <contour>
      <point x="685" y="809" type="line"/>
      <point x="626" y="838" type="line"/>
      <point x="129" y="-108" type="line"/>
      <point x="186" y="-137" type="line"/>
    </contour>
    <component base="O" xOffset="-1"/>
    <contour>
      <point x="401" y="705" type="move" name="top"/>
    </contour>
  </outline>
</glyph>
<glyph name="Thorn" format="1">
  <advance width="629"/>
  <unicode hex="00DE"/>
  <outline>
    <contour>
      <point x="268" y="146" type="line"/>
      <point x="293" y="146"/>
      <point x="324" y="146"/>
      <point x="347" y="146" type="curve" smooth="yes"/>
      <point x="483" y="146"/>
      <point x="597" y="222"/>
      <point x="597" y="358" type="curve" smooth="yes"/>
      <point x="597" y="492"/>
      <point x="501" y="570"/>
      <point x="361" y="570" type="curve" smooth="yes"/>
      <point x="338" y="570"/>
      <point x="301" y="568"/>
      <point x="267" y="566" type="curve"/>
      <point x="266" y="487" type="line"/>
      <point x="280" y="488"/>
      <point x="296" y="488"/>
      <point x="303" y="488" type="curve" smooth="yes"/>
      <point x="396" y="488"/>
      <point x="436" y="446"/>
      <point x="436" y="359" type="curve" smooth="yes"/>
      <point x="436" y="273"/>
      <point x="379" y="228"/>
      <point x="288" y="228" type="curve" smooth="yes"/>
      <point x="283" y="228"/>
      <point x="272" y="228"/>
      <point x="266" y="228" type="curve"/>
    </contour>
    <component base="I"/>
  </outline>
</glyph>
<glyph name="germandbls" format="1">
  <advance width="643"/>
  <unicode hex="00DF"/>
  <outline>
    <contour>
      <point x="41" y="65" type="line"/>
      <point x="46" y="-5" type="line"/>
      <point x="46" y="-5"/>
      <point x="105" y="0"/>
      <point x="177" y="0" type="curve" smooth="yes"/>
      <point x="252" y="0" type="line"/>
      <point x="252" y="10"/>
      <point x="246" y="143"/>
      <point x="246" y="193" type="curve" smooth="yes"/>
      <point x="246" y="546" type="line" smooth="yes"/>
      <point x="246" y="633"/>
      <point x="258" y="686"/>
      <point x="338" y="686" type="curve" smooth="yes"/>
      <point x="393" y="686"/>
      <point x="440" y="664"/>
      <point x="440" y="609" type="curve" smooth="yes"/>
      <point x="440" y="494"/>
      <point x="296" y="484"/>
      <point x="296" y="349" type="curve" smooth="yes"/>
      <point x="296" y="188"/>
      <point x="493" y="210"/>
      <point x="493" y="112" type="curve" smooth="yes"/>
      <point x="493" y="84"/>
      <point x="472" y="68"/>
      <point x="447" y="68" type="curve" smooth="yes"/>
      <point x="426" y="68"/>
      <point x="401" y="79"/>
      <point x="382" y="90" type="curve"/>
      <point x="382" y="90"/>
      <point x="376" y="123"/>
      <point x="376" y="128" type="curve" smooth="yes"/>
      <point x="376" y="173" type="line"/>
      <point x="306" y="178" type="line"/>
      <point x="294" y="13" type="line"/>
      <point x="294" y="13"/>
      <point x="384" y="-10"/>
      <point x="448" y="-10" type="curve" smooth="yes"/>
      <point x="550" y="-10"/>
      <point x="616" y="49"/>
      <point x="616" y="151" type="curve" smooth="yes"/>
      <point x="616" y="315"/>
      <point x="412" y="301"/>
      <point x="412" y="375" type="curve" smooth="yes"/>
      <point x="412" y="445"/>
      <point x="553" y="472"/>
      <point x="553" y="613" type="curve" smooth="yes"/>
      <point x="553" y="733"/>
      <point x="458" y="770"/>
      <point x="338" y="770" type="curve" smooth="yes"/>
      <point x="199" y="770"/>
      <point x="107" y="718"/>
      <point x="106" y="580" type="curve" smooth="yes"/>
      <point x="106" y="501" type="line"/>
      <point x="89" y="494"/>
      <point x="70" y="490"/>
      <point x="46" y="482" type="curve"/>
      <point x="49" y="419" type="line"/>
      <point x="106" y="419" type="line"/>
      <point x="106" y="163" type="line" smooth="yes"/>
      <point x="106" y="143"/>
      <point x="99" y="93"/>
      <point x="97" y="77" type="curve"/>
    </contour>
  </outline>
</glyph>
<glyph name="ae" format="1">
  <advance width="800"/>
  <unicode hex="00E6"/>
  <outline>
    <contour>
      <point x="90" y="309" type="line"/>
      <point x="165" y="312" type="line"/>
      <point x="165" y="361" type="line"/>
      <point x="168" y="400" type="line"/>
      <point x="196" y="413"/>
      <point x="230" y="422"/>
      <point x="252" y="422" type="curve" smooth="yes"/>
      <point x="303" y="422"/>
      <point x="327" y="391"/>
      <point x="327" y="323" type="curve" smooth="yes"/>
      <point x="327" y="284" type="line"/>
      <point x="185" y="270" type="line" smooth="yes"/>
      <point x="99" y="262"/>
      <point x="53" y="214"/>
      <point x="53" y="132" type="curve" smooth="yes"/>
      <point x="53" y="47"/>
      <point x="116" y="-10"/>
      <point x="210" y="-10" type="curve" smooth="yes"/>
      <point x="285" y="-10"/>
      <point x="335" y="16"/>
      <point x="379" y="77" type="curve"/>
      <point x="419" y="15"/>
      <point x="476" y="-15"/>
      <point x="555" y="-15" type="curve" smooth="yes"/>
      <point x="633" y="-15"/>
      <point x="699" y="9"/>
      <point x="751" y="56" type="curve"/>
      <point x="716" y="114" type="line"/>
      <point x="716" y="114"/>
      <point x="668" y="81"/>
      <point x="595" y="81" type="curve" smooth="yes"/>
      <point x="510" y="81"/>
      <point x="475" y="121"/>
      <point x="469" y="224" type="curve"/>
      <point x="739" y="240" type="line"/>
      <point x="760" y="279" type="line"/>
      <point x="760" y="420"/>
      <point x="682" y="503"/>
      <point x="551" y="503" type="curve" smooth="yes"/>
      <point x="493" y="503"/>
      <point x="444" y="489"/>
      <point x="406" y="461" type="curve"/>
      <point x="370" y="489"/>
      <point x="320" y="503"/>
      <point x="258" y="503" type="curve" smooth="yes"/>
      <point x="212" y="503"/>
      <point x="142" y="493"/>
      <point x="75" y="476" type="curve"/>
    </contour>
    <contour>
      <point x="327" y="214" type="line"/>
      <point x="327" y="182" type="line" smooth="yes"/>
      <point x="327" y="124"/>
      <point x="302" y="93"/>
      <point x="255" y="93" type="curve" smooth="yes"/>
      <point x="218" y="93"/>
      <point x="201" y="111"/>
      <point x="201" y="152" type="curve" smooth="yes"/>
      <point x="201" y="188"/>
      <point x="214" y="202"/>
      <point x="253" y="207" type="curve" smooth="yes"/>
    </contour>
    <contour>
      <point x="583" y="424"/>
      <point x="603" y="388"/>
      <point x="603" y="311" type="curve" smooth="yes"/>
      <point x="602" y="303" type="line"/>
      <point x="470" y="294" type="line"/>
      <point x="473" y="380"/>
      <point x="496" y="424"/>
      <point x="540" y="424" type="curve" smooth="yes"/>
    </contour>
    <contour>
      <point x="408" y="494" type="move" name="top"/>
    </contour>
  </outline>
</glyph>
<glyph name="eth" format="1">
  <advance width="602"/>
  <unicode hex="00F0"/>
  <outline>
    <contour>
      <point x="497" y="687" type="line"/>
      <point x="465" y="744" type="line"/>
      <point x="358" y="688" type="line"/>
      <point x="315" y="724"/>
      <point x="266" y="752"/>
      <point x="211" y="770" type="curve"/>
      <point x="186" y="711" type="line"/>
      <point x="221" y="692"/>
      <point x="250" y="670"/>
      <point x="273" y="645" type="curve"/>
      <point x="178" y="595" type="line"/>
      <point x="210" y="540" type="line"/>
      <point x="314" y="593" type="line"/>
      <point x="373" y="500"/>
      <point x="386" y="385"/>
      <point x="386" y="279" type="curve" smooth="yes"/>
      <point x="386" y="172"/>
      <point x="367" y="77"/>
      <point x="292" y="77" type="curve" smooth="yes"/>
      <point x="217" y="77"/>
      <point x="205" y="161"/>
      <point x="205" y="236" type="curve" smooth="yes"/>
      <point x="205" y="311"/>
      <point x="217" y="396"/>
      <point x="292" y="396" type="curve" smooth="yes"/>
      <point x="310" y="396"/>
      <point x="324" y="392"/>
      <point x="332" y="390" type="curve"/>
      <point x="344" y="460" type="line"/>
      <point x="331" y="470"/>
      <point x="301" y="483"/>
      <point x="262" y="483" type="curve" smooth="yes"/>
      <point x="132" y="483"/>
      <point x="45" y="387"/>
      <point x="45" y="243" type="curve" smooth="yes"/>
      <point x="45" y="83"/>
      <point x="132" y="-15"/>
      <point x="292" y="-15" type="curve" smooth="yes"/>
      <point x="454" y="-15"/>
      <point x="545" y="90"/>
      <point x="545" y="252" type="curve" smooth="yes"/>
      <point x="545" y="404"/>
      <point x="496" y="542"/>
      <point x="407" y="641" type="curve"/>
    </contour>
  </outline>
</glyph>
<glyph name="oslash" format="1">
  <advance width="592"/>
  <unicode hex="00F8"/>
  <outline>
    <contour>
      <point x="449" y="598" type="line"/>
      <point x="95" y="-70" type="line"/>
      <point x="152" y="-99" type="line"/>
      <point x="508" y="569" type="line"/>
    </contour>
    <component base="o" xOffset="1"/>
    <contour>
      <point x="295" y="494" type="move" name="top"/>
    </contour>
  </outline>
</glyph>
<glyph name="thorn" format="1">
  <advance width="605"/>
  <unicode hex="00FE"/>
  <outline>
    <contour>
      <point x="-2" y="691" type="line"/>
      <point x="73" y="674" type="line"/>
      <point x="73" y="674"/>
      <point x="83" y="607"/>
      <point x="83" y="587" type="curve" smooth="yes"/>
      <point x="83" y="-66" type="line" smooth="yes"/>
      <point x="83" y="-86"/>
      <point x="73" y="-157"/>
      <point x="73" y="-157" type="curve"/>
      <point x="23" y="-169" type="line"/>
      <point x="28" y="-233" type="line"/>
      <point x="28" y="-233"/>
      <point x="81" y="-228"/>
      <point x="128" y="-228" type="curve" smooth="yes"/>
      <point x="241" y="-228"/>
      <point x="307" y="-228"/>
      <point x="307" y="-228" type="curve"/>
      <point x="312" y="-163" type="line"/>
      <point x="233" y="-157" type="line"/>
      <point x="233" y="-157"/>
      <point x="223" y="-86"/>
      <point x="223" y="-36" type="curve" smooth="yes"/>
      <point x="223" y="-5" type="line"/>
      <point x="251" y="-8"/>
      <point x="279" y="-10"/>
      <point x="304" y="-10" type="curve" smooth="yes"/>
      <point x="464" y="-10"/>
      <point x="555" y="86"/>
      <point x="555" y="254" type="curve" smooth="yes"/>
      <point x="555" y="413"/>
      <point x="487" y="503"/>
      <point x="365" y="503" type="curve" smooth="yes"/>
      <point x="302" y="503"/>
      <point x="258" y="475"/>
      <point x="223" y="433" type="curve"/>
      <point x="223" y="604" type="line"/>
      <point x="233" y="737" type="line"/>
      <point x="212" y="756" type="line"/>
      <point x="124" y="756" type="line" smooth="yes"/>
      <point x="75" y="756"/>
      <point x="7" y="765"/>
      <point x="7" y="765" type="curve"/>
    </contour>
    <contour>
      <point x="369" y="390"/>
      <point x="396" y="343"/>
      <point x="396" y="241" type="curve" smooth="yes"/>
      <point x="396" y="131"/>
      <point x="365" y="85"/>
      <point x="292" y="85" type="curve" smooth="yes"/>
      <point x="273" y="85"/>
      <point x="250" y="90"/>
      <point x="223" y="99" type="curve"/>
      <point x="223" y="260" type="line" smooth="yes"/>
      <point x="228" y="345"/>
      <point x="258" y="390"/>
      <point x="311" y="390" type="curve" smooth="yes"/>
    </contour>
  </outline>
</glyph>
<glyph name="Dcroat" format="1">
  <advance width="769"/>
  <unicode hex="0110"/>
  <outline>
    <contour>
      <point x="375" y="322" type="line"/>
      <point x="380" y="395" type="line"/>
      <point x="58" y="395" type="line"/>
      <point x="58" y="322" type="line"/>
    </contour>
    <component base="D" xOffset="11"/>
  </outline>
</glyph>
<glyph name="dcroat" format="1">
  <advance width="619"/>
  <unicode hex="0111"/>
  <outline>
    <contour>
      <point x="249" y="621" type="line"/>
      <point x="249" y="557" type="line"/>
      <point x="590" y="557" type="line"/>
      <point x="590" y="621" type="line"/>
    </contour>
    <component base="d" xOffset="1"/>
  </outline>
</glyph>
<glyph name="dotlessi" format="1">
  <advance width="353"/>
  <unicode hex="0131"/>
  <outline>
    <contour>
      <point x="328" y="71" type="line"/>
      <point x="263" y="77" type="line"/>
      <point x="263" y="77"/>
      <point x="254" y="143"/>
      <point x="254" y="193" type="curve" smooth="yes"/>
      <point x="254" y="295" type="line" smooth="yes"/>
      <point x="254" y="345"/>
      <point x="264" y="475"/>
      <point x="264" y="475" type="curve"/>
      <point x="243" y="494" type="line"/>
      <point x="155" y="494" type="line" smooth="yes"/>
      <point x="113" y="494"/>
      <point x="38" y="503"/>
      <point x="38" y="503" type="curve"/>
      <point x="29" y="429" type="line"/>
      <point x="104" y="412" type="line"/>
      <point x="104" y="412"/>
      <point x="114" y="345"/>
      <point x="114" y="325" type="curve" smooth="yes"/>
      <point x="114" y="163" type="line" smooth="yes"/>
      <point x="114" y="143"/>
      <point x="105" y="77"/>
      <point x="105" y="77" type="curve"/>
      <point x="39" y="65" type="line"/>
      <point x="44" y="-5" type="line"/>
      <point x="44" y="-5"/>
      <point x="144" y="0"/>
      <point x="164" y="0" type="curve" smooth="yes"/>
      <point x="277" y="0"/>
      <point x="304" y="0"/>
      <point x="322" y="0" type="curve"/>
    </contour>
    <contour>
      <point x="322" y="0" type="move" name="ogonek"/>
    </contour>
    <contour>
      <point x="167" y="494" type="move" name="top"/>
    </contour>
  </outline>
</glyph>
<glyph name="IJ" format="1">
  <advance width="716"/>
  <unicode hex="0132"/>
  <outline>
    <contour>
      <point x="363" y="632" type="line"/>
      <point x="280" y="623" type="line"/>
      <point x="277" y="609"/>
      <point x="271" y="562"/>
      <point x="271" y="542" type="curve" smooth="yes"/>
      <point x="271" y="193" type="line" smooth="yes"/>
      <point x="271" y="143"/>
      <point x="279" y="86"/>
      <point x="280" y="77" type="curve"/>
      <point x="345" y="71" type="line"/>
      <point x="340" y="0" type="line"/>
      <point x="340" y="0"/>
      <point x="309" y="0"/>
      <point x="196" y="0" type="curve" smooth="yes"/>
      <point x="166" y="0"/>
      <point x="46" y="-5"/>
      <point x="46" y="-5" type="curve"/>
      <point x="41" y="65" type="line"/>
      <point x="107" y="77" type="line"/>
      <point x="109" y="91"/>
      <point x="116" y="143"/>
      <point x="116" y="163" type="curve" smooth="yes"/>
      <point x="116" y="512" type="line" smooth="yes"/>
      <point x="116" y="562"/>
      <point x="110" y="604"/>
      <point x="107" y="623" type="curve"/>
      <point x="42" y="635" type="line"/>
      <point x="47" y="710" type="line"/>
      <point x="47" y="710"/>
      <point x="118" y="705"/>
      <point x="165" y="705" type="curve" smooth="yes"/>
      <point x="363" y="705" type="line"/>
    </contour>
    <contour>
      <point x="475" y="705"/>
      <point x="363" y="705"/>
      <point x="363" y="705" type="curve"/>
      <point x="363" y="632" type="line"/>
      <point x="445" y="623" type="line"/>
      <point x="448" y="608"/>
      <point x="454" y="562"/>
      <point x="454" y="512" type="curve" smooth="yes"/>
      <point x="454" y="11" type="line" smooth="yes"/>
      <point x="454" y="-9"/>
      <point x="378" y="-169"/>
      <point x="378" y="-169" type="curve"/>
      <point x="432" y="-200" type="line"/>
      <point x="528" y="-111"/>
      <point x="609" y="-23"/>
      <point x="609" y="10" type="curve" smooth="yes"/>
      <point x="609" y="542" type="line" smooth="yes"/>
      <point x="609" y="562"/>
      <point x="616" y="614"/>
      <point x="618" y="623" type="curve"/>
      <point x="684" y="629" type="line"/>
      <point x="679" y="710" type="line"/>
      <point x="679" y="710"/>
      <point x="585" y="705"/>
      <point x="505" y="705" type="curve" smooth="yes"/>
    </contour>
    <contour>
      <point x="532" y="705" type="move" name="top"/>
    </contour>
  </outline>
</glyph>
<glyph name="ij" format="1">
  <advance width="589"/>
  <unicode hex="0133"/>
  <outline>
    <contour>
      <point x="318" y="429" type="line"/>
      <point x="393" y="412" type="line"/>
      <point x="393" y="412"/>
      <point x="403" y="345"/>
      <point x="403" y="325" type="curve" smooth="yes"/>
      <point x="403" y="212" type="line" smooth="yes"/>
      <point x="396" y="136"/>
      <point x="351" y="96"/>
      <point x="305" y="96" type="curve" smooth="yes"/>
      <point x="253" y="96"/>
      <point x="231" y="136"/>
      <point x="231" y="188" type="curve" smooth="yes"/>
      <point x="231" y="295" type="line" smooth="yes"/>
      <point x="231" y="345"/>
      <point x="241" y="475"/>
      <point x="241" y="475" type="curve"/>
      <point x="220" y="494" type="line"/>
      <point x="147" y="494" type="line" smooth="yes"/>
      <point x="105" y="494"/>
      <point x="35" y="503"/>
      <point x="35" y="503" type="curve"/>
      <point x="26" y="429" type="line"/>
      <point x="81" y="415" type="line"/>
      <point x="81" y="415"/>
      <point x="91" y="345"/>
      <point x="91" y="325" type="curve" smooth="yes"/>
      <point x="91" y="174" type="line" smooth="yes"/>
      <point x="91" y="58"/>
      <point x="152" y="-4"/>
      <point x="268" y="-4" type="curve" smooth="yes"/>
      <point x="329" y="-4"/>
      <point x="373" y="24"/>
      <point x="408" y="69" type="curve"/>
      <point x="413" y="21" type="line"/>
      <point x="413" y="-19"/>
      <point x="328" y="-209"/>
      <point x="328" y="-209" type="curve"/>
      <point x="375" y="-235" type="line"/>
      <point x="375" y="-235"/>
      <point x="543" y="-50"/>
      <point x="543" y="-10" type="curve" smooth="yes"/>
      <point x="543" y="295" type="line" smooth="yes"/>
      <point x="543" y="345"/>
      <point x="553" y="475"/>
      <point x="553" y="475" type="curve"/>
      <point x="532" y="494" type="line"/>
      <point x="444" y="494" type="line" smooth="yes"/>
      <point x="402" y="494"/>
      <point x="327" y="503"/>
      <point x="327" y="503" type="curve"/>
    </contour>
    <component base="dotaccent" xOffset="-27"/>
    <component base="dotaccent" xOffset="284"/>
  </outline>
</glyph>
<glyph name="kgreenlandic" format="1">
  <advance width="640"/>
  <unicode hex="0138"/>
  <outline>
    <contour>
      <point x="382" y="422" type="line"/>
      <point x="257" y="265" type="line"/>
      <point x="346" y="110" type="line"/>
      <point x="368" y="68" type="line"/>
      <point x="372" y="60" type="line"/>
      <point x="401" y="0" type="line"/>
      <point x="499" y="0" type="line" smooth="yes"/>
      <point x="557" y="0"/>
      <point x="612" y="-1"/>
      <point x="612" y="-1" type="curve"/>
      <point x="618" y="71" type="line"/>
      <point x="558" y="77" type="line"/>
      <point x="527" y="110"/>
      <point x="486" y="151"/>
      <point x="479" y="162" type="curve" smooth="yes"/>
      <point x="404" y="280" type="line"/>
      <point x="471" y="366" type="line" smooth="yes"/>
      <point x="484" y="383"/>
      <point x="522" y="405"/>
      <point x="553" y="423" type="curve"/>
      <point x="606" y="428" type="line"/>
      <point x="601" y="494" type="line"/>
      <point x="562" y="494"/>
      <point x="550" y="494"/>
      <point x="492" y="494" type="curve" smooth="yes"/>
      <point x="422" y="494"/>
      <point x="333" y="499"/>
      <point x="333" y="499" type="curve"/>
      <point x="328" y="428" type="line"/>
    </contour>
    <component base="dotlessi"/>
  </outline>
</glyph>
<glyph name="Lslash" format="1">
  <advance width="589"/>
  <unicode hex="0141"/>
  <outline>
    <contour>
      <point x="450" y="494" type="line"/>
      <point x="38" y="344" type="line"/>
      <point x="60" y="284" type="line"/>
      <point x="472" y="434" type="line"/>
    </contour>
    <component base="L" xOffset="12"/>
  </outline>
</glyph>
<glyph name="lslash" format="1">
  <advance width="434"/>
  <unicode hex="0142"/>
  <outline>
    <contour>
      <point x="9" y="375" type="line"/>
      <point x="31" y="315" type="line"/>
      <point x="428" y="459" type="line"/>
      <point x="415" y="523" type="line"/>
    </contour>
    <component base="l" xOffset="58"/>
  </outline>
</glyph>
<glyph name="Eng" format="1">
  <advance width="810"/>
  <unicode hex="014A"/>
  <outline>
    <contour>
      <point x="703" y="0" type="line"/>
      <point x="703" y="-31"/>
      <point x="631" y="-115"/>
      <point x="546" y="-200" type="curve"/>
      <point x="492" y="-169" type="line"/>
      <point x="492" y="-169"/>
      <point x="564" y="-19"/>
      <point x="568" y="0" type="curve"/>
    </contour>
    <component base="N"/>
  </outline>
</glyph>
<glyph name="eng" format="1">
  <advance width="637"/>
  <unicode hex="014B"/>
  <outline>
    <contour>
      <point x="184" y="325" type="line"/>
      <point x="254" y="265" type="line"/>
      <point x="254" y="355"/>
      <point x="303" y="403"/>
      <point x="353" y="403" type="curve" smooth="yes"/>
      <point x="401" y="403"/>
      <point x="423" y="363"/>
      <point x="423" y="311" type="curve" smooth="yes"/>
      <point x="423" y="117" type="line" smooth="yes"/>
      <point x="423" y="67"/>
      <point x="423" y="21"/>
      <point x="423" y="21" type="curve"/>
      <point x="423" y="-19"/>
      <point x="348" y="-209"/>
      <point x="348" y="-209" type="curve"/>
      <point x="395" y="-235" type="line"/>
      <point x="395" y="-235"/>
      <point x="563" y="-50"/>
      <point x="563" y="-10" type="curve" smooth="yes"/>
      <point x="563" y="325" type="line" smooth="yes"/>
      <point x="563" y="441"/>
      <point x="505" y="503"/>
      <point x="400" y="503" type="curve" smooth="yes"/>
      <point x="324" y="503"/>
      <point x="274" y="464"/>
      <point x="234" y="406" type="curve"/>
    </contour>
    <contour>
      <point x="29" y="429" type="line"/>
      <point x="104" y="412" type="line"/>
      <point x="104" y="412"/>
      <point x="114" y="345"/>
      <point x="114" y="325" type="curve" smooth="yes"/>
      <point x="114" y="163" type="line"/>
      <point x="114" y="143"/>
      <point x="105" y="77"/>
      <point x="105" y="77" type="curve"/>
      <point x="39" y="65" type="line"/>
      <point x="44" y="-5" type="line"/>
      <point x="44" y="-5"/>
      <point x="144" y="0"/>
      <point x="164" y="0" type="curve" smooth="yes"/>
      <point x="277" y="0"/>
      <point x="323" y="0"/>
      <point x="323" y="0" type="curve"/>
      <point x="328" y="71" type="line"/>
      <point x="263" y="77" type="line"/>
      <point x="263" y="77"/>
      <point x="254" y="143"/>
      <point x="254" y="193" type="curve" smooth="yes"/>
      <point x="254" y="265" type="line"/>
      <point x="224" y="475" type="line"/>
      <point x="203" y="494" type="line"/>
      <point x="155" y="494" type="line" smooth="yes"/>
      <point x="113" y="494"/>
      <point x="38" y="503"/>
      <point x="38" y="503" type="curve"/>
    </contour>
  </outline>
</glyph>
<glyph name="tcaron" format="1">
  <advance width="358"/>
  <unicode hex="0165"/>
  <outline>
    <contour>
      <point x="365" y="756" type="line"/>
      <point x="352" y="551" type="line"/>
      <point x="274" y="555" type="line"/>
      <point x="275" y="640" type="line"/>
      <point x="274" y="655"/>
      <point x="266" y="756"/>
      <point x="266" y="756" type="curve"/>
    </contour>
    <component base="t"/>
  </outline>
</glyph>
<glyph name="florin" format="1">
  <advance width="385"/>
  <unicode hex="0192"/>
  <outline>
    <contour>
      <point x="236" y="560" type="line" smooth="yes"/>
      <point x="239" y="640"/>
      <point x="244" y="689"/>
      <point x="294" y="689" type="curve" smooth="yes"/>
      <point x="309" y="689"/>
      <point x="322" y="685"/>
      <point x="331" y="681" type="curve"/>
      <point x="335" y="637" type="line"/>
      <point x="334" y="592" type="line"/>
      <point x="409" y="589" type="line"/>
      <point x="424" y="756" type="line"/>
      <point x="424" y="756"/>
      <point x="346" y="770"/>
      <point x="277" y="770" type="curve" smooth="yes"/>
      <point x="167" y="770"/>
      <point x="102" y="703"/>
      <point x="98" y="597" type="curve" smooth="yes"/>
      <point x="94" y="502" type="line"/>
      <point x="76" y="494"/>
      <point x="56" y="490"/>
      <point x="32" y="482" type="curve"/>
      <point x="35" y="419" type="line"/>
      <point x="91" y="419" type="line"/>
      <point x="76" y="10" type="line"/>
      <point x="74" y="-65"/>
      <point x="69" y="-116"/>
      <point x="7" y="-116" type="curve"/>
      <point x="5" y="-194" type="line"/>
      <point x="138" y="-194"/>
      <point x="211" y="-126"/>
      <point x="216" y="-21" type="curve"/>
      <point x="231" y="419" type="line"/>
      <point x="344" y="419" type="line"/>
      <point x="353" y="494" type="line"/>
      <point x="233" y="494" type="line"/>
    </contour>
  </outline>
</glyph>
<glyph name="Ohorn" format="1">
  <advance width="866"/>
  <unicode hex="01A0"/>
  <outline>
    <component base="O"/>
    <component base="horncomb" xOffset="633" yOffset="30"/>
    <contour>
      <point x="406" y="0" type="move" name="bottom"/>
    </contour>
  </outline>
</glyph>
<glyph name="Uhorn" format="1">
  <advance width="862"/>
  <unicode hex="01AF"/>
  <outline>
    <component base="U"/>
    <component base="horncomb" xOffset="624" yOffset="-54"/>
    <contour>
      <point x="387" y="0" type="move" name="bottom"/>
    </contour>
  </outline>
</glyph>
<glyph name="uhorn" format="1">
  <advance width="711"/>
  <unicode hex="01B0"/>
  <outline>
    <component base="u"/>
    <component base="horncomb" xOffset="483" yOffset="-163"/>
    <contour>
      <point x="300" y="0" type="move" name="bottom"/>
    </contour>
  </outline>
</glyph>
<glyph name="dotlessj" format="1">
  <advance width="309"/>
  <unicode hex="0237"/>
  <outline>
    <contour>
      <point x="14" y="429" type="line"/>
      <point x="89" y="412" type="line"/>
      <point x="89" y="412"/>
      <point x="99" y="345"/>
      <point x="99" y="325" type="curve" smooth="yes"/>
      <point x="99" y="117" type="line" smooth="yes"/>
      <point x="99" y="67"/>
      <point x="99" y="21"/>
      <point x="99" y="21" type="curve"/>
      <point x="99" y="-19"/>
      <point x="24" y="-209"/>
      <point x="24" y="-209" type="curve"/>
      <point x="71" y="-235" type="line"/>
      <point x="71" y="-235"/>
      <point x="239" y="-50"/>
      <point x="239" y="-10" type="curve" smooth="yes"/>
      <point x="239" y="295" type="line" smooth="yes"/>
      <point x="239" y="345"/>
      <point x="249" y="477"/>
      <point x="249" y="477" type="curve"/>
      <point x="228" y="496" type="line"/>
      <point x="140" y="494" type="line" smooth="yes"/>
      <point x="98" y="494"/>
      <point x="23" y="503"/>
      <point x="23" y="503" type="curve"/>
    </contour>
    <contour>
      <point x="135" y="494" type="move" name="top"/>
    </contour>
  </outline>
</glyph>
<glyph name="circumflex" format="1">
  <advance width="360"/>
  <unicode hex="02C6"/>
  <outline>
    <contour>
      <point x="137" y="730" type="line"/>
      <point x="-6" y="606" type="line"/>
      <point x="34" y="560" type="line"/>
      <point x="212" y="680" type="line"/>
      <point x="195" y="730" type="line"/>
    </contour>
    <contour>
      <point x="148" y="680" type="line"/>
      <point x="326" y="560" type="line"/>
      <point x="366" y="606" type="line"/>
      <point x="223" y="730" type="line"/>
      <point x="165" y="730" type="line"/>
    </contour>
    <contour>
      <point x="180" y="494" type="move" name="_top"/>
    </contour>
  </outline>
</glyph>
<glyph name="caron" format="1">
  <advance width="360"/>
  <unicode hex="02C7"/>
  <outline>
    <contour>
      <point x="194" y="565" type="line"/>
      <point x="228" y="616" type="line"/>
      <point x="34" y="745" type="line"/>
      <point x="-8" y="697" type="line"/>
      <point x="130" y="565" type="line"/>
    </contour>
    <contour>
      <point x="230" y="565" type="line"/>
      <point x="368" y="697" type="line"/>
      <point x="326" y="745" type="line"/>
      <point x="132" y="616" type="line"/>
      <point x="166" y="565" type="line"/>
    </contour>
    <contour>
      <point x="180" y="494" type="move" name="_top"/>
    </contour>
  </outline>
</glyph>
<glyph name="breve" format="1">
  <advance width="366"/>
  <unicode hex="02D8"/>
  <outline>
    <contour>
      <point x="89" y="666"/>
      <point x="136" y="642"/>
      <point x="183" y="642" type="curve" smooth="yes"/>
      <point x="230" y="642"/>
      <point x="278" y="666"/>
      <point x="295" y="715" type="curve"/>
      <point x="346" y="695" type="line"/>
      <point x="324" y="605"/>
      <point x="253" y="560"/>
      <point x="183" y="560" type="curve" smooth="yes"/>
      <point x="113" y="560"/>
      <point x="43" y="605"/>
      <point x="20" y="695" type="curve"/>
      <point x="71" y="715" type="line"/>
    </contour>
    <contour>
      <point x="183" y="494" type="move" name="_top"/>
    </contour>
  </outline>
</glyph>
<glyph name="dotaccent" format="1">
  <advance width="360"/>
  <unicode hex="02D9"/>
  <outline>
    <contour>
      <point x="131" y="728"/>
      <point x="104" y="696"/>
      <point x="104" y="651" type="curve" smooth="yes"/>
      <point x="104" y="606"/>
      <point x="131" y="575"/>
      <point x="180" y="575" type="curve" smooth="yes"/>
      <point x="229" y="575"/>
      <point x="256" y="606"/>
      <point x="256" y="651" type="curve" smooth="yes"/>
      <point x="256" y="699"/>
      <point x="227" y="728"/>
      <point x="180" y="728" type="curve" smooth="yes"/>
    </contour>
    <contour>
      <point x="180" y="654" type="move" name="_middle"/>
    </contour>
    <contour>
      <point x="180" y="494" type="move" name="_top"/>
    </contour>
  </outline>
</glyph>
<glyph name="ring" format="1">
  <advance width="360"/>
  <unicode hex="02DA"/>
  <outline>
    <contour>
      <point x="120" y="723"/>
      <point x="80" y="687"/>
      <point x="80" y="627" type="curve" smooth="yes"/>
      <point x="80" y="567"/>
      <point x="120" y="532"/>
      <point x="180" y="532" type="curve" smooth="yes"/>
      <point x="240" y="532"/>
      <point x="279" y="567"/>
      <point x="279" y="627" type="curve" smooth="yes"/>
      <point x="279" y="687"/>
      <point x="240" y="723"/>
      <point x="180" y="723" type="curve" smooth="yes"/>
    </contour>
    <contour>
      <point x="203" y="665"/>
      <point x="212" y="649"/>
      <point x="212" y="627" type="curve" smooth="yes"/>
      <point x="212" y="606"/>
      <point x="203" y="590"/>
      <point x="180" y="590" type="curve" smooth="yes"/>
      <point x="158" y="590"/>
      <point x="149" y="606"/>
      <point x="149" y="627" type="curve" smooth="yes"/>
      <point x="149" y="649"/>
      <point x="158" y="665"/>
      <point x="180" y="665" type="curve" smooth="yes"/>
    </contour>
    <contour>
      <point x="180" y="494" type="move" name="_top"/>
    </contour>
  </outline>
</glyph>
<glyph name="ogonek" format="1">
  <advance width="360"/>
  <unicode hex="02DB"/>
  <outline>
    <contour>
      <point x="145" y="-10"/>
      <point x="85" y="-68"/>
      <point x="85" y="-134" type="curve" smooth="yes"/>
      <point x="85" y="-194"/>
      <point x="130" y="-223"/>
      <point x="194" y="-223" type="curve" smooth="yes"/>
      <point x="235" y="-223"/>
      <point x="271" y="-209"/>
      <point x="289" y="-200" type="curve"/>
      <point x="271" y="-152" type="line"/>
      <point x="260" y="-156"/>
      <point x="249" y="-159"/>
      <point x="239" y="-159" type="curve" smooth="yes"/>
      <point x="214" y="-159"/>
      <point x="195" y="-144"/>
      <point x="195" y="-111" type="curve" smooth="yes"/>
      <point x="195" y="-76"/>
      <point x="231" y="-34"/>
      <point x="307" y="0" type="curve"/>
      <point x="229" y="20" type="line"/>
    </contour>
    <contour>
      <point x="307" y="0" type="move" name="_ogonek"/>
    </contour>
  </outline>
</glyph>
<glyph name="tilde" format="1">
  <advance width="388"/>
  <unicode hex="02DC"/>
  <outline>
    <contour>
      <point x="329" y="693" type="line"/>
      <point x="329" y="693"/>
      <point x="308" y="655"/>
      <point x="284" y="655" type="curve" smooth="yes"/>
      <point x="242" y="655"/>
      <point x="161" y="693"/>
      <point x="119" y="693" type="curve" smooth="yes"/>
      <point x="76" y="693"/>
      <point x="30" y="588"/>
      <point x="30" y="588" type="curve"/>
      <point x="77" y="560" type="line"/>
      <point x="77" y="560"/>
      <point x="102" y="602"/>
      <point x="126" y="602" type="curve" smooth="yes"/>
      <point x="169" y="602"/>
      <point x="248" y="564"/>
      <point x="291" y="564" type="curve" smooth="yes"/>
      <point x="334" y="564"/>
      <point x="371" y="650"/>
      <point x="378" y="665" type="curve"/>
    </contour>
    <contour>
      <point x="199" y="494" type="move" name="_top"/>
    </contour>
  </outline>
</glyph>
<glyph name="hungarumlaut" format="1">
  <advance width="360"/>
  <unicode hex="02DD"/>
  <outline>
    <contour>
      <point x="172" y="760" type="line"/>
      <point x="-21" y="617" type="line"/>
      <point x="22" y="565" type="line"/>
      <point x="220" y="693" type="line"/>
    </contour>
    <contour>
      <point x="372" y="760" type="line"/>
      <point x="179" y="617" type="line"/>
      <point x="222" y="565" type="line"/>
      <point x="420" y="693" type="line"/>
    </contour>
    <contour>
      <point x="160" y="494" type="move" name="_top"/>
    </contour>
  </outline>
</glyph>
<glyph name="circumflexcomb" format="1">
  <advance width="347"/>
  <unicode hex="0302"/>
  <outline>
    <contour>
      <point x="10" y="579" type="line"/>
      <point x="47" y="536" type="line"/>
      <point x="213" y="620" type="line"/>
      <point x="194" y="661" type="line"/>
      <point x="132" y="661" type="line"/>
    </contour>
    <contour>
      <point x="153" y="661" type="line"/>
      <point x="134" y="620" type="line"/>
      <point x="300" y="536" type="line"/>
      <point x="337" y="579" type="line"/>
      <point x="215" y="661" type="line"/>
    </contour>
  </outline>
</glyph>
<glyph name="tildecomb" format="1">
  <advance width="360"/>
  <unicode hex="0303"/>
  <outline>
    <contour>
      <point x="289" y="704" type="line"/>
      <point x="289" y="704"/>
      <point x="258" y="681"/>
      <point x="236" y="681" type="curve" smooth="yes"/>
      <point x="204" y="679"/>
      <point x="145" y="714"/>
      <point x="111" y="714" type="curve" smooth="yes"/>
      <point x="75" y="714"/>
      <point x="33" y="648"/>
      <point x="33" y="648" type="curve"/>
      <point x="64" y="623" type="line"/>
      <point x="64" y="623"/>
      <point x="97" y="649"/>
      <point x="119" y="649" type="curve" smooth="yes"/>
      <point x="153" y="651"/>
      <point x="210" y="618"/>
      <point x="244" y="616" type="curve" smooth="yes"/>
      <point x="279" y="616"/>
      <point x="318" y="678"/>
      <point x="318" y="678" type="curve"/>
    </contour>
  </outline>
</glyph>
<glyph name="brevecomb" format="1">
  <advance width="348"/>
  <unicode hex="0306"/>
  <outline>
    <contour>
      <point x="81" y="653"/>
      <point x="127" y="631"/>
      <point x="174" y="631" type="curve" smooth="yes"/>
      <point x="221" y="631"/>
      <point x="268" y="653"/>
      <point x="286" y="698" type="curve"/>
      <point x="337" y="678" type="line"/>
      <point x="315" y="599"/>
      <point x="244" y="560"/>
      <point x="174" y="560" type="curve" smooth="yes"/>
      <point x="104" y="560"/>
      <point x="34" y="599"/>
      <point x="11" y="678" type="curve"/>
      <point x="62" y="698" type="line"/>
    </contour>
  </outline>
</glyph>
<glyph name="dieresiscomb" format="1">
  <advance width="356"/>
  <unicode hex="0308"/>
  <outline>
    <contour>
      <point x="25" y="657"/>
      <point x="2" y="631"/>
      <point x="2" y="596" type="curve" smooth="yes"/>
      <point x="2" y="561"/>
      <point x="25" y="536"/>
      <point x="68" y="536" type="curve" smooth="yes"/>
      <point x="110" y="536"/>
      <point x="133" y="561"/>
      <point x="133" y="596" type="curve" smooth="yes"/>
      <point x="133" y="633"/>
      <point x="109" y="657"/>
      <point x="68" y="657" type="curve" smooth="yes"/>
    </contour>
    <contour>
      <point x="244" y="657"/>
      <point x="222" y="631"/>
      <point x="222" y="596" type="curve" smooth="yes"/>
      <point x="222" y="561"/>
      <point x="244" y="536"/>
      <point x="287" y="536" type="curve" smooth="yes"/>
      <point x="330" y="536"/>
      <point x="352" y="561"/>
      <point x="352" y="596" type="curve" smooth="yes"/>
      <point x="352" y="633"/>
      <point x="328" y="657"/>
      <point x="287" y="657" type="curve" smooth="yes"/>
    </contour>
  </outline>
</glyph>
<glyph name="hookabovecomb" format="1">
  <advance width="360"/>
  <unicode hex="0309"/>
  <outline>
    <contour>
      <point x="133" y="756"/>
      <point x="108" y="744"/>
      <point x="95" y="739" type="curve"/>
      <point x="112" y="689" type="line"/>
      <point x="123" y="694"/>
      <point x="133" y="699"/>
      <point x="150" y="699" type="curve" smooth="yes"/>
      <point x="166" y="699"/>
      <point x="181" y="692"/>
      <point x="181" y="673" type="curve" smooth="yes"/>
      <point x="181" y="640"/>
      <point x="127" y="642"/>
      <point x="127" y="600" type="curve" smooth="yes"/>
      <point x="127" y="572"/>
      <point x="147" y="560"/>
      <point x="176" y="560" type="curve" smooth="yes"/>
      <point x="187" y="560"/>
      <point x="199" y="562"/>
      <point x="204" y="567" type="curve"/>
      <point x="204" y="567"/>
      <point x="198" y="582"/>
      <point x="198" y="594" type="curve" smooth="yes"/>
      <point x="198" y="618"/>
      <point x="266" y="625"/>
      <point x="266" y="678" type="curve" smooth="yes"/>
      <point x="266" y="730"/>
      <point x="218" y="756"/>
      <point x="169" y="756" type="curve" smooth="yes"/>
    </contour>
    <contour>
      <point x="182" y="494" type="move" name="_top"/>
    </contour>
  </outline>
</glyph>
<glyph name="dotbelowcomb" format="1">
  <advance width="352"/>
  <unicode hex="0323"/>
  <outline>
    <component base="dotaccent" xOffset="-4" yOffset="-778"/>
    <contour>
      <point x="176" y="0" type="move" name="_bottom"/>
    </contour>
  </outline>
</glyph>
<glyph name="commaaccent" format="1">
  <advance width="200"/>
  <unicode hex="0326"/>
  <outline>
    <contour>
      <point x="30" y="-70"/>
      <point x="63" y="-50"/>
      <point x="94" y="-50" type="curve" smooth="yes"/>
      <point x="136" y="-50"/>
      <point x="160" y="-76"/>
      <point x="160" y="-124" type="curve" smooth="yes"/>
      <point x="160" y="-181"/>
      <point x="99" y="-264"/>
      <point x="99" y="-264" type="curve"/>
      <point x="99" y="-264"/>
      <point x="53" y="-252"/>
      <point x="53" y="-252" type="curve"/>
      <point x="53" y="-252"/>
      <point x="71" y="-197"/>
      <point x="71" y="-170" type="curve"/>
      <point x="59" y="-166"/>
      <point x="30" y="-151"/>
      <point x="30" y="-116" type="curve" smooth="yes"/>
    </contour>
    <contour>
      <point x="88" y="0" type="move" name="_bottom"/>
    </contour>
  </outline>
</glyph>
<glyph name="Delta" format="1">
  <advance width="676"/>
  <unicode hex="0394"/>
  <outline>
    <contour>
      <point x="633" y="0" type="line"/>
      <point x="655" y="69" type="line"/>
      <point x="619" y="88" type="line"/>
      <point x="525" y="86"/>
      <point x="277" y="80"/>
      <point x="254" y="80" type="curve" smooth="yes"/>
      <point x="201" y="80"/>
      <point x="109" y="83"/>
      <point x="57" y="85" type="curve"/>
      <point x="19" y="66" type="line"/>
      <point x="46" y="0" type="line"/>
    </contour>
    <contour>
      <point x="283" y="705" type="line"/>
      <point x="262" y="626" type="line"/>
      <point x="441" y="175" type="line" smooth="yes"/>
      <point x="450" y="151"/>
      <point x="468" y="55"/>
      <point x="468" y="55" type="curve"/>
      <point x="655" y="69" type="line"/>
      <point x="655" y="69"/>
      <point x="614" y="149"/>
      <point x="605" y="174" type="curve" smooth="yes"/>
      <point x="597" y="196"/>
      <point x="387" y="716"/>
      <point x="387" y="716" type="curve"/>
    </contour>
    <contour>
      <point x="170" y="53" type="line"/>
      <point x="170" y="53"/>
      <point x="187" y="133"/>
      <point x="193" y="159" type="curve"/>
      <point x="368" y="633" type="line"/>
      <point x="283" y="705" type="line"/>
      <point x="88" y="205" type="line"/>
      <point x="19" y="66" type="line"/>
    </contour>
  </outline>
</glyph>
<glyph name="Omega" format="1">
  <advance width="894"/>
  <unicode hex="03A9"/>
  <outline>
    <contour>
      <point x="393" y="128" type="line"/>
      <point x="315" y="158"/>
      <point x="285" y="259"/>
      <point x="285" y="381" type="curve" smooth="yes"/>
      <point x="285" y="519"/>
      <point x="343" y="623"/>
      <point x="447" y="623" type="curve" smooth="yes"/>
      <point x="551" y="623"/>
      <point x="609" y="519"/>
      <point x="609" y="381" type="curve" smooth="yes"/>
      <point x="609" y="259"/>
      <point x="579" y="158"/>
      <point x="501" y="128" type="curve"/>
      <point x="514" y="0" type="line"/>
      <point x="712" y="0" type="line" smooth="yes"/>
      <point x="732" y="0"/>
      <point x="826" y="-4"/>
      <point x="826" y="-4" type="curve"/>
      <point x="845" y="14" type="line"/>
      <point x="860" y="190" type="line"/>
      <point x="790" y="195" type="line"/>
      <point x="788" y="179"/>
      <point x="782" y="153"/>
      <point x="778" y="138" type="curve" smooth="yes"/>
      <point x="777" y="132"/>
      <point x="770" y="115"/>
      <point x="763" y="96" type="curve"/>
      <point x="744" y="92"/>
      <point x="713" y="87"/>
      <point x="682" y="85" type="curve"/>
      <point x="596" y="82" type="line"/>
      <point x="722" y="130"/>
      <point x="789" y="245"/>
      <point x="789" y="381" type="curve" smooth="yes"/>
      <point x="789" y="581"/>
      <point x="666" y="720"/>
      <point x="447" y="720" type="curve" smooth="yes"/>
      <point x="228" y="720"/>
      <point x="105" y="581"/>
      <point x="105" y="381" type="curve" smooth="yes"/>
      <point x="105" y="245"/>
      <point x="172" y="130"/>
      <point x="298" y="82" type="curve"/>
      <point x="212" y="85" type="line"/>
      <point x="180" y="87"/>
      <point x="150" y="92"/>
      <point x="131" y="96" type="curve"/>
      <point x="123" y="114"/>
      <point x="117" y="132"/>
      <point x="116" y="138" type="curve" smooth="yes"/>
      <point x="112" y="153"/>
      <point x="106" y="179"/>
      <point x="104" y="195" type="curve"/>
      <point x="34" y="190" type="line"/>
      <point x="49" y="14" type="line"/>
      <point x="68" y="-4" type="line"/>
      <point x="68" y="-4"/>
      <point x="162" y="0"/>
      <point x="182" y="0" type="curve" smooth="yes"/>
      <point x="380" y="0" type="line"/>
    </contour>
  </outline>
</glyph>
<glyph name="pi" format="1">
  <advance width="692"/>
  <unicode hex="03C0"/>
  <outline>
    <contour>
      <point x="581" y="-15" type="line"/>
      <point x="518" y="-7"/>
      <point x="396" y="-1"/>
      <point x="396" y="85" type="curve" smooth="yes"/>
      <point x="396" y="135"/>
      <point x="402" y="448"/>
      <point x="402" y="448" type="curve"/>
      <point x="538" y="448" type="line"/>
      <point x="537" y="167" type="line"/>
      <point x="537" y="80"/>
      <point x="540" y="85"/>
      <point x="600" y="55" type="curve"/>
    </contour>
    <contour>
      <point x="285" y="448" type="line"/>
      <point x="285" y="167" type="line" smooth="yes"/>
      <point x="285" y="150"/>
      <point x="288" y="25"/>
      <point x="288" y="0" type="curve"/>
      <point x="245" y="0" type="line"/>
      <point x="220" y="0"/>
      <point x="151" y="-2"/>
      <point x="151" y="-2" type="curve"/>
      <point x="130" y="17" type="line"/>
      <point x="130" y="17"/>
      <point x="144" y="117"/>
      <point x="145" y="137" type="curve" smooth="yes"/>
      <point x="148" y="197"/>
      <point x="151" y="448"/>
      <point x="151" y="448" type="curve"/>
    </contour>
    <contour>
      <point x="116" y="396"/>
      <point x="69" y="347"/>
      <point x="69" y="347" type="curve"/>
      <point x="12" y="400" type="line"/>
      <point x="12" y="400"/>
      <point x="98" y="514"/>
      <point x="138" y="514" type="curve" smooth="yes"/>
      <point x="208" y="514"/>
      <point x="476" y="497"/>
      <point x="530" y="497" type="curve" smooth="yes"/>
      <point x="555" y="497"/>
      <point x="600" y="546"/>
      <point x="600" y="546" type="curve"/>
      <point x="657" y="493" type="line"/>
      <point x="657" y="493"/>
      <point x="571" y="379"/>
      <point x="531" y="379" type="curve" smooth="yes"/>
      <point x="467" y="379"/>
      <point x="194" y="396"/>
      <point x="141" y="396" type="curve" smooth="yes"/>
    </contour>
  </outline>
</glyph>
<glyph name="invertedCandraBindu-deva" format="1">
  <advance width="423"/>
  <unicode hex="0900"/>
  <outline>
    <component base="eCandraMatra-deva" xOffset="404" yOffset="1521" xScale="-0.909" yScale="-0.909"/>
    <component base="anusvara-deva" xOffset="155" yOffset="62" xScale="0.909" yScale="0.909"/>
    <contour>
      <point x="223" y="641" type="move" name="_top"/>
    </contour>
  </outline>
</glyph>
<glyph name="candraBindu-deva" format="1">
  <advance width="423"/>
  <unicode hex="0901"/>
  <outline>
    <component base="eCandraMatra-deva" xOffset="20" yOffset="73" xScale="0.909" yScale="0.909"/>
    <component base="anusvara-deva" xOffset="120" yOffset="181" xScale="0.909" yScale="0.909"/>
    <contour>
      <point x="200" y="641" type="move" name="_top"/>
    </contour>
  </outline>
</glyph>
<glyph name="anusvara-deva" format="1">
  <advance width="162"/>
  <unicode hex="0902"/>
  <outline>
    <component base="nukta-deva" xOffset="10" yOffset="860"/>
    <contour>
      <point x="81" y="641" type="move" name="_top"/>
    </contour>
  </outline>
</glyph>
<glyph name="visarga-deva" format="1">
  <advance width="206"/>
  <unicode hex="0903"/>
  <outline>
    <contour>
      <point x="59" y="475"/>
      <point x="34" y="431"/>
      <point x="34" y="420" type="curve" smooth="yes"/>
      <point x="34" y="368"/>
      <point x="81" y="337"/>
      <point x="93" y="337" type="curve" smooth="yes"/>
      <point x="145" y="337"/>
      <point x="172" y="380"/>
      <point x="172" y="391" type="curve" smooth="yes"/>
      <point x="172" y="443"/>
      <point x="124" y="475"/>
      <point x="112" y="475" type="curve" smooth="yes"/>
    </contour>
    <contour>
      <point x="59" y="178"/>
      <point x="34" y="134"/>
      <point x="34" y="123" type="curve" smooth="yes"/>
      <point x="34" y="71"/>
      <point x="81" y="40"/>
      <point x="93" y="40" type="curve" smooth="yes"/>
      <point x="145" y="40"/>
      <point x="172" y="83"/>
      <point x="172" y="94" type="curve" smooth="yes"/>
      <point x="172" y="146"/>
      <point x="124" y="178"/>
      <point x="112" y="178" type="curve" smooth="yes"/>
    </contour>
  </outline>
</glyph>
<glyph name="aShort-deva" format="1">
  <advance width="823"/>
  <unicode hex="0904"/>
  <outline>
    <component base="a-deva"/>
    <component base="eShortMatra-deva" xOffset="229"/>
    <contour>
      <point x="796" y="705" type="move" name="top"/>
    </contour>
    <contour>
      <point x="682" y="0" type="move" name="bottom"/>
    </contour>
  </outline>
</glyph>
<glyph name="a-deva" format="1">
  <advance width="823"/>
  <unicode hex="0905"/>
  <outline>
    <contour>
      <point x="263" y="311" type="line"/>
      <point x="337" y="299"/>
      <point x="369" y="262"/>
      <point x="369" y="223" type="curve" smooth="yes"/>
      <point x="369" y="158"/>
      <point x="321" y="121"/>
      <point x="255" y="121" type="curve" smooth="yes"/>
      <point x="200" y="121"/>
      <point x="132" y="148"/>
      <point x="70" y="208" type="curve"/>
      <point x="25" y="159" type="line"/>
      <point x="98" y="73"/>
      <point x="193" y="30"/>
      <point x="288" y="30" type="curve" smooth="yes"/>
      <point x="398" y="30"/>
      <point x="493" y="92"/>
      <point x="493" y="202" type="curve" smooth="yes"/>
      <point x="493" y="286"/>
      <point x="396" y="341"/>
      <point x="288" y="381" type="curve"/>
    </contour>
    <contour>
      <point x="192" y="646"/>
      <point x="132" y="631"/>
      <point x="68" y="602" type="curve"/>
      <point x="102" y="502" type="line"/>
      <point x="141" y="484" type="line"/>
      <point x="191" y="527"/>
      <point x="246" y="550"/>
      <point x="294" y="550" type="curve" smooth="yes"/>
      <point x="329" y="550"/>
      <point x="351" y="537"/>
      <point x="351" y="502" type="curve" smooth="yes"/>
      <point x="351" y="455"/>
      <point x="304" y="415"/>
      <point x="173" y="397" type="curve"/>
      <point x="158" y="357" type="line"/>
      <point x="187" y="273" type="line"/>
      <point x="382" y="304"/>
      <point x="458" y="373"/>
      <point x="458" y="476" type="curve" smooth="yes"/>
      <point x="458" y="579"/>
      <point x="374" y="646"/>
      <point x="247" y="646" type="curve" smooth="yes"/>
    </contour>
    <contour>
      <point x="396" y="268" type="line"/>
      <point x="453" y="236"/>
      <point x="510" y="216"/>
      <point x="563" y="216" type="curve" smooth="yes"/>
      <point x="612" y="216"/>
      <point x="660" y="237"/>
      <point x="708" y="289" type="curve"/>
      <point x="688" y="396" type="line"/>
      <point x="645" y="340"/>
      <point x="592" y="314"/>
      <point x="530" y="314" type="curve" smooth="yes"/>
      <point x="485" y="314"/>
      <point x="433" y="325"/>
      <point x="369" y="346" type="curve"/>
    </contour>
    <component base="aaMatra-deva" xOffset="526"/>
    <contour>
      <point x="69" y="-15" type="move" name="nukta"/>
    </contour>
    <contour>
      <point x="682" y="0" type="move" name="bottom"/>
    </contour>
    <contour>
      <point x="682" y="641" type="move" name="top"/>
    </contour>
  </outline>
</glyph>
<glyph name="i-deva" format="1">
  <advance width="562"/>
  <unicode hex="0907"/>
  <outline>
    <contour>
      <point x="215" y="58" type="line"/>
      <point x="215" y="27" type="line"/>
      <point x="293" y="-68"/>
      <point x="362" y="-146"/>
      <point x="442" y="-186" type="curve"/>
      <point x="514" y="-83" type="line"/>
      <point x="379" y="-27"/>
      <point x="315" y="20"/>
      <point x="204" y="132" type="curve"/>
      <point x="191" y="136"/>
      <point x="165" y="141"/>
      <point x="148" y="141" type="curve" smooth="yes"/>
      <point x="120" y="141"/>
      <point x="95" y="133"/>
      <point x="75" y="119" type="curve"/>
      <point x="54" y="88" type="line"/>
      <point x="63" y="8"/>
      <point x="218" y="-24"/>
      <point x="313" y="-24" type="curve"/>
    </contour>
    <contour>
      <point x="-15" y="641" type="line"/>
      <point x="-25" y="611" type="line"/>
      <point x="0" y="536" type="line"/>
      <point x="577" y="536" type="line"/>
      <point x="587" y="566" type="line"/>
      <point x="562" y="641" type="line"/>
    </contour>
    <contour>
      <point x="327" y="562" type="line" smooth="yes"/>
      <point x="327" y="465" type="line" smooth="yes"/>
      <point x="441" y="465" type="line"/>
      <point x="441" y="562" type="line"/>
    </contour>
    <contour>
      <point x="214" y="470" type="line" smooth="yes"/>
      <point x="95" y="470"/>
      <point x="45" y="438"/>
      <point x="45" y="344" type="curve" smooth="yes"/>
      <point x="45" y="244"/>
      <point x="151" y="167"/>
      <point x="251" y="167" type="curve" smooth="yes"/>
      <point x="291" y="167"/>
      <point x="354" y="199"/>
      <point x="394" y="199" type="curve" smooth="yes"/>
      <point x="409" y="199"/>
      <point x="418" y="184"/>
      <point x="418" y="169" type="curve" smooth="yes"/>
      <point x="418" y="104"/>
      <point x="340" y="64"/>
      <point x="254" y="64" type="curve"/>
      <point x="323" y="-24" type="line"/>
      <point x="484" y="-24"/>
      <point x="522" y="70"/>
      <point x="522" y="150" type="curve" smooth="yes"/>
      <point x="522" y="248"/>
      <point x="423" y="304"/>
      <point x="373" y="304" type="curve" smooth="yes"/>
      <point x="331" y="304"/>
      <point x="236" y="271"/>
      <point x="199" y="271" type="curve" smooth="yes"/>
      <point x="180" y="271"/>
      <point x="160" y="296"/>
      <point x="160" y="319" type="curve" smooth="yes"/>
      <point x="160" y="347"/>
      <point x="186" y="360"/>
      <point x="214" y="360" type="curve" smooth="yes"/>
      <point x="411" y="360" type="line"/>
      <point x="441" y="392" type="line"/>
      <point x="441" y="470" type="line"/>
    </contour>
    <contour>
      <point x="384" y="641" type="move" name="top"/>
    </contour>
  </outline>
</glyph>
<glyph name="ii-deva" format="1">
  <advance width="562"/>
  <unicode hex="0908"/>
  <outline>
    <component base="i-deva"/>
    <component base="reph-deva" xOffset="238"/>
    <contour>
      <point x="384" y="640" type="move" name="top"/>
    </contour>
    <contour>
      <point x="220" y="0" type="move" name="bottom"/>
    </contour>
  </outline>
</glyph>
<glyph name="uu-deva" format="1">
  <advance width="778"/>
  <unicode hex="090A"/>
  <outline>
    <contour>
      <point x="487" y="364"/>
      <point x="428" y="350"/>
      <point x="362" y="301" type="curve"/>
      <point x="446" y="202" type="line"/>
      <point x="484" y="246"/>
      <point x="528" y="275"/>
      <point x="564" y="275" type="curve" smooth="yes"/>
      <point x="609" y="275"/>
      <point x="629" y="249"/>
      <point x="629" y="216" type="curve" smooth="yes"/>
      <point x="629" y="184"/>
      <point x="607" y="146"/>
      <point x="570" y="119" type="curve"/>
      <point x="570" y="79" type="line"/>
      <point x="648" y="18" type="line"/>
      <point x="699" y="71"/>
      <point x="722" y="135"/>
      <point x="722" y="193" type="curve" smooth="yes"/>
      <point x="722" y="298"/>
      <point x="648" y="364"/>
      <point x="533" y="364" type="curve" smooth="yes"/>
    </contour>
    <contour>
      <point x="476" y="641" type="line"/>
      <point x="466" y="611" type="line"/>
      <point x="491" y="536" type="line"/>
      <point x="798" y="536" type="line"/>
      <point x="808" y="566" type="line"/>
      <point x="783" y="641" type="line"/>
    </contour>
    <component base="u-deva"/>
    <contour>
      <point x="332" y="641" type="move" name="top"/>
    </contour>
    <contour>
      <point x="288" y="60" type="move" name="bottom"/>
    </contour>
  </outline>
</glyph>
<glyph name="rVocalic-deva" format="1">
  <advance width="886"/>
  <unicode hex="090B"/>
  <outline>
    <contour>
      <point x="515" y="611" type="line"/>
      <point x="540" y="536" type="line"/>
      <point x="901" y="536" type="line"/>
      <point x="911" y="566" type="line"/>
      <point x="886" y="641" type="line"/>
      <point x="525" y="641" type="line"/>
    </contour>
    <contour>
      <point x="429" y="191" type="line"/>
      <point x="552" y="210"/>
      <point x="730" y="276"/>
      <point x="797" y="368" type="curve"/>
      <point x="664" y="416" type="line"/>
      <point x="609" y="339"/>
      <point x="516" y="297"/>
      <point x="411" y="284" type="curve"/>
    </contour>
    <contour>
      <point x="642" y="243"/>
      <point x="666" y="194"/>
      <point x="698" y="156" type="curve"/>
      <point x="809" y="157" type="line"/>
      <point x="809" y="196" type="line"/>
      <point x="771" y="226"/>
      <point x="737" y="263"/>
      <point x="711" y="318" type="curve"/>
      <point x="623" y="287" type="line"/>
    </contour>
    <contour>
      <point x="746" y="238" type="line"/>
      <point x="665" y="231"/>
      <point x="612" y="186"/>
      <point x="612" y="126" type="curve" smooth="yes"/>
      <point x="612" y="46"/>
      <point x="689" y="-2"/>
      <point x="764" y="-2" type="curve" smooth="yes"/>
      <point x="814" y="-2"/>
      <point x="854" y="16"/>
      <point x="887" y="54" type="curve"/>
      <point x="836" y="116" type="line"/>
      <point x="806" y="81"/>
      <point x="779" y="66"/>
      <point x="750" y="66" type="curve" smooth="yes"/>
      <point x="726" y="66"/>
      <point x="706" y="79"/>
      <point x="706" y="103" type="curve" smooth="yes"/>
      <point x="706" y="137"/>
      <point x="738" y="157"/>
      <point x="809" y="157" type="curve"/>
    </contour>
    <contour>
      <point x="593" y="410" type="line"/>
      <point x="597" y="378"/>
      <point x="606" y="331"/>
      <point x="621" y="294" type="curve"/>
      <point x="797" y="368" type="line"/>
      <point x="759" y="417"/>
      <point x="709" y="446"/>
      <point x="646" y="455" type="curve"/>
    </contour>
    <component base="t_ra-deva"/>
    <contour>
      <point x="427" y="641" type="move" name="top"/>
    </contour>
    <contour>
      <point x="427" y="0" type="move" name="bottom"/>
    </contour>
  </outline>
</glyph>
<glyph name="lVocalic-deva" format="1">
  <advance width="821"/>
  <unicode hex="090C"/>
  <outline>
    <contour>
      <point x="485" y="611" type="line"/>
      <point x="510" y="536" type="line"/>
      <point x="833" y="536" type="line"/>
      <point x="846" y="566" type="line"/>
      <point x="821" y="641" type="line"/>
      <point x="495" y="641" type="line"/>
    </contour>
    <contour>
      <point x="733" y="54" type="line"/>
      <point x="723" y="184" type="line"/>
      <point x="723" y="563" type="line"/>
      <point x="609" y="563" type="line"/>
      <point x="609" y="185" type="line"/>
      <point x="598" y="54" type="line"/>
    </contour>
    <component base="l-deva"/>
    <component base="rVocalicMatra-deva" xOffset="504" yOffset="100"/>
    <contour>
      <point x="666" y="641" type="move" name="top"/>
    </contour>
    <contour>
      <point x="507" y="0" type="move" name="bottom"/>
    </contour>
  </outline>
</glyph>
<glyph name="eCandra-deva" format="1">
  <advance width="564"/>
  <unicode hex="090D"/>
  <outline>
    <component base="e-deva"/>
    <component base="eCandraMatra-deva" xOffset="230"/>
    <contour>
      <point x="430" y="800" type="move" name="top"/>
    </contour>
    <contour>
      <point x="270" y="0" type="move" name="bottom"/>
    </contour>
  </outline>
</glyph>
<glyph name="oShort-deva" format="1">
  <advance width="1134"/>
  <unicode hex="0912"/>
  <outline>
    <component base="aa-deva"/>
    <component base="eShortMatra-deva" xOffset="526" yOffset="-1"/>
    <contour>
      <point x="1061" y="705" type="move" name="top"/>
    </contour>
    <contour>
      <point x="979" y="0" type="move" name="bottom"/>
    </contour>
  </outline>
</glyph>
<glyph name="o-deva" format="1">
  <advance width="1134"/>
  <unicode hex="0913"/>
  <outline>
    <component base="aa-deva"/>
    <component base="eMatra-deva" xOffset="620" yOffset="-1"/>
    <contour>
      <point x="1040" y="705" type="move" name="top"/>
    </contour>
    <contour>
      <point x="979" y="0" type="move" name="bottom"/>
    </contour>
  </outline>
</glyph>
<glyph name="au-deva" format="1">
  <advance width="1134"/>
  <unicode hex="0914"/>
  <outline>
    <component base="aa-deva"/>
    <component base="aiMatra-deva" xOffset="559" yOffset="-1"/>
    <contour>
      <point x="1050" y="705" type="move" name="top"/>
    </contour>
    <contour>
      <point x="979" y="0" type="move" name="bottom"/>
    </contour>
  </outline>
</glyph>
